{
DisplayStrings = (
/gjA/gjNA/gjDDHA/gjPA/gjCHA/gjCHA.alt,
/gjPA/gjDDHA/gjPA/gjDDHA/gjPA
);
customParameters = (
{
name = glyphOrder;
value = (
    A,
    Aacute,
    Abreve,
    Acircumflex,
    Adieresis,
    Agrave,
    Amacron,
    Aogonek,
    Aring,
    Atilde,
    AE,
    B,
    C,
    Cacute,
    Ccaron,
    Ccedilla,
    D,
    Eth,
    Dcaron,
    Dcroat,
    E,
    Eacute,
    Ecaron,
    Ecircumflex,
    Edieresis,
    Edotaccent,
    Egrave,
    Emacron,
    Eogonek,
    F,
    G,
    Gbreve,
    Gcommaaccent,
    H,
    I,
    Iacute,
    Icircumflex,
    Idieresis,
    Idotaccent,
    Igrave,
    Imacron,
    Iogonek,
    J,
    K,
    Kcommaaccent,
    L,
    Lacute,
    Lcaron,
    Lcommaaccent,
    Lslash,
    M,
    N,
    Nacute,
    Ncaron,
    Ncommaaccent,
    Ntilde,
    O,
    Oacute,
    Ocircumflex,
    Odieresis,
    Ograve,
    Ohungarumlaut,
    Omacron,
    Oslash,
    Otilde,
    OE,
    P,
    Thorn,
    Q,
    R,
    Racute,
    Rcaron,
    Rcommaaccent,
    S,
    Sacute,
    Scaron,
    Scedilla,
    Scommaaccent,
    T,
    Tcaron,
    Tcedilla,
    Tcommaaccent,
    U,
    Uacute,
    Ucircumflex,
    Udieresis,
    Ugrave,
    Uhungarumlaut,
    Umacron,
    Uogonek,
    Uring,
    V,
    W,
    X,
    Y,
    Yacute,
    Ydieresis,
    Z,
    Zacute,
    Zcaron,
    Zdotaccent,
    a,
    aacute,
    abreve,
    acircumflex,
    adieresis,
    agrave,
    amacron,
    aogonek,
    aring,
    atilde,
    ae,
    b,
    c,
    cacute,
    ccaron,
    ccedilla,
    d,
    eth,
    dcaron,
    dcroat,
    e,
    eacute,
    ecaron,
    ecircumflex,
    edieresis,
    edotaccent,
    egrave,
    emacron,
    eogonek,
    f,
    g,
    gbreve,
    gcommaaccent,
    h,
    i,
    dotlessi,
    iacute,
    icircumflex,
    idieresis,
    igrave,
    imacron,
    iogonek,
    j,
    k,
    kcommaaccent,
    l,
    lacute,
    lcaron,
    lcommaaccent,
    lslash,
    m,
    n,
    nacute,
    ncaron,
    ncommaaccent,
    ntilde,

glyphs = (
{
glyphname = A;
lastChange = "2015-09-03 16:32:11 +0000";
layers = (
{
associatedMasterId = "FF8CB9F1-2B98-444C-A502-96421F2531A8";
background = {
paths = (
{
closed = 0;
nodes = (
"213 499 LINE SMOOTH",
"122 507 OFFCURVE",
"52 461 OFFCURVE",
"44 371 CURVE SMOOTH",
"40 326 OFFCURVE",
"69 283 OFFCURVE",
"86 281 CURVE SMOOTH",
"99 281 OFFCURVE",
"135 322 OFFCURVE",
"221 313 CURVE SMOOTH"
);
},
{
closed = 0;
nodes = (
"121 211 LINE",
"104 216 OFFCURVE",
"91 220 OFFCURVE",
"65 220 CURVE SMOOTH",
"26 220 OFFCURVE",
"-19 200 OFFCURVE",
"-35 137 CURVE SMOOTH",
"-54 64 OFFCURVE",
"-12 -4 OFFCURVE",
"66 -4 CURVE SMOOTH",
"150 -4 OFFCURVE",
"189 50 OFFCURVE",
"213 135 CURVE SMOOTH"
);
}
);
};
guideLines = (
{
angle = 73.5707;
position = "{114, 538}";
},
{
angle = 73.5707;
position = "{34, 508}";
},
{
angle = 59.097;
position = "{452, 725}";
}
);
layerId = "DE5D4294-BFB7-480E-B29D-C92DF58E3261";
name = "V1: Narrow";
paths = (
{
closed = 1;
nodes = (
"449 679 OFFCURVE",
"395 642 OFFCURVE",
"333 532 CURVE SMOOTH",
"141 189 LINE",
"120 205 OFFCURVE",
"96 218 OFFCURVE",
"64 218 CURVE SMOOTH",
"24 218 OFFCURVE",
"-20 196 OFFCURVE",
"-35 136 CURVE SMOOTH",
"-51 70 OFFCURVE",
"-15 -4 OFFCURVE",
"77 -4 CURVE SMOOTH",
"125 -4 OFFCURVE",
"156 19 OFFCURVE",
"195 88 CURVE SMOOTH",
"421 490 LINE SMOOTH",
"445 533 OFFCURVE",
"456 543 OFFCURVE",
"472 543 CURVE SMOOTH",
"487 543 OFFCURVE",
"497 532 OFFCURVE",
"489 506 CURVE SMOOTH",
"372 118 LINE SMOOTH",
"354 57 OFFCURVE",
"318 69 OFFCURVE",
"305 39 CURVE SMOOTH",
"295 15 OFFCURVE",
"310 0 OFFCURVE",
"346 0 CURVE SMOOTH",
"583 0 LINE SMOOTH",
"619 0 OFFCURVE",
"637 6 OFFCURVE",
"642 25 CURVE SMOOTH",
"654 58 OFFCURVE",
"606 54 OFFCURVE",
"624 118 CURVE SMOOTH",
"720 451 LINE SMOOTH",
"758 582 OFFCURVE",
"694 679 OFFCURVE",
"545 679 CURVE SMOOTH"
);
},
{
closed = 1;
nodes = (
"110 489 OFFCURVE",
"64 452 OFFCURVE",
"49 395 CURVE SMOOTH",
"30 322 OFFCURVE",
"76 281 OFFCURVE",
"97 281 CURVE SMOOTH",
"117 281 OFFCURVE",
"138 312 OFFCURVE",
"175 312 CURVE SMOOTH",
"233 312 OFFCURVE",
"263 217 OFFCURVE",
"365 217 CURVE SMOOTH",
"411 217 OFFCURVE",
"441 243 OFFCURVE",
"465 286 CURVE",
"444 352 LINE",
"432 324 OFFCURVE",
"424 311 OFFCURVE",
"401 311 CURVE SMOOTH",
"314 311 OFFCURVE",
"296 489 OFFCURVE",
"161 489 CURVE SMOOTH"
);
}
);
width = 719;
},
{
anchors = (
{
name = bottom;
position = "{284, 0}";
},
{
name = ogonek;
position = "{561, 10}";
},
{
name = top;
position = "{510, 651}";
}
);
background = {
paths = (
{
closed = 1;
nodes = (
"47 509 OFFCURVE",
"2 471 OFFCURVE",
"-10 419 CURVE SMOOTH",
"-26 352 OFFCURVE",
"16 301 OFFCURVE",
"41 301 CURVE SMOOTH",
"61 301 OFFCURVE",
"78 332 OFFCURVE",
"115 332 CURVE SMOOTH",
"181 332 OFFCURVE",
"219 199 OFFCURVE",
"329 199 CURVE SMOOTH",
"370 199 OFFCURVE",
"399 222 OFFCURVE",
"430 256 CURVE",
"428 351 LINE",
"414 319 OFFCURVE",
"393 306 OFFCURVE",
"363 306 CURVE SMOOTH",
"265 306 OFFCURVE",
"251 509 OFFCURVE",
"111 509 CURVE SMOOTH"
);
},
{
closed = 1;
nodes = (
"82 205 OFFCURVE",
"59 218 OFFCURVE",
"30 218 CURVE SMOOTH",
"-10 218 OFFCURVE",
"-54 196 OFFCURVE",
"-69 136 CURVE SMOOTH",
"-85 70 OFFCURVE",
"-49 -4 OFFCURVE",
"41 -4 CURVE SMOOTH",
"98 -4 OFFCURVE",
"139 19 OFFCURVE",
"176 98 CURVE SMOOTH",
"354 479 LINE SMOOTH",
"377 528 OFFCURVE",
"394 543 OFFCURVE",
"426 543 CURVE SMOOTH",
"460 543 OFFCURVE",
"478 521 OFFCURVE",
"465 480 CURVE SMOOTH",
"356 118 LINE SMOOTH",
"338 57 OFFCURVE",
"302 69 OFFCURVE",
"289 39 CURVE SMOOTH",
"279 15 OFFCURVE",
"294 0 OFFCURVE",
"330 0 CURVE SMOOTH",
"567 0 LINE SMOOTH",
"603 0 OFFCURVE",
"621 6 OFFCURVE",
"626 25 CURVE SMOOTH",
"638 58 OFFCURVE",
"590 54 OFFCURVE",
"608 118 CURVE SMOOTH",
"706 458 LINE SMOOTH",
"745 591 OFFCURVE",
"668 679 OFFCURVE",
"502 679 CURVE SMOOTH",
"377 679 OFFCURVE",
"313 627 OFFCURVE",
"259 516 CURVE SMOOTH",
"101 189 LINE"
);
}
);
};
guideLines = (
{
angle = 64.043;
position = "{316, 683}";
},
{
angle = 64.043;
position = "{442, 713}";
}
);
layerId = "FF8CB9F1-2B98-444C-A502-96421F2531A8";
name = "Bold Italic";
paths = (
{
closed = 1;
nodes = (
"157 204 LINE",
"523 204 LINE",
"527 304 LINE",
"161 304 LINE"
);
},
{
closed = 1;
nodes = (
"47 76 OFFCURVE",
"-32 79 OFFCURVE",
"-43 40 CURVE SMOOTH",
"-49 18 OFFCURVE",
"-33 0 OFFCURVE",
"3 0 CURVE SMOOTH",
"152 0 LINE SMOOTH",
"188 0 OFFCURVE",
"203 6 OFFCURVE",
"208 26 CURVE SMOOTH",
"218 63 OFFCURVE",
"153 49 OFFCURVE",
"199 147 CURVE SMOOTH",
"354 479 LINE SMOOTH",
"377 528 OFFCURVE",
"397 543 OFFCURVE",
"429 543 CURVE SMOOTH",
"461 543 OFFCURVE",
"478 521 OFFCURVE",
"465 480 CURVE SMOOTH",
"356 118 LINE SMOOTH",
"338 57 OFFCURVE",
"302 69 OFFCURVE",
"289 39 CURVE SMOOTH",
"279 15 OFFCURVE",
"294 0 OFFCURVE",
"330 0 CURVE SMOOTH",
"567 0 LINE SMOOTH",
"603 0 OFFCURVE",
"621 6 OFFCURVE",
"626 25 CURVE SMOOTH",
"638 58 OFFCURVE",
"590 54 OFFCURVE",
"608 118 CURVE SMOOTH",
"706 458 LINE SMOOTH",
"745 591 OFFCURVE",
"668 679 OFFCURVE",
"502 679 CURVE SMOOTH",
"377 679 OFFCURVE",
"312 627 OFFCURVE",
"259 516 CURVE SMOOTH",
"81 147 LINE SMOOTH"
);
}
);
width = 692;
},
{
associatedMasterId = "FF8CB9F1-2B98-444C-A502-96421F2531A8";
background = {
paths = (
{
closed = 1;
nodes = (
"479 679 OFFCURVE",
"407 641 OFFCURVE",
"343 532 CURVE SMOOTH",
"141 189 LINE",
"120 205 OFFCURVE",
"96 218 OFFCURVE",
"64 218 CURVE SMOOTH",
"24 218 OFFCURVE",
"-20 196 OFFCURVE",
"-35 136 CURVE SMOOTH",
"-51 70 OFFCURVE",
"-15 -4 OFFCURVE",
"67 -4 CURVE SMOOTH",
"132 -4 OFFCURVE",
"167 27 OFFCURVE",
"216 113 CURVE SMOOTH",
"431 490 LINE SMOOTH",
"455 532 OFFCURVE",
"486 543 OFFCURVE",
"502 543 CURVE SMOOTH",
"517 543 OFFCURVE",
"547 532 OFFCURVE",
"530 477 CURVE SMOOTH",
"422 118 LINE SMOOTH",
"404 57 OFFCURVE",
"368 69 OFFCURVE",
"355 39 CURVE SMOOTH",
"345 15 OFFCURVE",
"360 0 OFFCURVE",
"396 0 CURVE SMOOTH",
"633 0 LINE SMOOTH",
"669 0 OFFCURVE",
"687 6 OFFCURVE",
"692 25 CURVE SMOOTH",
"704 58 OFFCURVE",
"656 54 OFFCURVE",
"674 118 CURVE SMOOTH",
"770 451 LINE SMOOTH",
"808 582 OFFCURVE",
"744 679 OFFCURVE",
"595 679 CURVE SMOOTH"
);
},
{
closed = 1;
nodes = (
"116 509 OFFCURVE",
"70 472 OFFCURVE",
"55 415 CURVE SMOOTH",
"36 342 OFFCURVE",
"82 301 OFFCURVE",
"103 301 CURVE SMOOTH",
"123 301 OFFCURVE",
"144 332 OFFCURVE",
"181 332 CURVE SMOOTH",
"239 332 OFFCURVE",
"284 237 OFFCURVE",
"369 204 CURVE SMOOTH",
"412 187 OFFCURVE",
"482 213 OFFCURVE",
"506 256 CURVE",
"485 322 LINE",
"473 294 OFFCURVE",
"425 281 OFFCURVE",
"405 292 CURVE SMOOTH",
"335 331 OFFCURVE",
"302 509 OFFCURVE",
"167 509 CURVE SMOOTH"
);
}
);
};
guideLines = (
{
angle = 73.5707;
position = "{114, 538}";
},
{
angle = 73.5707;
position = "{34, 508}";
},
{
angle = 59.097;
position = "{452, 725}";
}
);
layerId = "95EF15EE-99BD-4B28-86F9-4CDC9EA909EF";
name = "Bold Italic Aug 13 15, 14:12";
paths = (
{
closed = 1;
nodes = (
"473 679 OFFCURVE",
"407 641 OFFCURVE",
"343 532 CURVE SMOOTH",
"141 189 LINE",
"120 205 OFFCURVE",
"96 218 OFFCURVE",
"64 218 CURVE SMOOTH",
"24 218 OFFCURVE",
"-20 196 OFFCURVE",
"-35 136 CURVE SMOOTH",
"-51 70 OFFCURVE",
"-15 -4 OFFCURVE",
"67 -4 CURVE SMOOTH",
"132 -4 OFFCURVE",
"167 27 OFFCURVE",
"216 113 CURVE SMOOTH",
"427 482 LINE SMOOTH",
"451 524 OFFCURVE",
"473 543 OFFCURVE",
"500 543 CURVE SMOOTH",
"531 543 OFFCURVE",
"541 514 OFFCURVE",
"530 477 CURVE SMOOTH",
"422 118 LINE SMOOTH",
"404 57 OFFCURVE",
"368 69 OFFCURVE",
"355 39 CURVE SMOOTH",
"345 15 OFFCURVE",
"360 0 OFFCURVE",
"396 0 CURVE SMOOTH",
"633 0 LINE SMOOTH",
"669 0 OFFCURVE",
"687 6 OFFCURVE",
"692 25 CURVE SMOOTH",
"704 58 OFFCURVE",
"656 54 OFFCURVE",
"674 118 CURVE SMOOTH",
"769 448 LINE SMOOTH",
"808 582 OFFCURVE",
"734 679 OFFCURVE",
"588 679 CURVE SMOOTH"
);
},
{
closed = 1;
nodes = (
"113 509 OFFCURVE",
"68 471 OFFCURVE",
"56 419 CURVE SMOOTH",
"40 352 OFFCURVE",
"82 301 OFFCURVE",
"107 301 CURVE SMOOTH",
"127 301 OFFCURVE",
"144 332 OFFCURVE",
"181 332 CURVE SMOOTH",
"247 332 OFFCURVE",
"285 199 OFFCURVE",
"395 199 CURVE SMOOTH",
"436 199 OFFCURVE",
"465 222 OFFCURVE",
"496 256 CURVE",
"494 351 LINE",
"480 319 OFFCURVE",
"459 306 OFFCURVE",
"429 306 CURVE SMOOTH",
"331 306 OFFCURVE",
"317 509 OFFCURVE",
"177 509 CURVE SMOOTH"
);
}
);
width = 758;
},
{
associatedMasterId = "FF8CB9F1-2B98-444C-A502-96421F2531A8";
background = {
paths = (
{
closed = 1;
nodes = (
"413 679 OFFCURVE",
"339 638 OFFCURVE",
"276 508 CURVE SMOOTH",
"121 189 LINE",
"101 207 OFFCURVE",
"75 218 OFFCURVE",
"43 218 CURVE SMOOTH",
"0 218 OFFCURVE",
"-40 196 OFFCURVE",
"-55 136 CURVE SMOOTH",
"-71 70 OFFCURVE",
"-28 -4 OFFCURVE",
"55 -4 CURVE SMOOTH",
"117 -4 OFFCURVE",
"154 26 OFFCURVE",
"188 97 CURVE SMOOTH",
"358 446 LINE SMOOTH",
"384 499 OFFCURVE",
"402 523 OFFCURVE",
"444 523 CURVE SMOOTH",
"483 523 OFFCURVE",
"495 492 OFFCURVE",
"484 457 CURVE SMOOTH",
"382 118 LINE SMOOTH",
"364 57 OFFCURVE",
"328 69 OFFCURVE",
"315 39 CURVE SMOOTH",
"305 15 OFFCURVE",
"320 0 OFFCURVE",
"356 0 CURVE SMOOTH",
"593 0 LINE SMOOTH",
"629 0 OFFCURVE",
"647 6 OFFCURVE",
"652 25 CURVE SMOOTH",
"664 58 OFFCURVE",
"616 54 OFFCURVE",
"634 118 CURVE SMOOTH",
"730 449 LINE SMOOTH",
"768 582 OFFCURVE",
"684 679 OFFCURVE",
"531 679 CURVE SMOOTH"
);
},
{
closed = 1;
nodes = (
"183 204 LINE",
"549 204 LINE",
"553 304 LINE",
"187 304 LINE"
);
}
);
};
guideLines = (
{
angle = 64.043;
position = "{342, 683}";
},
{
angle = 64.043;
position = "{468, 713}";
}
);
layerId = "E7D78943-D031-4D6A-B9FE-F0A5A9DC524D";
name = "Bold Italic Aug 13 15, 15:51";
paths = (
{
closed = 1;
nodes = (
"403 679 OFFCURVE",
"336 632 OFFCURVE",
"276 508 CURVE SMOOTH",
"121 189 LINE",
"101 207 OFFCURVE",
"75 218 OFFCURVE",
"43 218 CURVE SMOOTH",
"0 218 OFFCURVE",
"-40 196 OFFCURVE",
"-55 136 CURVE SMOOTH",
"-71 70 OFFCURVE",
"-28 -4 OFFCURVE",
"55 -4 CURVE SMOOTH",
"117 -4 OFFCURVE",
"154 26 OFFCURVE",
"188 97 CURVE SMOOTH",
"358 446 LINE SMOOTH",
"384 499 OFFCURVE",
"402 523 OFFCURVE",
"444 523 CURVE SMOOTH",
"483 523 OFFCURVE",
"495 492 OFFCURVE",
"484 457 CURVE SMOOTH",
"382 118 LINE SMOOTH",
"364 57 OFFCURVE",
"328 69 OFFCURVE",
"315 39 CURVE SMOOTH",
"305 15 OFFCURVE",
"320 0 OFFCURVE",
"356 0 CURVE SMOOTH",
"593 0 LINE SMOOTH",
"629 0 OFFCURVE",
"647 6 OFFCURVE",
"652 25 CURVE SMOOTH",
"664 58 OFFCURVE",
"616 54 OFFCURVE",
"634 118 CURVE SMOOTH",
"730 449 LINE SMOOTH",
"768 582 OFFCURVE",
"684 679 OFFCURVE",
"531 679 CURVE SMOOTH"
);
},
{
closed = 1;
nodes = (
"183 204 LINE",
"549 204 LINE",
"553 304 LINE",
"187 304 LINE"
);
}
);
width = 718;
},
{
associatedMasterId = "FF8CB9F1-2B98-444C-A502-96421F2531A8";
background = {
paths = (
{
closed = 1;
nodes = (
"393 679 OFFCURVE",
"336 632 OFFCURVE",
"287 532 CURVE SMOOTH",
"121 189 LINE",
"101 207 OFFCURVE",
"75 218 OFFCURVE",
"43 218 CURVE SMOOTH",
"0 218 OFFCURVE",
"-40 196 OFFCURVE",
"-55 136 CURVE SMOOTH",
"-71 70 OFFCURVE",
"-28 -4 OFFCURVE",
"55 -4 CURVE SMOOTH",
"117 -4 OFFCURVE",
"155 27 OFFCURVE",
"188 97 CURVE SMOOTH",
"375 495 LINE SMOOTH",
"391 529 OFFCURVE",
"412 543 OFFCURVE",
"450 543 CURVE SMOOTH",
"489 543 OFFCURVE",
"505 525 OFFCURVE",
"494 490 CURVE SMOOTH",
"382 118 LINE SMOOTH",
"364 57 OFFCURVE",
"328 69 OFFCURVE",
"315 39 CURVE SMOOTH",
"305 15 OFFCURVE",
"320 0 OFFCURVE",
"356 0 CURVE SMOOTH",
"593 0 LINE SMOOTH",
"629 0 OFFCURVE",
"647 6 OFFCURVE",
"652 25 CURVE SMOOTH",
"664 58 OFFCURVE",
"616 54 OFFCURVE",
"634 118 CURVE SMOOTH",
"732 458 LINE SMOOTH",
"771 591 OFFCURVE",
"694 679 OFFCURVE",
"522 679 CURVE SMOOTH"
);
},
{
closed = 1;
nodes = (
"183 204 LINE",
"549 204 LINE",
"553 304 LINE",
"187 304 LINE"
);
}
);
};
guideLines = (
{
angle = 64.043;
position = "{342, 683}";
},
{
angle = 64.043;
position = "{468, 713}";
}
);
layerId = "5110C8A6-67F8-4702-B6C1-D34BB66688CF";
name = "Bold Italic Aug 14 15, 13:32";
paths = (
{
closed = 1;
nodes = (
"393 679 OFFCURVE",
"336 632 OFFCURVE",
"287 532 CURVE SMOOTH",
"121 189 LINE",
"101 207 OFFCURVE",
"75 218 OFFCURVE",
"43 218 CURVE SMOOTH",
"0 218 OFFCURVE",
"-40 196 OFFCURVE",
"-55 136 CURVE SMOOTH",
"-71 70 OFFCURVE",
"-28 -4 OFFCURVE",
"55 -4 CURVE SMOOTH",
"117 -4 OFFCURVE",
"155 27 OFFCURVE",
"188 97 CURVE SMOOTH",
"375 495 LINE SMOOTH",
"391 529 OFFCURVE",
"412 543 OFFCURVE",
"450 543 CURVE SMOOTH",
"489 543 OFFCURVE",
"505 525 OFFCURVE",
"494 490 CURVE SMOOTH",
"382 118 LINE SMOOTH",
"364 57 OFFCURVE",
"328 69 OFFCURVE",
"315 39 CURVE SMOOTH",
"305 15 OFFCURVE",
"320 0 OFFCURVE",
"356 0 CURVE SMOOTH",
"593 0 LINE SMOOTH",
"629 0 OFFCURVE",
"647 6 OFFCURVE",
"652 25 CURVE SMOOTH",
"664 58 OFFCURVE",
"616 54 OFFCURVE",
"634 118 CURVE SMOOTH",
"732 458 LINE SMOOTH",
"771 591 OFFCURVE",
"694 679 OFFCURVE",
"522 679 CURVE SMOOTH"
);
},
{
closed = 1;
nodes = (
"183 204 LINE",
"549 204 LINE",
"553 304 LINE",
"187 304 LINE"
);
}
);
width = 728;
}
);
unicode = 0041;
},
{
glyphname = B;
lastChange = "2015-09-03 16:32:11 +0000";
layers = (
{
background = {
paths = (
{
closed = 1;
nodes = (
"202 666 LINE SMOOTH",
"166 666 OFFCURVE",
"148 660 OFFCURVE",
"143 642 CURVE SMOOTH",
"131 608 OFFCURVE",
"176 609 OFFCURVE",
"159 549 CURVE SMOOTH",
"37 118 LINE SMOOTH",
"20 58 OFFCURVE",
"-17 69 OFFCURVE",
"-30 39 CURVE SMOOTH",
"-40 15 OFFCURVE",
"-25 0 OFFCURVE",
"11 0 CURVE SMOOTH",
"430 0 LINE SMOOTH",
"595 0 OFFCURVE",
"678 50 OFFCURVE",
"707 153 CURVE SMOOTH",
"734 249 OFFCURVE",
"688 310 OFFCURVE",
"611 332 CURVE",
"692 348 OFFCURVE",
"756 384 OFFCURVE",
"778 460 CURVE SMOOTH",
"811 574 OFFCURVE",
"727 666 OFFCURVE",
"563 666 CURVE SMOOTH"
);
},
{
closed = 1;
nodes = (
"497 421 OFFCURVE",
"456 389 OFFCURVE",
"412 389 CURVE SMOOTH",
"365 389 LINE",
"418 576 LINE",
"461 576 LINE SMOOTH",
"505 576 OFFCURVE",
"529 533 OFFCURVE",
"513 477 CURVE SMOOTH"
);
},
{
closed = 1;
nodes = (
"420 111 OFFCURVE",
"386 90 OFFCURVE",
"331 90 CURVE SMOOTH",
"280 90 LINE",
"337 287 LINE",
"387 287 LINE SMOOTH",
"432 287 OFFCURVE",
"464 267 OFFCURVE",
"442 189 CURVE SMOOTH"
);
}
);
};
guideLines = (
{
angle = 74.1952;
position = "{544, 549}";
},
{
angle = 74.1952;
position = "{819, 549}";
},
{
position = "{309, 189}";
},
{
angle = 74.1952;
position = "{461, 549}";
},
{
angle = 74.1952;
position = "{516, 549}";
},
{
angle = 74.1952;
position = "{804, 549}";
},
{
angle = 74.1952;
position = "{585, 549}";
}
);
layerId = "FF8CB9F1-2B98-444C-A502-96421F2531A8";
name = "Bold Italic";
paths = (
{
closed = 1;
nodes = (
"202 666 LINE SMOOTH",
"166 666 OFFCURVE",
"148 660 OFFCURVE",
"143 642 CURVE SMOOTH",
"131 608 OFFCURVE",
"176 609 OFFCURVE",
"159 549 CURVE SMOOTH",
"37 118 LINE SMOOTH",
"20 58 OFFCURVE",
"-17 69 OFFCURVE",
"-30 39 CURVE SMOOTH",
"-40 15 OFFCURVE",
"-25 0 OFFCURVE",
"11 0 CURVE SMOOTH",
"427 0 LINE SMOOTH",
"592 0 OFFCURVE",
"675 50 OFFCURVE",
"704 153 CURVE SMOOTH",
"731 249 OFFCURVE",
"685 310 OFFCURVE",
"608 332 CURVE",
"689 348 OFFCURVE",
"753 384 OFFCURVE",
"775 460 CURVE SMOOTH",
"808 574 OFFCURVE",
"724 666 OFFCURVE",
"560 666 CURVE SMOOTH"
);
},
{
closed = 1;
nodes = (
"420 111 OFFCURVE",
"386 90 OFFCURVE",
"331 90 CURVE SMOOTH",
"280 90 LINE",
"337 287 LINE",
"387 287 LINE SMOOTH",
"432 287 OFFCURVE",
"464 267 OFFCURVE",
"442 189 CURVE SMOOTH"
);
},
{
closed = 1;
nodes = (
"494 409 OFFCURVE",
"462 389 OFFCURVE",
"409 389 CURVE SMOOTH",
"365 389 LINE",
"418 576 LINE",
"463 576 LINE SMOOTH",
"505 576 OFFCURVE",
"536 557 OFFCURVE",
"515 483 CURVE SMOOTH"
);
}
);
width = 748;
}
);
leftKerningGroup = H;
leftMetricsKey = H;
unicode = 0042;
},
{
glyphname = C;
lastChange = "2015-09-03 16:32:11 +0000";
layers = (
{
anchors = (
{
name = top;
position = "{470, 651}";
}
);
guideLines = (
{
angle = 73.2323;
position = "{1093, 784}";
},
{
angle = 73.2323;
position = "{259, 914}";
},
{
angle = 73.2323;
position = "{638, 914}";
}
);
layerId = "FF8CB9F1-2B98-444C-A502-96421F2531A8";
name = "Bold Italic";
paths = (
{
closed = 1;
nodes = (
"520 -6 OFFCURVE",
"623 146 OFFCURVE",
"622 181 CURVE SMOOTH",
"623 205 OFFCURVE",
"588 235 OFFCURVE",
"565 235 CURVE SMOOTH",
"512 235 OFFCURVE",
"485 114 OFFCURVE",
"366 114 CURVE SMOOTH",
"303 114 OFFCURVE",
"270 183 OFFCURVE",
"322 355 CURVE SMOOTH",
"364 494 OFFCURVE",
"417 557 OFFCURVE",
"470 557 CURVE SMOOTH",
"510 557 OFFCURVE",
"523 540 OFFCURVE",
"553 480 CURVE SMOOTH",
"579 424 OFFCURVE",
"597 398 OFFCURVE",
"633 398 CURVE SMOOTH",
"667 398 OFFCURVE",
"680 412 OFFCURVE",
"692 447 CURVE SMOOTH",
"748 603 LINE SMOOTH",
"763 644 OFFCURVE",
"738 668 OFFCURVE",
"697 668 CURVE SMOOTH",
"666 668 OFFCURVE",
"646 659 OFFCURVE",
"610 631 CURVE SMOOTH",
"583 610 LINE",
"536 651 OFFCURVE",
"481 676 OFFCURVE",
"401 676 CURVE SMOOTH",
"278 676 OFFCURVE",
"129 610 OFFCURVE",
"63 393 CURVE SMOOTH",
"-15 132 OFFCURVE",
"138 -6 OFFCURVE",
"339 -6 CURVE SMOOTH"
);
}
);
width = 677;
},
{
associatedMasterId = "FF8CB9F1-2B98-444C-A502-96421F2531A8";
background = {
components = (
{
name = H;
}
);
};
guideLines = (
{
angle = 73.2323;
position = "{1098, 784}";
},
{
angle = 73.2323;
position = "{264, 914}";
},
{
angle = 73.2323;
position = "{643, 914}";
}
);
layerId = "E1C37AC8-22DE-4E65-A886-E6A4BBE6CB91";
name = "Bold Italic Aug 13 15, 17:48";
paths = (
{
closed = 1;
nodes = (
"369 494 OFFCURVE",
"424 547 OFFCURVE",
"491 547 CURVE SMOOTH",
"538 547 OFFCURVE",
"571 518 OFFCURVE",
"609 464 CURVE SMOOTH",
"640 420 OFFCURVE",
"651 410 OFFCURVE",
"676 410 CURVE SMOOTH",
"693 410 LINE SMOOTH",
"712 410 OFFCURVE",
"723 424 OFFCURVE",
"733 458 CURVE SMOOTH",
"779 622 LINE SMOOTH",
"788 649 OFFCURVE",
"779 666 OFFCURVE",
"746 666 CURVE SMOOTH",
"713 666 LINE SMOOTH",
"677 666 OFFCURVE",
"651 643 OFFCURVE",
"621 605 CURVE",
"573 648 OFFCURVE",
"510 676 OFFCURVE",
"426 676 CURVE SMOOTH",
"283 676 OFFCURVE",
"138 610 OFFCURVE",
"76 393 CURVE SMOOTH",
"2 132 OFFCURVE",
"155 -6 OFFCURVE",
"376 -6 CURVE SMOOTH",
"557 -6 OFFCURVE",
"667 129 OFFCURVE",
"666 164 CURVE SMOOTH",
"666 188 OFFCURVE",
"631 218 OFFCURVE",
"608 218 CURVE SMOOTH",
"565 218 OFFCURVE",
"520 133 OFFCURVE",
"431 133 CURVE SMOOTH",
"338 133 OFFCURVE",
"281 183 OFFCURVE",
"330 355 CURVE SMOOTH"
);
}
);
width = 712;
},
{
associatedMasterId = "FF8CB9F1-2B98-444C-A502-96421F2531A8";
background = {
components = (
{
name = O;
}
);
paths = (
{
closed = 1;
nodes = (
"535 556 OFFCURVE",
"557 578 OFFCURVE",
"557 607 CURVE SMOOTH",
"557 634 OFFCURVE",
"535 656 OFFCURVE",
"508 656 CURVE SMOOTH",
"479 656 OFFCURVE",
"457 634 OFFCURVE",
"457 607 CURVE SMOOTH",
"457 578 OFFCURVE",
"479 556 OFFCURVE",
"508 556 CURVE SMOOTH"
);
}
);
};
guideLines = (
{
angle = 73.2323;
position = "{1093, 784}";
},
{
angle = 73.2323;
position = "{259, 914}";
},
{
angle = 73.2323;
position = "{638, 914}";
}
);
layerId = "FB91DEF1-873D-4E8B-90BA-D01F1D42BD13";
name = "Bold Italic Aug 21 15, 15:40";
paths = (
{
closed = 1;
nodes = (
"532 -6 OFFCURVE",
"632 146 OFFCURVE",
"631 181 CURVE SMOOTH",
"631 205 OFFCURVE",
"596 235 OFFCURVE",
"573 235 CURVE SMOOTH",
"520 235 OFFCURVE",
"495 114 OFFCURVE",
"376 114 CURVE SMOOTH",
"313 114 OFFCURVE",
"279 183 OFFCURVE",
"328 355 CURVE SMOOTH",
"367 494 OFFCURVE",
"419 557 OFFCURVE",
"472 557 CURVE SMOOTH",
"512 557 OFFCURVE",
"532 540 OFFCURVE",
"563 480 CURVE SMOOTH",
"592 424 OFFCURVE",
"611 398 OFFCURVE",
"647 398 CURVE SMOOTH",
"681 398 OFFCURVE",
"694 412 OFFCURVE",
"704 447 CURVE SMOOTH",
"752 603 LINE SMOOTH",
"764 644 OFFCURVE",
"738 668 OFFCURVE",
"697 668 CURVE SMOOTH",
"666 668 OFFCURVE",
"647 659 OFFCURVE",
"612 631 CURVE SMOOTH",
"586 610 LINE",
"538 651 OFFCURVE",
"481 676 OFFCURVE",
"401 676 CURVE SMOOTH",
"278 676 OFFCURVE",
"130 610 OFFCURVE",
"68 393 CURVE SMOOTH",
"-6 132 OFFCURVE",
"150 -6 OFFCURVE",
"351 -6 CURVE SMOOTH"
);
}
);
width = 677;
visible = 1;
}
);
leftKerningGroup = O;
unicode = 0043;
},
{
glyphname = D;
lastChange = "2015-09-03 16:32:11 +0000";
layers = (
{
anchors = (
{
name = top;
position = "{440, 651}";
}
);
background = {
components = (
{
name = H;
}
);
};
guideLines = (
{
angle = 74.1603;
position = "{566, 549}";
}
);
layerId = "FF8CB9F1-2B98-444C-A502-96421F2531A8";
name = "Bold Italic";
paths = (
{
closed = 1;
nodes = (
"202 666 LINE",
"166 666 OFFCURVE",
"148 660 OFFCURVE",
"143 642 CURVE SMOOTH",
"131 608 OFFCURVE",
"176 609 OFFCURVE",
"159 549 CURVE SMOOTH",
"37 119 LINE SMOOTH",
"20 59 OFFCURVE",
"-17 71 OFFCURVE",
"-30 40 CURVE SMOOTH",
"-40 17 OFFCURVE",
"-25 1 OFFCURVE",
"11 1 CURVE SMOOTH",
"283 0 LINE SMOOTH",
"568 -1 OFFCURVE",
"689 86 OFFCURVE",
"754 313 CURVE SMOOTH",
"819 541 OFFCURVE",
"726 666 OFFCURVE",
"472 666 CURVE SMOOTH"
);
},
{
closed = 1;
nodes = (
"440 130 OFFCURVE",
"392 90 OFFCURVE",
"306 90 CURVE SMOOTH",
"282 90 LINE",
"417 576 LINE",
"439 576 LINE SMOOTH",
"512 576 OFFCURVE",
"555 537 OFFCURVE",
"498 335 CURVE SMOOTH"
);
}
);
width = 759;
}
);
leftKerningGroup = H;
leftMetricsKey = H;
unicode = 0044;
},
{
glyphname = E;
lastChange = "2015-09-03 16:32:11 +0000";
layers = (
{
anchors = (
{
name = top;
position = "{410, 651}";
}
);
background = {
paths = (
{
closed = 1;
nodes = (
"331 308 LINE",
"382 308 LINE SMOOTH",
"394 308 OFFCURVE",
"400 302 OFFCURVE",
"404 293 CURVE SMOOTH",
"421 258 LINE SMOOTH",
"429 241 OFFCURVE",
"442 229 OFFCURVE",
"463 229 CURVE SMOOTH",
"483 229 OFFCURVE",
"506 240 OFFCURVE",
"515 272 CURVE SMOOTH",
"556 411 LINE SMOOTH",
"564 438 OFFCURVE",
"545 457 OFFCURVE",
"517 457 CURVE SMOOTH",
"494 457 OFFCURVE",
"481 447 OFFCURVE",
"464 432 CURVE SMOOTH",
"430 402 LINE SMOOTH",
"423 396 OFFCURVE",
"418 392 OFFCURVE",
"411 392 CURVE SMOOTH",
"358 392 LINE"
);
},
{
closed = 1;
nodes = (
"416 565 LINE",
"526 565 LINE SMOOTH",
"553 565 OFFCURVE",
"556 557 OFFCURVE",
"561 540 CURVE SMOOTH",
"577 483 LINE SMOOTH",
"586 450 OFFCURVE",
"603 438 OFFCURVE",
"635 438 CURVE SMOOTH",
"667 438 OFFCURVE",
"684 449 OFFCURVE",
"694 486 CURVE SMOOTH",
"720 579 LINE SMOOTH",
"736 634 OFFCURVE",
"706 666 OFFCURVE",
"646 666 CURVE SMOOTH",
"202 666 LINE SMOOTH",
"167 666 OFFCURVE",
"149 660 OFFCURVE",
"143 642 CURVE SMOOTH",
"131 608 OFFCURVE",
"177 609 OFFCURVE",
"160 549 CURVE SMOOTH",
"37 118 LINE SMOOTH",
"20 58 OFFCURVE",
"-17 69 OFFCURVE",
"-30 39 CURVE SMOOTH",
"-40 15 OFFCURVE",
"-25 0 OFFCURVE",
"11 0 CURVE SMOOTH",
"488 0 LINE SMOOTH",
"542 0 OFFCURVE",
"566 18 OFFCURVE",
"581 68 CURVE SMOOTH",
"610 169 LINE SMOOTH",
"622 212 OFFCURVE",
"594 228 OFFCURVE",
"563 228 CURVE SMOOTH",
"533 228 OFFCURVE",
"517 217 OFFCURVE",
"497 196 CURVE SMOOTH",
"437 130 LINE SMOOTH",
"414 105 OFFCURVE",
"398 96 OFFCURVE",
"372 96 CURVE SMOOTH",
"284 96 LINE"
);
}
);
};
guideLines = (
{
angle = 74.2018;
position = "{426, 525}";
showMeasurement = 1;
},
{
angle = 74.2018;
position = "{710, 525}";
}
);
layerId = "FF8CB9F1-2B98-444C-A502-96421F2531A8";
name = "Bold Italic";
paths = (
{
closed = 1;
nodes = (
"331 308 LINE",
"382 308 LINE SMOOTH",
"394 308 OFFCURVE",
"400 302 OFFCURVE",
"404 293 CURVE SMOOTH",
"421 258 LINE SMOOTH",
"429 241 OFFCURVE",
"442 229 OFFCURVE",
"463 229 CURVE SMOOTH",
"483 229 OFFCURVE",
"506 240 OFFCURVE",
"515 272 CURVE SMOOTH",
"556 411 LINE SMOOTH",
"564 438 OFFCURVE",
"545 457 OFFCURVE",
"517 457 CURVE SMOOTH",
"494 457 OFFCURVE",
"481 447 OFFCURVE",
"464 432 CURVE SMOOTH",
"430 402 LINE SMOOTH",
"423 396 OFFCURVE",
"418 392 OFFCURVE",
"411 392 CURVE SMOOTH",
"358 392 LINE"
);
},
{
closed = 1;
nodes = (
"417 570 LINE",
"522 570 LINE SMOOTH",
"549 570 OFFCURVE",
"555 563 OFFCURVE",
"561 540 CURVE SMOOTH",
"577 483 LINE SMOOTH",
"586 450 OFFCURVE",
"603 438 OFFCURVE",
"635 438 CURVE SMOOTH",
"667 438 OFFCURVE",
"684 449 OFFCURVE",
"694 486 CURVE SMOOTH",
"720 579 LINE SMOOTH",
"736 634 OFFCURVE",
"706 666 OFFCURVE",
"646 666 CURVE SMOOTH",
"202 666 LINE SMOOTH",
"167 666 OFFCURVE",
"149 660 OFFCURVE",
"143 642 CURVE SMOOTH",
"131 608 OFFCURVE",
"177 609 OFFCURVE",
"160 549 CURVE SMOOTH",
"37 118 LINE SMOOTH",
"20 58 OFFCURVE",
"-17 69 OFFCURVE",
"-30 39 CURVE SMOOTH",
"-40 15 OFFCURVE",
"-25 0 OFFCURVE",
"11 0 CURVE SMOOTH",
"488 0 LINE SMOOTH",
"542 0 OFFCURVE",
"566 18 OFFCURVE",
"581 68 CURVE SMOOTH",
"610 169 LINE SMOOTH",
"622 212 OFFCURVE",
"594 228 OFFCURVE",
"563 228 CURVE SMOOTH",
"533 228 OFFCURVE",
"517 217 OFFCURVE",
"497 196 CURVE SMOOTH",
"437 130 LINE SMOOTH",
"414 105 OFFCURVE",
"398 96 OFFCURVE",
"372 96 CURVE SMOOTH",
"284 96 LINE"
);
}
);
width = 658;
},
{
associatedMasterId = "FF8CB9F1-2B98-444C-A502-96421F2531A8";
background = {
paths = (
{
closed = 1;
nodes = (
"463 422 LINE",
"570 755 LINE SMOOTH",
"599 845 OFFCURVE",
"554 902 OFFCURVE",
"418 902 CURVE SMOOTH",
"306 902 OFFCURVE",
"268 876 OFFCURVE",
"241 791 CURVE SMOOTH",
"122 422 LINE"
);
}
);
};
layerId = "81B3EF91-8A2F-4354-AEEA-788F4A6F7E16";
name = V1;
paths = (
{
closed = 1;
nodes = (
"24 58 OFFCURVE",
"-13 69 OFFCURVE",
"-26 39 CURVE SMOOTH",
"-36 15 OFFCURVE",
"-21 0 OFFCURVE",
"15 0 CURVE SMOOTH",
"508 0 LINE SMOOTH",
"554 0 OFFCURVE",
"584 18 OFFCURVE",
"597 59 CURVE SMOOTH",
"636 183 LINE SMOOTH",
"647 220 OFFCURVE",
"643 228 OFFCURVE",
"625 228 CURVE SMOOTH",
"607 228 OFFCURVE",
"583 218 OFFCURVE",
"564 191 CURVE SMOOTH",
"520 130 LINE SMOOTH",
"505 109 OFFCURVE",
"491 102 OFFCURVE",
"471 102 CURVE SMOOTH",
"289 102 LINE",
"341 287 LINE",
"420 287 LINE SMOOTH",
"435 287 OFFCURVE",
"442 280 OFFCURVE",
"443 264 CURVE SMOOTH",
"446 241 LINE SMOOTH",
"448 214 OFFCURVE",
"463 207 OFFCURVE",
"480 207 CURVE SMOOTH",
"496 207 OFFCURVE",
"507 214 OFFCURVE",
"518 244 CURVE SMOOTH",
"572 413 LINE SMOOTH",
"580 440 OFFCURVE",
"571 453 OFFCURVE",
"549 453 CURVE SMOOTH",
"528 453 OFFCURVE",
"512 445 OFFCURVE",
"498 428 CURVE SMOOTH",
"474 403 LINE SMOOTH",
"463 391 OFFCURVE",
"454 389 OFFCURVE",
"444 389 CURVE SMOOTH",
"370 389 LINE",
"420 565 LINE",
"604 565 LINE SMOOTH",
"624 565 OFFCURVE",
"633 558 OFFCURVE",
"634 536 CURVE SMOOTH",
"638 475 LINE SMOOTH",
"640 448 OFFCURVE",
"657 438 OFFCURVE",
"675 438 CURVE SMOOTH",
"693 438 OFFCURVE",
"703 447 OFFCURVE",
"716 483 CURVE SMOOTH",
"756 608 LINE SMOOTH",
"770 649 OFFCURVE",
"751 666 OFFCURVE",
"706 666 CURVE SMOOTH",
"206 666 LINE SMOOTH",
"171 666 OFFCURVE",
"153 660 OFFCURVE",
"147 642 CURVE SMOOTH",
"135 608 OFFCURVE",
"181 609 OFFCURVE",
"164 549 CURVE SMOOTH",
"41 118 LINE SMOOTH"
);
}
);
width = 683;
}
);
leftKerningGroup = H;
leftMetricsKey = H;
unicode = 0045;
},
{
glyphname = F;
lastChange = "2015-09-03 16:32:11 +0000";
layers = (
{
associatedMasterId = "FF8CB9F1-2B98-444C-A502-96421F2531A8";
background = {
paths = (
{
closed = 1;
nodes = (
"763 608 LINE SMOOTH",
"777 649 OFFCURVE",
"758 666 OFFCURVE",
"713 666 CURVE SMOOTH",
"206 666 LINE SMOOTH",
"171 666 OFFCURVE",
"153 660 OFFCURVE",
"147 642 CURVE SMOOTH",
"135 608 OFFCURVE",
"181 609 OFFCURVE",
"164 549 CURVE SMOOTH",
"41 118 LINE SMOOTH",
"25 59 OFFCURVE",
"-18 68 OFFCURVE",
"-26 36 CURVE SMOOTH",
"-31 13 OFFCURVE",
"-13 0 OFFCURVE",
"22 0 CURVE SMOOTH",
"273 0 LINE SMOOTH",
"308 0 OFFCURVE",
"330 6 OFFCURVE",
"335 25 CURVE SMOOTH",
"344 57 OFFCURVE",
"276 62 OFFCURVE",
"293 118 CURVE SMOOTH",
"336 265 LINE",
"434 265 LINE SMOOTH",
"443 265 OFFCURVE",
"451 258 OFFCURVE",
"453 248 CURVE SMOOTH",
"460 209 LINE SMOOTH",
"465 185 OFFCURVE",
"480 176 OFFCURVE",
"498 176 CURVE SMOOTH",
"516 176 OFFCURVE",
"529 184 OFFCURVE",
"538 216 CURVE SMOOTH",
"590 398 LINE SMOOTH",
"599 426 OFFCURVE",
"588 440 OFFCURVE",
"568 440 CURVE SMOOTH",
"549 440 OFFCURVE",
"532 432 OFFCURVE",
"514 412 CURVE SMOOTH",
"480 375 LINE SMOOTH",
"477 370 OFFCURVE",
"471 367 OFFCURVE",
"464 367 CURVE SMOOTH",
"366 367 LINE",
"420 565 LINE",
"611 565 LINE SMOOTH",
"631 565 OFFCURVE",
"640 558 OFFCURVE",
"641 536 CURVE SMOOTH",
"645 475 LINE SMOOTH",
"647 448 OFFCURVE",
"664 438 OFFCURVE",
"682 438 CURVE SMOOTH",
"700 438 OFFCURVE",
"710 447 OFFCURVE",
"723 483 CURVE SMOOTH"
);
}
);
};
layerId = "C3A91533-1A31-474D-8780-AFE384B909B0";
name = V1;
paths = (
{
closed = 1;
nodes = (
"763 608 LINE SMOOTH",
"777 649 OFFCURVE",
"758 666 OFFCURVE",
"713 666 CURVE SMOOTH",
"206 666 LINE SMOOTH",
"171 666 OFFCURVE",
"153 660 OFFCURVE",
"147 642 CURVE SMOOTH",
"135 608 OFFCURVE",
"181 609 OFFCURVE",
"164 549 CURVE SMOOTH",
"41 118 LINE SMOOTH",
"25 59 OFFCURVE",
"-18 68 OFFCURVE",
"-26 36 CURVE SMOOTH",
"-31 13 OFFCURVE",
"-13 0 OFFCURVE",
"22 0 CURVE SMOOTH",
"273 0 LINE SMOOTH",
"308 0 OFFCURVE",
"330 6 OFFCURVE",
"335 25 CURVE SMOOTH",
"344 57 OFFCURVE",
"276 62 OFFCURVE",
"293 118 CURVE SMOOTH",
"336 265 LINE",
"434 265 LINE SMOOTH",
"443 265 OFFCURVE",
"451 258 OFFCURVE",
"453 248 CURVE SMOOTH",
"460 209 LINE SMOOTH",
"465 185 OFFCURVE",
"480 176 OFFCURVE",
"498 176 CURVE SMOOTH",
"516 176 OFFCURVE",
"529 184 OFFCURVE",
"538 216 CURVE SMOOTH",
"590 398 LINE SMOOTH",
"599 426 OFFCURVE",
"588 440 OFFCURVE",
"568 440 CURVE SMOOTH",
"549 440 OFFCURVE",
"532 432 OFFCURVE",
"514 412 CURVE SMOOTH",
"480 375 LINE SMOOTH",
"477 370 OFFCURVE",
"471 367 OFFCURVE",
"464 367 CURVE SMOOTH",
"366 367 LINE",
"420 565 LINE",
"611 565 LINE SMOOTH",
"631 565 OFFCURVE",
"640 558 OFFCURVE",
"641 536 CURVE SMOOTH",
"645 475 LINE SMOOTH",
"647 448 OFFCURVE",
"664 438 OFFCURVE",
"682 438 CURVE SMOOTH",
"700 438 OFFCURVE",
"710 447 OFFCURVE",
"723 483 CURVE SMOOTH"
);
}
);
width = 662;
},
{
background = {
paths = (
{
closed = 1;
nodes = (
"728 608 LINE SMOOTH",
"742 649 OFFCURVE",
"693 666 OFFCURVE",
"647 666 CURVE SMOOTH",
"201 666 LINE SMOOTH",
"166 666 OFFCURVE",
"148 660 OFFCURVE",
"142 642 CURVE SMOOTH",
"130 608 OFFCURVE",
"176 609 OFFCURVE",
"159 549 CURVE SMOOTH",
"36 118 LINE SMOOTH",
"20 59 OFFCURVE",
"-23 68 OFFCURVE",
"-31 36 CURVE SMOOTH",
"-36 13 OFFCURVE",
"-18 0 OFFCURVE",
"17 0 CURVE SMOOTH",
"268 0 LINE SMOOTH",
"303 0 OFFCURVE",
"325 6 OFFCURVE",
"330 25 CURVE SMOOTH",
"339 57 OFFCURVE",
"272 62 OFFCURVE",
"288 118 CURVE SMOOTH",
"331 267 LINE",
"363 267 LINE SMOOTH",
"376 267 OFFCURVE",
"383 262 OFFCURVE",
"387 250 CURVE SMOOTH",
"400 211 LINE SMOOTH",
"407 189 OFFCURVE",
"424 178 OFFCURVE",
"447 178 CURVE SMOOTH",
"470 178 OFFCURVE",
"490 190 OFFCURVE",
"501 227 CURVE SMOOTH",
"547 388 LINE SMOOTH",
"556 418 OFFCURVE",
"540 440 OFFCURVE",
"508 440 CURVE SMOOTH",
"483 440 OFFCURVE",
"465 430 OFFCURVE",
"448 412 CURVE SMOOTH",
"417 378 LINE SMOOTH",
"410 370 OFFCURVE",
"403 367 OFFCURVE",
"395 367 CURVE SMOOTH",
"361 367 LINE",
"415 566 LINE",
"525 566 LINE SMOOTH",
"546 566 OFFCURVE",
"550 557 OFFCURVE",
"555 536 CURVE SMOOTH",
"569 475 LINE SMOOTH",
"575 449 OFFCURVE",
"598 438 OFFCURVE",
"616 438 CURVE SMOOTH",
"635 438 OFFCURVE",
"675 447 OFFCURVE",
"688 483 CURVE SMOOTH"
);
}
);
};
layerId = "FF8CB9F1-2B98-444C-A502-96421F2531A8";
name = "Bold Italic";
paths = (
{
closed = 1;
nodes = (
"268 0 LINE SMOOTH",
"303 0 OFFCURVE",
"325 6 OFFCURVE",
"330 25 CURVE SMOOTH",
"340 61 OFFCURVE",
"272 62 OFFCURVE",
"288 118 CURVE SMOOTH",
"415 565 LINE",
"515 565 LINE SMOOTH",
"542 565 OFFCURVE",
"545 557 OFFCURVE",
"550 540 CURVE SMOOTH",
"566 483 LINE SMOOTH",
"575 450 OFFCURVE",
"596 438 OFFCURVE",
"628 438 CURVE SMOOTH",
"660 438 OFFCURVE",
"683 449 OFFCURVE",
"693 486 CURVE SMOOTH",
"719 579 LINE SMOOTH",
"735 634 OFFCURVE",
"705 666 OFFCURVE",
"645 666 CURVE SMOOTH",
"201 666 LINE SMOOTH",
"166 666 OFFCURVE",
"148 660 OFFCURVE",
"142 642 CURVE SMOOTH",
"130 608 OFFCURVE",
"176 609 OFFCURVE",
"159 549 CURVE SMOOTH",
"36 118 LINE SMOOTH",
"20 59 OFFCURVE",
"-23 68 OFFCURVE",
"-31 36 CURVE SMOOTH",
"-36 13 OFFCURVE",
"-18 0 OFFCURVE",
"17 0 CURVE SMOOTH"
);
},
{
closed = 1;
nodes = (
"481 178 OFFCURVE",
"501 190 OFFCURVE",
"512 227 CURVE SMOOTH",
"556 379 LINE SMOOTH",
"567 418 OFFCURVE",
"545 440 OFFCURVE",
"515 440 CURVE SMOOTH",
"494 440 OFFCURVE",
"478 431 OFFCURVE",
"456 412 CURVE SMOOTH",
"425 386 LINE SMOOTH",
"408 371 OFFCURVE",
"396 367 OFFCURVE",
"378 367 CURVE SMOOTH",
"321 367 LINE",
"291 267 LINE",
"359 267 LINE SMOOTH",
"374 267 OFFCURVE",
"380 264 OFFCURVE",
"390 245 CURVE SMOOTH",
"408 211 LINE SMOOTH",
"420 189 OFFCURVE",
"435 178 OFFCURVE",
"458 178 CURVE SMOOTH"
);
}
);
width = 627;
visible = 1;
}
);
leftKerningGroup = H;
leftMetricsKey = H;
unicode = 0046;
},
{
glyphname = G;
lastChange = "2015-09-03 16:32:11 +0000";
layers = (
{
anchors = (
{
name = top;
position = "{400, 651}";
}
);
background = {
paths = (
{
closed = 1;
nodes = (
"532 -6 OFFCURVE",
"632 146 OFFCURVE",
"631 181 CURVE SMOOTH",
"631 205 OFFCURVE",
"596 235 OFFCURVE",
"573 235 CURVE SMOOTH",
"520 235 OFFCURVE",
"495 114 OFFCURVE",
"376 114 CURVE SMOOTH",
"313 114 OFFCURVE",
"279 183 OFFCURVE",
"328 355 CURVE SMOOTH",
"367 494 OFFCURVE",
"419 557 OFFCURVE",
"472 557 CURVE SMOOTH",
"512 557 OFFCURVE",
"532 540 OFFCURVE",
"563 480 CURVE SMOOTH",
"592 424 OFFCURVE",
"611 398 OFFCURVE",
"647 398 CURVE SMOOTH",
"681 398 OFFCURVE",
"694 412 OFFCURVE",
"704 447 CURVE SMOOTH",
"752 603 LINE SMOOTH",
"764 644 OFFCURVE",
"738 668 OFFCURVE",
"697 668 CURVE SMOOTH",
"666 668 OFFCURVE",
"647 659 OFFCURVE",
"612 631 CURVE SMOOTH",
"586 610 LINE",
"538 651 OFFCURVE",
"481 676 OFFCURVE",
"401 676 CURVE SMOOTH",
"278 676 OFFCURVE",
"130 610 OFFCURVE",
"68 393 CURVE SMOOTH",
"-6 132 OFFCURVE",
"150 -6 OFFCURVE",
"351 -6 CURVE SMOOTH"
);
}
);
};
guideLines = (
{
angle = 74.0722;
position = "{612, -27}";
},
{
angle = 74.0722;
position = "{595, -27}";
},
{
angle = 74.0722;
position = "{401, -27}";
},
{
angle = 74.0722;
position = "{219, -27}";
},
{
angle = 74.0722;
position = "{-51, -27}";
},
{
position = "{343, 335}";
}
);
layerId = "FF8CB9F1-2B98-444C-A502-96421F2531A8";
name = "Bold Italic";
paths = (
{
closed = 1;
nodes = (
"364 -6 OFFCURVE",
"423 29 OFFCURVE",
"465 78 CURVE",
"475 49 LINE SMOOTH",
"489 8 OFFCURVE",
"511 0 OFFCURVE",
"540 0 CURVE SMOOTH",
"582 0 LINE SMOOTH",
"603 0 OFFCURVE",
"621 8 OFFCURVE",
"635 55 CURVE SMOOTH",
"688 240 LINE SMOOTH",
"691 251 OFFCURVE",
"696 257 OFFCURVE",
"710 265 CURVE SMOOTH",
"736 280 LINE SMOOTH",
"757 291 OFFCURVE",
"770 301 OFFCURVE",
"775 322 CURVE SMOOTH",
"782 343 OFFCURVE",
"772 355 OFFCURVE",
"744 355 CURVE SMOOTH",
"442 356 LINE SMOOTH",
"411 356 OFFCURVE",
"400 347 OFFCURVE",
"395 331 CURVE SMOOTH",
"391 316 OFFCURVE",
"394 296 OFFCURVE",
"417 287 CURVE SMOOTH",
"452 274 LINE SMOOTH",
"472 266 OFFCURVE",
"482 260 OFFCURVE",
"471 219 CURVE SMOOTH",
"464 194 LINE SMOOTH",
"450 144 OFFCURVE",
"430 127 OFFCURVE",
"387 127 CURVE SMOOTH",
"317 127 OFFCURVE",
"285 203 OFFCURVE",
"328 354 CURVE SMOOTH",
"371 506 OFFCURVE",
"431 551 OFFCURVE",
"484 551 CURVE SMOOTH",
"524 551 OFFCURVE",
"553 528 OFFCURVE",
"594 474 CURVE SMOOTH",
"626 432 OFFCURVE",
"648 419 OFFCURVE",
"679 419 CURVE SMOOTH",
"709 419 OFFCURVE",
"726 433 OFFCURVE",
"739 477 CURVE SMOOTH",
"775 603 LINE SMOOTH",
"787 644 OFFCURVE",
"761 668 OFFCURVE",
"720 668 CURVE SMOOTH",
"689 668 OFFCURVE",
"669 660 OFFCURVE",
"635 631 CURVE SMOOTH",
"605 602 LINE",
"555 647 OFFCURVE",
"496 676 OFFCURVE",
"421 676 CURVE SMOOTH",
"298 676 OFFCURVE",
"134 619 OFFCURVE",
"66 384 CURVE SMOOTH",
"-7 132 OFFCURVE",
"121 -6 OFFCURVE",
"285 -6 CURVE SMOOTH"
);
}
);
width = 749;
},
{
associatedMasterId = "FF8CB9F1-2B98-444C-A502-96421F2531A8";
background = {
paths = (
{
closed = 1;
nodes = (
"21 223 OFFCURVE",
"166 -9 OFFCURVE",
"440 -9 CURVE SMOOTH",
"531 -9 OFFCURVE",
"614 28 OFFCURVE",
"670 88 CURVE",
"686 65 LINE SMOOTH",
"719 18 OFFCURVE",
"727 0 OFFCURVE",
"769 0 CURVE SMOOTH",
"829 0 LINE SMOOTH",
"858 0 OFFCURVE",
"886 13 OFFCURVE",
"906 78 CURVE SMOOTH",
"980 332 LINE SMOOTH",
"985 347 OFFCURVE",
"992 356 OFFCURVE",
"1012 367 CURVE SMOOTH",
"1050 388 LINE SMOOTH",
"1080 404 OFFCURVE",
"1098 419 OFFCURVE",
"1107 448 CURVE SMOOTH",
"1117 478 OFFCURVE",
"1103 496 OFFCURVE",
"1063 496 CURVE SMOOTH",
"647 497 LINE SMOOTH",
"602 497 OFFCURVE",
"587 484 OFFCURVE",
"580 462 CURVE SMOOTH",
"573 440 OFFCURVE",
"579 416 OFFCURVE",
"610 399 CURVE SMOOTH",
"646 380 LINE SMOOTH",
"672 366 OFFCURVE",
"685 349 OFFCURVE",
"670 299 CURVE SMOOTH",
"649 227 LINE SMOOTH",
"638 193 OFFCURVE",
"604 175 OFFCURVE",
"562 175 CURVE SMOOTH",
"494 175 OFFCURVE",
"403 251 OFFCURVE",
"483 519 CURVE SMOOTH",
"549 742 OFFCURVE",
"661 781 OFFCURVE",
"742 781 CURVE SMOOTH",
"822 781 OFFCURVE",
"865 745 OFFCURVE",
"902 690 CURVE SMOOTH",
"943 629 OFFCURVE",
"961 616 OFFCURVE",
"992 616 CURVE SMOOTH",
"1020 616 LINE SMOOTH",
"1047 616 OFFCURVE",
"1063 635 OFFCURVE",
"1078 685 CURVE SMOOTH",
"1142 889 LINE SMOOTH",
"1153 927 OFFCURVE",
"1142 952 OFFCURVE",
"1095 952 CURVE SMOOTH",
"1057 952 LINE SMOOTH",
"1006 952 OFFCURVE",
"977 930 OFFCURVE",
"924 864 CURVE",
"848 925 OFFCURVE",
"770 961 OFFCURVE",
"635 961 CURVE SMOOTH",
"451 961 OFFCURVE",
"212 872 OFFCURVE",
"118 562 CURVE SMOOTH"
);
}
);
};
guideLines = (
{
angle = 73.2323;
position = "{1200, 914}";
},
{
angle = 73.2323;
position = "{888, 914}";
}
);
layerId = "5E9FAEF1-5749-4FB3-815A-63944450B00C";
name = "Bold Italic Aug 3 15, 15:50";
paths = (
{
closed = 1;
nodes = (
"21 223 OFFCURVE",
"166 -9 OFFCURVE",
"440 -9 CURVE SMOOTH",
"531 -9 OFFCURVE",
"614 28 OFFCURVE",
"670 88 CURVE",
"686 65 LINE SMOOTH",
"719 18 OFFCURVE",
"727 0 OFFCURVE",
"769 0 CURVE SMOOTH",
"829 0 LINE SMOOTH",
"858 0 OFFCURVE",
"887 13 OFFCURVE",
"906 78 CURVE SMOOTH",
"986 352 LINE SMOOTH",
"990 367 OFFCURVE",
"998 376 OFFCURVE",
"1018 387 CURVE SMOOTH",
"1056 408 LINE SMOOTH",
"1086 424 OFFCURVE",
"1104 439 OFFCURVE",
"1113 468 CURVE SMOOTH",
"1123 498 OFFCURVE",
"1109 516 OFFCURVE",
"1069 516 CURVE SMOOTH",
"653 517 LINE SMOOTH",
"608 517 OFFCURVE",
"593 504 OFFCURVE",
"586 482 CURVE SMOOTH",
"579 460 OFFCURVE",
"585 436 OFFCURVE",
"616 419 CURVE SMOOTH",
"652 400 LINE SMOOTH",
"678 386 OFFCURVE",
"691 370 OFFCURVE",
"676 319 CURVE SMOOTH",
"649 227 LINE SMOOTH",
"639 192 OFFCURVE",
"604 175 OFFCURVE",
"562 175 CURVE SMOOTH",
"494 175 OFFCURVE",
"403 251 OFFCURVE",
"483 519 CURVE SMOOTH",
"549 742 OFFCURVE",
"661 781 OFFCURVE",
"742 781 CURVE SMOOTH",
"822 781 OFFCURVE",
"865 745 OFFCURVE",
"902 690 CURVE SMOOTH",
"943 629 OFFCURVE",
"961 616 OFFCURVE",
"992 616 CURVE SMOOTH",
"1020 616 LINE SMOOTH",
"1047 616 OFFCURVE",
"1063 635 OFFCURVE",
"1078 685 CURVE SMOOTH",
"1142 889 LINE SMOOTH",
"1153 927 OFFCURVE",
"1142 952 OFFCURVE",
"1095 952 CURVE SMOOTH",
"1057 952 LINE SMOOTH",
"1006 952 OFFCURVE",
"977 930 OFFCURVE",
"924 864 CURVE",
"848 925 OFFCURVE",
"770 961 OFFCURVE",
"635 961 CURVE SMOOTH",
"451 961 OFFCURVE",
"212 872 OFFCURVE",
"118 562 CURVE SMOOTH"
);
}
);
width = 1086;
}
);
leftKerningGroup = O;
unicode = 0047;
},
{
glyphname = H;
lastChange = "2015-09-03 16:32:11 +0000";
layers = (
{
layerId = "FF8CB9F1-2B98-444C-A502-96421F2531A8";
name = "Bold Italic";
paths = (
{
closed = 1;
nodes = (
"204 666 LINE SMOOTH",
"168 666 OFFCURVE",
"150 660 OFFCURVE",
"144 642 CURVE SMOOTH",
"133 608 OFFCURVE",
"178 609 OFFCURVE",
"161 549 CURVE SMOOTH",
"38 118 LINE SMOOTH",
"21 58 OFFCURVE",
"-16 69 OFFCURVE",
"-30 39 CURVE SMOOTH",
"-39 15 OFFCURVE",
"-25 0 OFFCURVE",
"11 0 CURVE SMOOTH",
"246 0 LINE SMOOTH",
"282 0 OFFCURVE",
"300 6 OFFCURVE",
"307 25 CURVE SMOOTH",
"318 58 OFFCURVE",
"272 57 OFFCURVE",
"289 118 CURVE SMOOTH",
"412 549 LINE SMOOTH",
"429 608 OFFCURVE",
"467 597 OFFCURVE",
"480 628 CURVE SMOOTH",
"490 651 OFFCURVE",
"474 666 OFFCURVE",
"439 666 CURVE SMOOTH"
);
},
{
closed = 1;
nodes = (
"632 666 LINE SMOOTH",
"596 666 OFFCURVE",
"578 660 OFFCURVE",
"572 642 CURVE SMOOTH",
"561 608 OFFCURVE",
"606 609 OFFCURVE",
"589 549 CURVE SMOOTH",
"466 118 LINE SMOOTH",
"449 58 OFFCURVE",
"412 69 OFFCURVE",
"398 39 CURVE SMOOTH",
"389 15 OFFCURVE",
"404 0 OFFCURVE",
"439 0 CURVE SMOOTH",
"674 0 LINE SMOOTH",
"710 0 OFFCURVE",
"728 6 OFFCURVE",
"735 25 CURVE SMOOTH",
"746 58 OFFCURVE",
"700 57 OFFCURVE",
"717 118 CURVE SMOOTH",
"840 549 LINE SMOOTH",
"857 608 OFFCURVE",
"895 597 OFFCURVE",
"908 628 CURVE SMOOTH",
"918 651 OFFCURVE",
"902 666 OFFCURVE",
"867 666 CURVE SMOOTH"
);
},
{
closed = 1;
nodes = (
"263 285 LINE",
"629 285 LINE",
"633 385 LINE",
"267 385 LINE"
);
}
);
width = 824;
},
{
associatedMasterId = "FF8CB9F1-2B98-444C-A502-96421F2531A8";
background = {
paths = (
{
closed = 1;
nodes = (
"134 526 LINE SMOOTH",
"92 526 OFFCURVE",
"68 504 OFFCURVE",
"60 475 CURVE SMOOTH",
"25 344 OFFCURVE",
"168 215 OFFCURVE",
"296 215 CURVE SMOOTH",
"392 215 OFFCURVE",
"446 267 OFFCURVE",
"490 411 CURVE SMOOTH",
"553 618 LINE SMOOTH",
"562 649 OFFCURVE",
"567 677 OFFCURVE",
"567 703 CURVE SMOOTH",
"567 831 OFFCURVE",
"450 902 OFFCURVE",
"335 902 CURVE SMOOTH",
"194 902 OFFCURVE",
"125 822 OFFCURVE",
"125 737 CURVE SMOOTH",
"125 719 OFFCURVE",
"131 701 OFFCURVE",
"142 701 CURVE SMOOTH",
"155 701 OFFCURVE",
"162 733 OFFCURVE",
"192 733 CURVE SMOOTH",
"203 733 OFFCURVE",
"214 727 OFFCURVE",
"214 712 CURVE SMOOTH",
"214 709 OFFCURVE",
"213 705 OFFCURVE",
"212 701 CURVE SMOOTH",
"159 526 LINE"
);
}
);
};
layerId = "C19AEFB9-9930-4C6F-8C20-E16FC7473BC1";
name = "Bold Italic Jul 27 15, 12:05";
paths = (
{
closed = 1;
nodes = (
"866 902 OFFCURVE",
"828 876 OFFCURVE",
"801 791 CURVE SMOOTH",
"594 143 LINE SMOOTH",
"565 53 OFFCURVE",
"626 -4 OFFCURVE",
"746 -4 CURVE SMOOTH",
"858 -4 OFFCURVE",
"896 23 OFFCURVE",
"923 107 CURVE SMOOTH",
"1130 755 LINE SMOOTH",
"1159 845 OFFCURVE",
"1114 902 OFFCURVE",
"978 902 CURVE SMOOTH"
);
},
{
closed = 1;
nodes = (
"117 532 LINE SMOOTH",
"15 532 OFFCURVE",
"-27 382 OFFCURVE",
"77 382 CURVE SMOOTH",
"805 382 LINE",
"805 532 LINE"
);
},
{
closed = 1;
nodes = (
"205 902 OFFCURVE",
"125 822 OFFCURVE",
"125 737 CURVE SMOOTH",
"125 719 OFFCURVE",
"131 701 OFFCURVE",
"142 701 CURVE SMOOTH",
"155 701 OFFCURVE",
"162 733 OFFCURVE",
"192 733 CURVE SMOOTH",
"203 733 OFFCURVE",
"214 727 OFFCURVE",
"214 712 CURVE SMOOTH",
"214 709 OFFCURVE",
"213 705 OFFCURVE",
"212 701 CURVE SMOOTH",
"34 143 LINE SMOOTH",
"5 53 OFFCURVE",
"66 -4 OFFCURVE",
"186 -4 CURVE SMOOTH",
"298 -4 OFFCURVE",
"336 23 OFFCURVE",
"363 107 CURVE SMOOTH",
"549 690 LINE SMOOTH",
"585 802 OFFCURVE",
"519 902 OFFCURVE",
"341 902 CURVE SMOOTH"
);
}
);
width = 1065;
}
);
leftKerningGroup = H;
leftMetricsKey = H;
rightKerningGroup = M;
rightMetricsKey = I;
unicode = 0048;
},
{
glyphname = I;
lastChange = "2015-09-03 16:32:11 +0000";
layers = (
{
anchors = (
{
name = top;
position = "{290, 651}";
}
);
layerId = "FF8CB9F1-2B98-444C-A502-96421F2531A8";
name = "Bold Italic";
paths = (
{
closed = 1;
nodes = (
"202 666 LINE SMOOTH",
"166 666 OFFCURVE",
"148 660 OFFCURVE",
"143 642 CURVE SMOOTH",
"131 608 OFFCURVE",
"176 609 OFFCURVE",
"159 549 CURVE SMOOTH",
"37 118 LINE SMOOTH",
"20 58 OFFCURVE",
"-17 69 OFFCURVE",
"-30 39 CURVE SMOOTH",
"-40 15 OFFCURVE",
"-25 0 OFFCURVE",
"11 0 CURVE SMOOTH",
"246 0 LINE SMOOTH",
"282 0 OFFCURVE",
"300 6 OFFCURVE",
"306 25 CURVE SMOOTH",
"317 58 OFFCURVE",
"272 57 OFFCURVE",
"289 118 CURVE SMOOTH",
"410 549 LINE SMOOTH",
"427 608 OFFCURVE",
"465 597 OFFCURVE",
"478 628 CURVE SMOOTH",
"488 651 OFFCURVE",
"473 666 OFFCURVE",
"437 666 CURVE SMOOTH"
);
}
);
width = 394;
}
);
leftKerningGroup = H;
leftMetricsKey = H;
rightKerningGroup = M;
rightMetricsKey = H;
unicode = 0049;
},
{
glyphname = J;
lastChange = "2015-09-03 16:32:11 +0000";
layers = (
{
guideLines = (
{
angle = 74.0722;
position = "{-40, 118}";
},
{
angle = 74.0722;
position = "{176, 118}";
}
);
layerId = "FF8CB9F1-2B98-444C-A502-96421F2531A8";
name = "Bold Italic";
paths = (
{
closed = 1;
nodes = (
"229 114 OFFCURVE",
"207 84 OFFCURVE",
"179 84 CURVE SMOOTH",
"164 84 OFFCURVE",
"153 87 OFFCURVE",
"142 94 CURVE",
"166 109 OFFCURVE",
"179 129 OFFCURVE",
"187 156 CURVE SMOOTH",
"207 226 OFFCURVE",
"178 294 OFFCURVE",
"100 294 CURVE SMOOTH",
"52 294 OFFCURVE",
"3 267 OFFCURVE",
"-15 203 CURVE SMOOTH",
"-45 101 OFFCURVE",
"31 -6 OFFCURVE",
"217 -6 CURVE SMOOTH",
"370 -6 OFFCURVE",
"466 61 OFFCURVE",
"506 203 CURVE SMOOTH",
"604 549 LINE SMOOTH",
"621 608 OFFCURVE",
"659 597 OFFCURVE",
"672 628 CURVE SMOOTH",
"682 651 OFFCURVE",
"666 666 OFFCURVE",
"631 666 CURVE SMOOTH",
"347 666 LINE SMOOTH",
"314 666 OFFCURVE",
"298 661 OFFCURVE",
"294 642 CURVE SMOOTH",
"284 603 OFFCURVE",
"370 601 OFFCURVE",
"352 540 CURVE SMOOTH",
"243 164 LINE SMOOTH"
);
}
);
width = 588;
}
);
rightMetricsKey = I;
unicode = 004A;
},
{
glyphname = K;
lastChange = "2015-09-03 16:32:11 +0000";
layers = (
{
background = {
paths = (
{
closed = 1;
nodes = (
"608 469 OFFCURVE",
"630 491 OFFCURVE",
"630 519 CURVE SMOOTH",
"630 546 OFFCURVE",
"608 568 OFFCURVE",
"582 568 CURVE SMOOTH",
"554 568 OFFCURVE",
"532 546 OFFCURVE",
"532 519 CURVE SMOOTH",
"532 491 OFFCURVE",
"554 469 OFFCURVE",
"582 469 CURVE SMOOTH"
);
},
{
closed = 1;
nodes = (
"398 288 OFFCURVE",
"420 310 OFFCURVE",
"420 338 CURVE SMOOTH",
"420 365 OFFCURVE",
"398 387 OFFCURVE",
"372 387 CURVE SMOOTH",
"344 387 OFFCURVE",
"322 365 OFFCURVE",
"322 338 CURVE SMOOTH",
"322 310 OFFCURVE",
"344 288 OFFCURVE",
"372 288 CURVE SMOOTH"
);
},
{
closed = 0;
nodes = (
"653 1 LINE SMOOTH",
"696 1 OFFCURVE",
"710 15 OFFCURVE",
"708 37 CURVE SMOOTH",
"706 64 OFFCURVE",
"663 67 OFFCURVE",
"643 137 CURVE SMOOTH"
);
}
);
};
guideLines = (
{
angle = 41.5083;
position = "{213, 114}";
},
{
angle = 41.5083;
position = "{213, 264}";
},
{
angle = 41.5083;
position = "{213, 114}";
},
{
angle = 74.1952;
position = "{762, 218}";
},
{
angle = -76.1632;
position = "{603, 296}";
}
);
layerId = "FF8CB9F1-2B98-444C-A502-96421F2531A8";
name = "Bold Italic";
paths = (
{
closed = 1;
nodes = (
"202 666 LINE SMOOTH",
"166 666 OFFCURVE",
"148 660 OFFCURVE",
"143 642 CURVE SMOOTH",
"131 608 OFFCURVE",
"176 609 OFFCURVE",
"159 549 CURVE SMOOTH",
"37 118 LINE SMOOTH",
"20 58 OFFCURVE",
"-17 69 OFFCURVE",
"-30 39 CURVE SMOOTH",
"-40 15 OFFCURVE",
"-25 0 OFFCURVE",
"11 0 CURVE SMOOTH",
"246 0 LINE SMOOTH",
"282 0 OFFCURVE",
"300 6 OFFCURVE",
"306 25 CURVE SMOOTH",
"317 58 OFFCURVE",
"272 57 OFFCURVE",
"289 118 CURVE SMOOTH",
"410 549 LINE SMOOTH",
"427 608 OFFCURVE",
"465 597 OFFCURVE",
"478 628 CURVE SMOOTH",
"488 651 OFFCURVE",
"473 666 OFFCURVE",
"437 666 CURVE SMOOTH"
);
},
{
closed = 1;
nodes = (
"347 276 LINE",
"401 93 LINE SMOOTH",
"420 30 OFFCURVE",
"443 0 OFFCURVE",
"512 0 CURVE SMOOTH",
"643 0 LINE SMOOTH",
"686 0 OFFCURVE",
"703 10 OFFCURVE",
"707 25 CURVE SMOOTH",
"717 62 OFFCURVE",
"668 62 OFFCURVE",
"643 137 CURVE SMOOTH",
"537 451 LINE"
);
},
{
closed = 1;
nodes = (
"278 200 LINE",
"632 496 LINE",
"656 466 OFFCURVE",
"681 454 OFFCURVE",
"718 454 CURVE SMOOTH",
"773 454 OFFCURVE",
"823 499 OFFCURVE",
"823 570 CURVE SMOOTH",
"823 633 OFFCURVE",
"780 670 OFFCURVE",
"725 670 CURVE SMOOTH",
"693 670 OFFCURVE",
"667 658 OFFCURVE",
"633 629 CURVE SMOOTH",
"313 352 LINE"
);
}
);
width = 776;
},
{
associatedMasterId = "FF8CB9F1-2B98-444C-A502-96421F2531A8";
background = {
paths = (
{
closed = 1;
nodes = (
"643 349 LINE",
"673 455 LINE",
"690 450 OFFCURVE",
"703 446 OFFCURVE",
"729 446 CURVE SMOOTH",
"768 446 OFFCURVE",
"813 466 OFFCURVE",
"829 529 CURVE SMOOTH",
"848 602 OFFCURVE",
"806 670 OFFCURVE",
"728 670 CURVE SMOOTH",
"642 670 OFFCURVE",
"618 614 OFFCURVE",
"594 531 CURVE SMOOTH",
"564 425 LINE"
);
}
);
};
layerId = "E4F4997A-8D3C-4D8D-B292-A8F14AACC433";
name = "Bold Italic Aug 12 15, 14:55";
paths = (
{
closed = 1;
nodes = (
"206 666 LINE SMOOTH",
"170 666 OFFCURVE",
"152 660 OFFCURVE",
"147 642 CURVE SMOOTH",
"135 608 OFFCURVE",
"180 609 OFFCURVE",
"163 549 CURVE SMOOTH",
"41 118 LINE SMOOTH",
"24 58 OFFCURVE",
"-13 69 OFFCURVE",
"-26 39 CURVE SMOOTH",
"-36 15 OFFCURVE",
"-21 0 OFFCURVE",
"15 0 CURVE SMOOTH",
"250 0 LINE SMOOTH",
"286 0 OFFCURVE",
"304 6 OFFCURVE",
"310 25 CURVE SMOOTH",
"321 58 OFFCURVE",
"276 57 OFFCURVE",
"293 118 CURVE SMOOTH",
"414 549 LINE SMOOTH",
"431 608 OFFCURVE",
"469 597 OFFCURVE",
"482 628 CURVE SMOOTH",
"492 651 OFFCURVE",
"477 666 OFFCURVE",
"441 666 CURVE SMOOTH"
);
},
{
closed = 1;
nodes = (
"335 276 LINE",
"405 93 LINE SMOOTH",
"428 32 OFFCURVE",
"437 1 OFFCURVE",
"506 1 CURVE SMOOTH",
"657 1 LINE SMOOTH",
"700 1 OFFCURVE",
"714 15 OFFCURVE",
"712 37 CURVE SMOOTH",
"710 64 OFFCURVE",
"678 70 OFFCURVE",
"647 137 CURVE SMOOTH",
"516 418 LINE"
);
},
{
closed = 1;
nodes = (
"295 212 LINE",
"649 488 LINE",
"673 458 OFFCURVE",
"698 446 OFFCURVE",
"735 446 CURVE SMOOTH",
"790 446 OFFCURVE",
"840 499 OFFCURVE",
"840 562 CURVE SMOOTH",
"840 625 OFFCURVE",
"790 670 OFFCURVE",
"735 670 CURVE SMOOTH",
"703 670 OFFCURVE",
"674 658 OFFCURVE",
"640 629 CURVE SMOOTH",
"317 352 LINE"
);
}
);
width = 777;
}
);
leftKerningGroup = H;
leftMetricsKey = H;
unicode = 004B;
},
{
glyphname = L;
lastChange = "2015-09-03 16:32:11 +0000";
layers = (
{
anchors = (
{
name = top;
position = "{294, 651}";
}
);
background = {
components = (
{
name = H;
}
);
};
layerId = "FF8CB9F1-2B98-444C-A502-96421F2531A8";
name = "Bold Italic";
paths = (
{
closed = 1;
nodes = (
"532 258 OFFCURVE",
"511 245 OFFCURVE",
"487 216 CURVE SMOOTH",
"418 134 LINE SMOOTH",
"393 104 OFFCURVE",
"374 96 OFFCURVE",
"344 96 CURVE SMOOTH",
"282 96 LINE",
"411 549 LINE SMOOTH",
"428 608 OFFCURVE",
"466 597 OFFCURVE",
"479 628 CURVE SMOOTH",
"489 651 OFFCURVE",
"474 666 OFFCURVE",
"438 666 CURVE SMOOTH",
"203 666 LINE SMOOTH",
"167 666 OFFCURVE",
"149 660 OFFCURVE",
"144 642 CURVE",
"132 608 OFFCURVE",
"177 609 OFFCURVE",
"160 549 CURVE SMOOTH",
"38 118 LINE SMOOTH",
"21 58 OFFCURVE",
"-17 69 OFFCURVE",
"-30 39 CURVE",
"-39 15 OFFCURVE",
"-25 0 OFFCURVE",
"11 0 CURVE SMOOTH",
"481 0 LINE SMOOTH",
"542 0 OFFCURVE",
"570 20 OFFCURVE",
"587 77 CURVE SMOOTH",
"620 194 LINE SMOOTH",
"631 234 OFFCURVE",
"611 258 OFFCURVE",
"566 258 CURVE SMOOTH"
);
}
);
width = 641;
}
);
leftKerningGroup = H;
leftMetricsKey = H;
unicode = 004C;
},
{
glyphname = M;
lastChange = "2015-09-03 16:32:11 +0000";
layers = (
{
background = {
components = (
{
name = M.init;
}
);
};
guideLines = (
{
position = "{226, 331}";
}
);
layerId = "FF8CB9F1-2B98-444C-A502-96421F2531A8";
name = "Bold Italic";
paths = (
{
closed = 1;
nodes = (
"768 495 LINE",
"662 119 LINE SMOOTH",
"645 60 OFFCURVE",
"607 71 OFFCURVE",
"594 40 CURVE SMOOTH",
"585 17 OFFCURVE",
"599 1 OFFCURVE",
"635 1 CURVE SMOOTH",
"870 1 LINE SMOOTH",
"906 1 OFFCURVE",
"924 8 OFFCURVE",
"930 26 CURVE SMOOTH",
"941 59 OFFCURVE",
"896 59 OFFCURVE",
"913 119 CURVE SMOOTH",
"1035 549 LINE SMOOTH",
"1052 608 OFFCURVE",
"1090 597 OFFCURVE",
"1102 628 CURVE SMOOTH",
"1113 651 OFFCURVE",
"1097 666 OFFCURVE",
"1061 666 CURVE SMOOTH",
"912 666 LINE SMOOTH",
"861 666 OFFCURVE",
"831 658 OFFCURVE",
"795 613 CURVE SMOOTH",
"510 258 LINE",
"537 234 LINE",
"424 608 LINE SMOOTH",
"412 649 OFFCURVE",
"398 666 OFFCURVE",
"356 666 CURVE SMOOTH",
"201 666 LINE SMOOTH",
"158 666 OFFCURVE",
"145 648 OFFCURVE",
"159 603 CURVE SMOOTH",
"321 68 LINE SMOOTH",
"335 21 OFFCURVE",
"350 0 OFFCURVE",
"383 0 CURVE SMOOTH",
"417 0 OFFCURVE",
"438 17 OFFCURVE",
"479 68 CURVE SMOOTH",
"814 483 LINE"
);
},
{
closed = 1;
nodes = (
"251 459 LINE",
"189 599 LINE",
"53 118 LINE SMOOTH",
"36 58 OFFCURVE",
"-1 69 OFFCURVE",
"-14 39 CURVE SMOOTH",
"-24 15 OFFCURVE",
"-9 0 OFFCURVE",
"27 0 CURVE SMOOTH",
"110 0 LINE SMOOTH",
"146 0 OFFCURVE",
"164 6 OFFCURVE",
"170 25 CURVE SMOOTH",
"181 58 OFFCURVE",
"136 57 OFFCURVE",
"153 118 CURVE SMOOTH"
);
}
);
width = 1019;
},
{
associatedMasterId = "FF8CB9F1-2B98-444C-A502-96421F2531A8";
background = {
paths = (
{
closed = 1;
nodes = (
"211 539 LINE",
"118 211 LINE",
"101 216 OFFCURVE",
"88 220 OFFCURVE",
"62 220 CURVE SMOOTH",
"23 220 OFFCURVE",
"-22 200 OFFCURVE",
"-38 137 CURVE SMOOTH",
"-57 64 OFFCURVE",
"-15 -4 OFFCURVE",
"63 -4 CURVE SMOOTH",
"149 -4 OFFCURVE",
"188 50 OFFCURVE",
"212 135 CURVE SMOOTH",
"288 399 LINE"
);
}
);
};
guideLines = (
{
angle = -72.7456;
position = "{184, 600}";
},
{
angle = -72.7456;
position = "{420, 700}";
},
{
position = "{226, 331}";
},
{
angle = 51.0796;
position = "{742, 403}";
},
{
angle = 51.0796;
position = "{693, 503}";
}
);
layerId = "61F08FAB-4FDC-4AE3-99D9-F886DC3D4B81";
name = "Lower contrast";
paths = (
{
closed = 1;
nodes = (
"228 599 LINE",
"118 211 LINE",
"101 216 OFFCURVE",
"88 220 OFFCURVE",
"62 220 CURVE SMOOTH",
"23 220 OFFCURVE",
"-22 200 OFFCURVE",
"-38 137 CURVE SMOOTH",
"-57 64 OFFCURVE",
"-15 -4 OFFCURVE",
"63 -4 CURVE SMOOTH",
"149 -4 OFFCURVE",
"188 50 OFFCURVE",
"212 135 CURVE SMOOTH",
"305 459 LINE"
);
},
{
closed = 1;
nodes = (
"748 495 LINE",
"642 119 LINE SMOOTH",
"625 60 OFFCURVE",
"587 71 OFFCURVE",
"574 40 CURVE SMOOTH",
"565 17 OFFCURVE",
"579 1 OFFCURVE",
"615 1 CURVE SMOOTH",
"850 1 LINE SMOOTH",
"886 1 OFFCURVE",
"904 8 OFFCURVE",
"910 26 CURVE SMOOTH",
"921 59 OFFCURVE",
"876 59 OFFCURVE",
"893 119 CURVE SMOOTH",
"1015 549 LINE SMOOTH",
"1032 608 OFFCURVE",
"1070 597 OFFCURVE",
"1082 628 CURVE SMOOTH",
"1093 651 OFFCURVE",
"1077 666 OFFCURVE",
"1041 666 CURVE SMOOTH",
"884 666 LINE SMOOTH",
"833 666 OFFCURVE",
"803 658 OFFCURVE",
"767 613 CURVE SMOOTH",
"479 258 LINE",
"537 294 LINE",
"449 608 LINE SMOOTH",
"437 649 OFFCURVE",
"423 666 OFFCURVE",
"381 666 CURVE SMOOTH",
"226 666 LINE SMOOTH",
"178 666 OFFCURVE",
"169 648 OFFCURVE",
"184 600 CURVE SMOOTH",
"357 43 LINE SMOOTH",
"366 14 OFFCURVE",
"376 0 OFFCURVE",
"393 0 CURVE SMOOTH",
"411 0 OFFCURVE",
"424 9 OFFCURVE",
"440 29 CURVE SMOOTH",
"742 403 LINE"
);
}
);
width = 1000;
}
);
rightKerningGroup = M;
rightMetricsKey = I;
unicode = 004D;
},
{
glyphname = N;
lastChange = "2015-09-03 16:32:11 +0000";
layers = (
{
anchors = (
{
name = top;
position = "{440, 651}";
}
);
background = {
components = (
{
name = H;
}
);
};
guideLines = (
{
angle = -67.3801;
position = "{149, 600}";
},
{
angle = 74.3186;
position = "{632, 260}";
}
);
layerId = "FF8CB9F1-2B98-444C-A502-96421F2531A8";
name = "Bold Italic";
paths = (
{
closed = 1;
nodes = (
"253 459 LINE",
"174 599 LINE",
"38 118 LINE SMOOTH",
"21 58 OFFCURVE",
"-20 70 OFFCURVE",
"-30 36 CURVE SMOOTH",
"-36 15 OFFCURVE",
"-24 0 OFFCURVE",
"10 0 CURVE SMOOTH",
"119 0 LINE SMOOTH",
"155 0 OFFCURVE",
"173 6 OFFCURVE",
"179 25 CURVE SMOOTH",
"190 58 OFFCURVE",
"138 57 OFFCURVE",
"155 118 CURVE SMOOTH"
);
},
{
closed = 1;
nodes = (
"532 220 LINE SMOOTH",
"596 229 LINE SMOOTH",
"411 600 LINE SMOOTH",
"388 646 OFFCURVE",
"372 666 OFFCURVE",
"327 666 CURVE SMOOTH",
"179 666 LINE SMOOTH",
"145 666 OFFCURVE",
"127 647 OFFCURVE",
"149 600 CURVE SMOOTH",
"390 92 LINE SMOOTH",
"419 31 OFFCURVE",
"449 -4 OFFCURVE",
"506 -4 CURVE SMOOTH",
"566 -4 OFFCURVE",
"596 23 OFFCURVE",
"619 104 CURVE SMOOTH",
"743 548 LINE SMOOTH",
"760 608 OFFCURVE",
"801 596 OFFCURVE",
"811 630 CURVE SMOOTH",
"817 651 OFFCURVE",
"805 666 OFFCURVE",
"771 666 CURVE SMOOTH",
"662 666 LINE SMOOTH",
"626 666 OFFCURVE",
"608 660 OFFCURVE",
"602 641 CURVE SMOOTH",
"591 608 OFFCURVE",
"643 609 OFFCURVE",
"626 548 CURVE SMOOTH"
);
}
);
width = 719;
},
{
associatedMasterId = "FF8CB9F1-2B98-444C-A502-96421F2531A8";
background = {
components = (
{
name = H;
}
);
};
layerId = "4C971B5D-3D74-4E65-86D1-4E0E90ED8FBD";
name = "Lower contrast";
paths = (
{
closed = 1;
nodes = (
"232 611 LINE",
"118 211 LINE",
"101 216 OFFCURVE",
"88 220 OFFCURVE",
"62 220 CURVE SMOOTH",
"23 220 OFFCURVE",
"-22 200 OFFCURVE",
"-38 137 CURVE SMOOTH",
"-57 64 OFFCURVE",
"-15 -4 OFFCURVE",
"63 -4 CURVE SMOOTH",
"149 -4 OFFCURVE",
"188 53 OFFCURVE",
"212 135 CURVE SMOOTH",
"313 485 LINE"
);
},
{
closed = 1;
nodes = (
"422 84 LINE SMOOTH",
"451 21 OFFCURVE",
"480 -4 OFFCURVE",
"522 -4 CURVE SMOOTH",
"555 -4 OFFCURVE",
"577 12 OFFCURVE",
"590 60 CURVE SMOOTH",
"701 455 LINE",
"718 450 OFFCURVE",
"731 446 OFFCURVE",
"757 446 CURVE SMOOTH",
"796 446 OFFCURVE",
"841 466 OFFCURVE",
"857 529 CURVE SMOOTH",
"876 602 OFFCURVE",
"834 670 OFFCURVE",
"756 670 CURVE SMOOTH",
"670 670 OFFCURVE",
"630 614 OFFCURVE",
"607 531 CURVE SMOOTH",
"588 465 OFFCURVE",
"571 398 OFFCURVE",
"552 333 CURVE",
"584 303 LINE",
"433 608 LINE SMOOTH",
"412 651 OFFCURVE",
"407 666 OFFCURVE",
"366 666 CURVE SMOOTH",
"213 666 LINE SMOOTH",
"179 666 OFFCURVE",
"160 649 OFFCURVE",
"183 600 CURVE SMOOTH"
);
}
);
width = 789;
},
{
associatedMasterId = "FF8CB9F1-2B98-444C-A502-96421F2531A8";
background = {
components = (
{
name = H;
}
);
};
guideLines = (
{
angle = -67.3801;
position = "{149, 600}";
},
{
angle = 74.3186;
position = "{632, 260}";
}
);
layerId = "3DD6A58B-3FEC-487A-BEA8-68F74F8801CD";
name = "Bold Italic Aug 16 15, 14:36";
paths = (
{
closed = 1;
nodes = (
"243 459 LINE",
"174 599 LINE",
"38 118 LINE SMOOTH",
"21 58 OFFCURVE",
"-20 70 OFFCURVE",
"-30 36 CURVE SMOOTH",
"-36 15 OFFCURVE",
"-24 0 OFFCURVE",
"10 0 CURVE SMOOTH",
"109 0 LINE SMOOTH",
"145 0 OFFCURVE",
"163 6 OFFCURVE",
"169 25 CURVE SMOOTH",
"180 58 OFFCURVE",
"128 57 OFFCURVE",
"145 118 CURVE SMOOTH"
);
},
{
closed = 1;
nodes = (
"512 220 LINE",
"566 229 LINE",
"411 600 LINE SMOOTH",
"391 648 OFFCURVE",
"372 666 OFFCURVE",
"327 666 CURVE SMOOTH",
"179 666 LINE SMOOTH",
"145 666 OFFCURVE",
"128 650 OFFCURVE",
"149 600 CURVE SMOOTH",
"360 92 LINE SMOOTH",
"387 28 OFFCURVE",
"419 -4 OFFCURVE",
"476 -4 CURVE SMOOTH",
"536 -4 OFFCURVE",
"566 23 OFFCURVE",
"582 81 CURVE SMOOTH",
"713 548 LINE SMOOTH",
"730 608 OFFCURVE",
"771 596 OFFCURVE",
"781 630 CURVE SMOOTH",
"787 651 OFFCURVE",
"775 666 OFFCURVE",
"741 666 CURVE SMOOTH",
"642 666 LINE SMOOTH",
"606 666 OFFCURVE",
"588 660 OFFCURVE",
"582 641 CURVE SMOOTH",
"571 608 OFFCURVE",
"623 609 OFFCURVE",
"606 548 CURVE SMOOTH"
);
}
);
width = 689;
}
);
unicode = 004E;
},
{
glyphname = O;
lastChange = "2015-09-03 16:32:11 +0000";
layers = (
{
anchors = (
{
name = top;
position = "{460, 651}";
}
);
background = {
paths = (
{
closed = 1;
nodes = (
"284 681 OFFCURVE",
"116 563 OFFCURVE",
"57 336 CURVE SMOOTH",
"-4 108 OFFCURVE",
"105 -12 OFFCURVE",
"307 -12 CURVE SMOOTH",
"509 -12 OFFCURVE",
"678 108 OFFCURVE",
"739 336 CURVE SMOOTH",
"798 563 OFFCURVE",
"689 681 OFFCURVE",
"487 681 CURVE SMOOTH"
);
},
{
closed = 1;
nodes = (
"519 572 OFFCURVE",
"522 510 OFFCURVE",
"475 329 CURVE SMOOTH",
"427 151 OFFCURVE",
"391 88 OFFCURVE",
"332 88 CURVE SMOOTH",
"272 88 OFFCURVE",
"270 151 OFFCURVE",
"317 329 CURVE SMOOTH",
"364 510 OFFCURVE",
"400 572 OFFCURVE",
"460 572 CURVE SMOOTH"
);
}
);
};
guideLines = (
{
angle = 75.4287;
position = "{416, 329}";
}
);
layerId = "FF8CB9F1-2B98-444C-A502-96421F2531A8";
name = "Bold Italic";
paths = (
{
closed = 1;
nodes = (
"284 681 OFFCURVE",
"116 563 OFFCURVE",
"57 336 CURVE SMOOTH",
"-4 108 OFFCURVE",
"105 -12 OFFCURVE",
"307 -12 CURVE SMOOTH",
"509 -12 OFFCURVE",
"678 108 OFFCURVE",
"739 336 CURVE SMOOTH",
"798 563 OFFCURVE",
"689 681 OFFCURVE",
"487 681 CURVE SMOOTH"
);
},
{
closed = 1;
nodes = (
"528 583 OFFCURVE",
"529 519 OFFCURVE",
"475 329 CURVE SMOOTH",
"420 143 OFFCURVE",
"382 77 OFFCURVE",
"323 77 CURVE SMOOTH",
"263 77 OFFCURVE",
"263 143 OFFCURVE",
"317 329 CURVE SMOOTH",
"371 519 OFFCURVE",
"409 583 OFFCURVE",
"469 583 CURVE SMOOTH"
);
}
);
width = 743;
}
);
leftKerningGroup = O;
unicode = 004F;
},
{
glyphname = P;
lastChange = "2015-09-03 16:32:11 +0000";
layers = (
{
background = {
paths = (
{
closed = 1;
nodes = (
"201 666 LINE SMOOTH",
"165 666 OFFCURVE",
"147 660 OFFCURVE",
"142 642 CURVE SMOOTH",
"130 608 OFFCURVE",
"175 609 OFFCURVE",
"158 549 CURVE SMOOTH",
"36 118 LINE SMOOTH",
"20 59 OFFCURVE",
"-23 68 OFFCURVE",
"-31 36 CURVE SMOOTH",
"-36 13 OFFCURVE",
"-18 0 OFFCURVE",
"17 0 CURVE SMOOTH",
"268 0 LINE SMOOTH",
"303 0 OFFCURVE",
"325 6 OFFCURVE",
"330 25 CURVE SMOOTH",
"339 57 OFFCURVE",
"272 62 OFFCURVE",
"288 118 CURVE SMOOTH",
"322 239 LINE",
"425 239 LINE SMOOTH",
"587 239 OFFCURVE",
"704 298 OFFCURVE",
"744 435 CURVE SMOOTH",
"782 564 OFFCURVE",
"708 666 OFFCURVE",
"532 666 CURVE SMOOTH"
);
},
{
closed = 1;
nodes = (
"487 384 OFFCURVE",
"461 344 OFFCURVE",
"380 344 CURVE SMOOTH",
"352 344 LINE",
"413 561 LINE",
"442 561 LINE SMOOTH",
"503 561 OFFCURVE",
"527 523 OFFCURVE",
"507 453 CURVE SMOOTH"
);
}
);
};
guideLines = (
{
position = "{460, 329}";
},
{
position = "{450, 453}";
},
{
angle = 74.1952;
position = "{805, 649}";
}
);
layerId = "FF8CB9F1-2B98-444C-A502-96421F2531A8";
name = "Bold Italic";
paths = (
{
closed = 1;
nodes = (
"478 355 OFFCURVE",
"444 329 OFFCURVE",
"391 329 CURVE SMOOTH",
"347 329 LINE",
"418 576 LINE",
"463 576 LINE SMOOTH",
"505 576 OFFCURVE",
"534 551 OFFCURVE",
"506 453 CURVE SMOOTH"
);
},
{
closed = 1;
nodes = (
"201 666 LINE SMOOTH",
"165 666 OFFCURVE",
"147 660 OFFCURVE",
"142 642 CURVE SMOOTH",
"130 608 OFFCURVE",
"175 609 OFFCURVE",
"158 549 CURVE SMOOTH",
"36 118 LINE SMOOTH",
"20 59 OFFCURVE",
"-23 68 OFFCURVE",
"-31 36 CURVE SMOOTH",
"-36 13 OFFCURVE",
"-18 0 OFFCURVE",
"17 0 CURVE SMOOTH",
"268 0 LINE SMOOTH",
"303 0 OFFCURVE",
"325 6 OFFCURVE",
"330 25 CURVE SMOOTH",
"339 57 OFFCURVE",
"272 62 OFFCURVE",
"288 118 CURVE SMOOTH",
"322 239 LINE",
"425 239 LINE SMOOTH",
"587 239 OFFCURVE",
"705 298 OFFCURVE",
"744 435 CURVE SMOOTH",
"781 564 OFFCURVE",
"708 666 OFFCURVE",
"532 666 CURVE SMOOTH"
);
}
);
width = 682;
}
);
leftMetricsKey = H;
unicode = 0050;
},
{
glyphname = Q;
lastChange = "2015-09-03 16:32:11 +0000";
layers = (
{
background = {
paths = (
{
closed = 1;
nodes = (
"329 -88 LINE SMOOTH",
"360 -183 OFFCURVE",
"407 -221 OFFCURVE",
"479 -221 CURVE SMOOTH",
"553 -221 OFFCURVE",
"609 -169 OFFCURVE",
"630 -77 CURVE SMOOTH",
"643 -22 OFFCURVE",
"628 17 OFFCURVE",
"613 17 CURVE SMOOTH",
"592 17 OFFCURVE",
"581 -32 OFFCURVE",
"510 -32 CURVE SMOOTH",
"457 -32 OFFCURVE",
"428 4 OFFCURVE",
"397 48 CURVE SMOOTH",
"369 88 LINE SMOOTH",
"351 114 OFFCURVE",
"342 126 OFFCURVE",
"319 126 CURVE SMOOTH",
"285 126 OFFCURVE",
"267 98 OFFCURVE",
"281 57 CURVE SMOOTH"
);
}
);
};
components = (
{
name = O;
}
);
layerId = "FF8CB9F1-2B98-444C-A502-96421F2531A8";
name = "Bold Italic";
paths = (
{
closed = 1;
nodes = (
"256 37 LINE",
"292 -70 LINE SMOOTH",
"329 -181 OFFCURVE",
"391 -221 OFFCURVE",
"466 -221 CURVE SMOOTH",
"544 -221 OFFCURVE",
"596 -179 OFFCURVE",
"616 -111 CURVE SMOOTH",
"636 -42 OFFCURVE",
"615 17 OFFCURVE",
"600 17 CURVE SMOOTH",
"579 17 OFFCURVE",
"551 -32 OFFCURVE",
"490 -32 CURVE SMOOTH",
"439 -32 OFFCURVE",
"398 -9 OFFCURVE",
"358 45 CURVE"
);
}
);
width = 725;
},
{
associatedMasterId = "FF8CB9F1-2B98-444C-A502-96421F2531A8";
background = {
paths = (
{
closed = 1;
nodes = (
"264 681 OFFCURVE",
"115 563 OFFCURVE",
"56 336 CURVE SMOOTH",
"-6 108 OFFCURVE",
"81 -12 OFFCURVE",
"319 -12 CURVE SMOOTH",
"557 -12 OFFCURVE",
"707 108 OFFCURVE",
"768 336 CURVE SMOOTH",
"827 563 OFFCURVE",
"741 681 OFFCURVE",
"503 681 CURVE SMOOTH"
);
},
{
closed = 1;
nodes = (
"533 572 OFFCURVE",
"551 510 OFFCURVE",
"504 329 CURVE SMOOTH",
"456 151 OFFCURVE",
"405 88 OFFCURVE",
"346 88 CURVE SMOOTH",
"286 88 OFFCURVE",
"269 151 OFFCURVE",
"316 329 CURVE SMOOTH",
"363 510 OFFCURVE",
"414 572 OFFCURVE",
"474 572 CURVE SMOOTH"
);
},
{
closed = 1;
nodes = (
"338 -55 LINE SMOOTH",
"393 -176 OFFCURVE",
"426 -221 OFFCURVE",
"519 -221 CURVE SMOOTH",
"610 -221 OFFCURVE",
"679 -169 OFFCURVE",
"700 -77 CURVE SMOOTH",
"713 -22 OFFCURVE",
"698 17 OFFCURVE",
"683 17 CURVE SMOOTH",
"662 17 OFFCURVE",
"635 -32 OFFCURVE",
"564 -32 CURVE SMOOTH",
"511 -32 OFFCURVE",
"471 -1 OFFCURVE",
"439 48 CURVE SMOOTH",
"398 110 LINE SMOOTH",
"380 137 OFFCURVE",
"364 148 OFFCURVE",
"335 148 CURVE SMOOTH",
"306 148 OFFCURVE",
"262 110 OFFCURVE",
"286 59 CURVE SMOOTH"
);
}
);
};
components = (
{
name = O;
}
);
layerId = "7B69DACC-C3A8-413F-B87F-6C4C5E6FBB58";
name = "Bold Italic Aug 12 15, 13:58";
paths = (
{
closed = 1;
nodes = (
"329 -88 LINE SMOOTH",
"360 -183 OFFCURVE",
"407 -221 OFFCURVE",
"479 -221 CURVE SMOOTH",
"553 -221 OFFCURVE",
"609 -169 OFFCURVE",
"630 -77 CURVE SMOOTH",
"643 -22 OFFCURVE",
"628 17 OFFCURVE",
"613 17 CURVE SMOOTH",
"592 17 OFFCURVE",
"581 -32 OFFCURVE",
"510 -32 CURVE SMOOTH",
"457 -32 OFFCURVE",
"428 4 OFFCURVE",
"397 48 CURVE SMOOTH",
"369 88 LINE SMOOTH",
"351 114 OFFCURVE",
"342 126 OFFCURVE",
"319 126 CURVE SMOOTH",
"285 126 OFFCURVE",
"267 98 OFFCURVE",
"281 57 CURVE SMOOTH"
);
}
);
width = 725;
},
{
associatedMasterId = "FF8CB9F1-2B98-444C-A502-96421F2531A8";
background = {
paths = (
{
closed = 1;
nodes = (
"329 -88 LINE SMOOTH",
"360 -183 OFFCURVE",
"407 -221 OFFCURVE",
"479 -221 CURVE SMOOTH",
"553 -221 OFFCURVE",
"609 -169 OFFCURVE",
"630 -77 CURVE SMOOTH",
"643 -22 OFFCURVE",
"628 17 OFFCURVE",
"613 17 CURVE SMOOTH",
"592 17 OFFCURVE",
"581 -32 OFFCURVE",
"510 -32 CURVE SMOOTH",
"457 -32 OFFCURVE",
"428 4 OFFCURVE",
"397 48 CURVE SMOOTH",
"369 88 LINE SMOOTH",
"351 114 OFFCURVE",
"342 126 OFFCURVE",
"319 126 CURVE SMOOTH",
"285 126 OFFCURVE",
"267 98 OFFCURVE",
"281 57 CURVE SMOOTH"
);
}
);
};
components = (
{
name = O;
}
);
layerId = "6585EA80-A71D-46E0-A48D-DF52196A8F7D";
name = "Bold Italic Aug 12 15, 17:20";
paths = (
{
closed = 1;
nodes = (
"329 -88 LINE SMOOTH",
"365 -181 OFFCURVE",
"407 -221 OFFCURVE",
"479 -221 CURVE SMOOTH",
"553 -221 OFFCURVE",
"609 -169 OFFCURVE",
"630 -77 CURVE SMOOTH",
"643 -22 OFFCURVE",
"628 17 OFFCURVE",
"613 17 CURVE SMOOTH",
"592 17 OFFCURVE",
"581 -32 OFFCURVE",
"510 -32 CURVE SMOOTH",
"457 -32 OFFCURVE",
"428 3 OFFCURVE",
"397 48 CURVE SMOOTH",
"349 118 LINE SMOOTH",
"331 144 OFFCURVE",
"316 156 OFFCURVE",
"293 156 CURVE SMOOTH",
"259 156 OFFCURVE",
"242 135 OFFCURVE",
"261 87 CURVE SMOOTH"
);
}
);
width = 725;
},
{
associatedMasterId = "FF8CB9F1-2B98-444C-A502-96421F2531A8";
background = {
paths = (
{
closed = 1;
nodes = (
"329 -88 LINE SMOOTH",
"360 -183 OFFCURVE",
"407 -221 OFFCURVE",
"479 -221 CURVE SMOOTH",
"553 -221 OFFCURVE",
"609 -169 OFFCURVE",
"630 -77 CURVE SMOOTH",
"643 -22 OFFCURVE",
"628 17 OFFCURVE",
"613 17 CURVE SMOOTH",
"592 17 OFFCURVE",
"581 -32 OFFCURVE",
"510 -32 CURVE SMOOTH",
"457 -32 OFFCURVE",
"428 4 OFFCURVE",
"397 48 CURVE SMOOTH",
"369 88 LINE SMOOTH",
"351 114 OFFCURVE",
"342 126 OFFCURVE",
"319 126 CURVE SMOOTH",
"285 126 OFFCURVE",
"267 98 OFFCURVE",
"281 57 CURVE SMOOTH"
);
}
);
};
components = (
{
name = O;
}
);
layerId = "1A10B52C-93EB-4ECC-B8E8-161690C17AC1";
name = "Bold Italic Aug 12 15, 17:45";
paths = (
{
closed = 1;
nodes = (
"292 -70 LINE SMOOTH",
"329 -181 OFFCURVE",
"391 -221 OFFCURVE",
"466 -221 CURVE SMOOTH",
"544 -221 OFFCURVE",
"596 -179 OFFCURVE",
"616 -111 CURVE SMOOTH",
"636 -42 OFFCURVE",
"615 17 OFFCURVE",
"600 17 CURVE SMOOTH",
"579 17 OFFCURVE",
"551 -32 OFFCURVE",
"490 -32 CURVE SMOOTH",
"439 -32 OFFCURVE",
"398 -9 OFFCURVE",
"358 45 CURVE SMOOTH",
"328 84 LINE SMOOTH",
"308 111 OFFCURVE",
"296 120 OFFCURVE",
"275 120 CURVE SMOOTH",
"242 120 OFFCURVE",
"238 89 OFFCURVE",
"256 37 CURVE SMOOTH"
);
}
);
width = 725;
}
);
leftKerningGroup = O;
unicode = 0051;
},
{
glyphname = R;
lastChange = "2015-09-03 16:32:11 +0000";
layers = (
{
associatedMasterId = "FF8CB9F1-2B98-444C-A502-96421F2531A8";
background = {
paths = (
{
closed = 1;
nodes = (
"311 952 LINE SMOOTH",
"260 952 OFFCURVE",
"234 943 OFFCURVE",
"225 917 CURVE SMOOTH",
"208 869 OFFCURVE",
"273 870 OFFCURVE",
"247 784 CURVE SMOOTH",
"62 168 LINE SMOOTH",
"37 85 OFFCURVE",
"-24 97 OFFCURVE",
"-36 51 CURVE SMOOTH",
"-44 19 OFFCURVE",
"-18 0 OFFCURVE",
"31 0 CURVE SMOOTH",
"390 0 LINE SMOOTH",
"440 0 OFFCURVE",
"471 9 OFFCURVE",
"479 35 CURVE SMOOTH",
"493 82 OFFCURVE",
"398 90 OFFCURVE",
"421 168 CURVE SMOOTH",
"483 376 LINE",
"625 376 LINE SMOOTH",
"883 376 OFFCURVE",
"1070 460 OFFCURVE",
"1121 638 CURVE SMOOTH",
"1173 818 OFFCURVE",
"1057 952 OFFCURVE",
"783 952 CURVE SMOOTH"
);
},
{
closed = 1;
nodes = (
"759 565 OFFCURVE",
"706 526 OFFCURVE",
"590 526 CURVE SMOOTH",
"528 526 LINE",
"612 802 LINE",
"674 802 LINE SMOOTH",
"761 802 OFFCURVE",
"819 764 OFFCURVE",
"789 664 CURVE SMOOTH"
);
},
{
closed = 1;
nodes = (
"518 444 LINE",
"593 166 LINE SMOOTH",
"611 100 OFFCURVE",
"551 92 OFFCURVE",
"550 51 CURVE SMOOTH",
"549 20 OFFCURVE",
"571 1 OFFCURVE",
"611 1 CURVE SMOOTH",
"987 1 LINE SMOOTH",
"1048 1 OFFCURVE",
"1068 21 OFFCURVE",
"1066 53 CURVE SMOOTH",
"1064 91 OFFCURVE",
"984 96 OFFCURVE",
"947 195 CURVE SMOOTH",
"852 444 LINE"
);
}
);
};
guideLines = (
{
position = "{570, 664}";
}
);
layerId = "72B1C611-A931-4426-A976-9973EF0F4A85";
name = "Straight diagonal";
paths = (
{
closed = 1;
nodes = (
"311 952 LINE SMOOTH",
"260 952 OFFCURVE",
"234 943 OFFCURVE",
"225 917 CURVE SMOOTH",
"208 869 OFFCURVE",
"273 870 OFFCURVE",
"247 784 CURVE SMOOTH",
"62 168 LINE SMOOTH",
"37 85 OFFCURVE",
"-24 97 OFFCURVE",
"-36 51 CURVE SMOOTH",
"-44 19 OFFCURVE",
"-18 0 OFFCURVE",
"31 0 CURVE SMOOTH",
"390 0 LINE SMOOTH",
"440 0 OFFCURVE",
"471 9 OFFCURVE",
"479 35 CURVE SMOOTH",
"493 82 OFFCURVE",
"398 90 OFFCURVE",
"421 168 CURVE SMOOTH",
"483 376 LINE",
"625 376 LINE SMOOTH",
"883 376 OFFCURVE",
"1070 460 OFFCURVE",
"1121 638 CURVE SMOOTH",
"1173 818 OFFCURVE",
"1057 952 OFFCURVE",
"783 952 CURVE SMOOTH"
);
},
{
closed = 1;
nodes = (
"755 557 OFFCURVE",
"702 518 OFFCURVE",
"586 518 CURVE SMOOTH",
"524 518 LINE",
"612 802 LINE",
"674 802 LINE SMOOTH",
"761 802 OFFCURVE",
"815 756 OFFCURVE",
"785 656 CURVE SMOOTH"
);
},
{
closed = 1;
nodes = (
"518 444 LINE",
"601 133 LINE SMOOTH",
"626 40 OFFCURVE",
"672 1 OFFCURVE",
"771 1 CURVE SMOOTH",
"987 1 LINE SMOOTH",
"1048 1 OFFCURVE",
"1068 21 OFFCURVE",
"1066 53 CURVE SMOOTH",
"1064 91 OFFCURVE",
"984 96 OFFCURVE",
"947 195 CURVE SMOOTH",
"852 444 LINE"
);
}
);
width = 1125;
},
{
associatedMasterId = "FF8CB9F1-2B98-444C-A502-96421F2531A8";
background = {
paths = (
{
closed = 1;
nodes = (
"311 952 LINE SMOOTH",
"260 952 OFFCURVE",
"234 943 OFFCURVE",
"225 917 CURVE SMOOTH",
"208 869 OFFCURVE",
"273 870 OFFCURVE",
"247 784 CURVE SMOOTH",
"62 168 LINE SMOOTH",
"37 85 OFFCURVE",
"-24 97 OFFCURVE",
"-36 51 CURVE SMOOTH",
"-44 19 OFFCURVE",
"-18 0 OFFCURVE",
"31 0 CURVE SMOOTH",
"390 0 LINE SMOOTH",
"440 0 OFFCURVE",
"471 9 OFFCURVE",
"479 35 CURVE SMOOTH",
"493 82 OFFCURVE",
"398 91 OFFCURVE",
"421 168 CURVE SMOOTH",
"492 406 LINE",
"634 406 LINE SMOOTH",
"892 406 OFFCURVE",
"1069 479 OFFCURVE",
"1118 645 CURVE SMOOTH",
"1170 822 OFFCURVE",
"1057 952 OFFCURVE",
"783 952 CURVE SMOOTH"
);
},
{
closed = 1;
nodes = (
"762 581 OFFCURVE",
"694 548 OFFCURVE",
"607 548 CURVE SMOOTH",
"533 548 LINE",
"612 802 LINE",
"685 802 LINE SMOOTH",
"758 802 OFFCURVE",
"817 763 OFFCURVE",
"790 674 CURVE SMOOTH"
);
},
{
closed = 1;
nodes = (
"596 458 LINE",
"515 406 LINE",
"558 406 LINE SMOOTH",
"607 406 OFFCURVE",
"625 382 OFFCURVE",
"623 324 CURVE SMOOTH",
"620 214 LINE SMOOTH",
"616 59 OFFCURVE",
"697 -13 OFFCURVE",
"843 -13 CURVE SMOOTH",
"980 -13 OFFCURVE",
"1055 64 OFFCURVE",
"1067 124 CURVE SMOOTH",
"1073 156 OFFCURVE",
"1052 164 OFFCURVE",
"1014 164 CURVE SMOOTH",
"989 164 OFFCURVE",
"986 182 OFFCURVE",
"985 221 CURVE SMOOTH",
"984 262 LINE SMOOTH",
"981 388 OFFCURVE",
"922 458 OFFCURVE",
"765 458 CURVE SMOOTH"
);
}
);
};
guideLines = (
{
position = "{572.5, 675}";
},
{
angle = 73.2837;
position = "{638, 168}";
},
{
angle = 73.2837;
position = "{974, 168}";
},
{
angle = 73.2837;
position = "{481, 168}";
}
);
layerId = "E84339CD-9DEF-4E97-B6DD-019BB52754C1";
name = "Rounded diagonal";
paths = (
{
closed = 1;
nodes = (
"1170 822 OFFCURVE",
"1057 952 OFFCURVE",
"783 952 CURVE SMOOTH",
"311 952 LINE SMOOTH",
"260 952 OFFCURVE",
"234 943 OFFCURVE",
"225 917 CURVE SMOOTH",
"208 869 OFFCURVE",
"273 870 OFFCURVE",
"247 784 CURVE SMOOTH",
"62 168 LINE SMOOTH",
"37 85 OFFCURVE",
"-24 97 OFFCURVE",
"-36 51 CURVE SMOOTH",
"-44 19 OFFCURVE",
"-18 0 OFFCURVE",
"31 0 CURVE SMOOTH",
"390 0 LINE SMOOTH",
"440 0 OFFCURVE",
"471 9 OFFCURVE",
"479 35 CURVE SMOOTH",
"493 82 OFFCURVE",
"398 91 OFFCURVE",
"421 168 CURVE SMOOTH",
"492 406 LINE",
"558 406 LINE SMOOTH",
"607 406 OFFCURVE",
"625 382 OFFCURVE",
"623 324 CURVE SMOOTH",
"620 214 LINE SMOOTH",
"616 59 OFFCURVE",
"697 -13 OFFCURVE",
"843 -13 CURVE SMOOTH",
"980 -13 OFFCURVE",
"1055 64 OFFCURVE",
"1067 124 CURVE SMOOTH",
"1073 156 OFFCURVE",
"1052 164 OFFCURVE",
"1014 164 CURVE SMOOTH",
"989 164 OFFCURVE",
"986 182 OFFCURVE",
"985 221 CURVE SMOOTH",
"984 262 LINE SMOOTH",
"981.95 348.092 OFFCURVE",
"962 429 OFFCURVE",
"826 444 CURVE",
"1016 464 OFFCURVE",
"1087.24 540.793 OFFCURVE",
"1118 645 CURVE SMOOTH"
);
},
{
closed = 1;
nodes = (
"612 802 LINE",
"685 802 LINE SMOOTH",
"758 802 OFFCURVE",
"817 763 OFFCURVE",
"790 674 CURVE SMOOTH",
"762 581 OFFCURVE",
"694 548 OFFCURVE",
"607 548 CURVE SMOOTH",
"533 548 LINE"
);
}
);
width = 1125;
},
{
anchors = (
{
name = top;
position = "{440, 651}";
}
);
background = {
paths = (
{
closed = 1;
nodes = (
"787 573 OFFCURVE",
"700 666 OFFCURVE",
"536 666 CURVE SMOOTH",
"201 666 LINE SMOOTH",
"165 666 OFFCURVE",
"147 660 OFFCURVE",
"142 642 CURVE SMOOTH",
"130 608 OFFCURVE",
"175 609 OFFCURVE",
"158 549 CURVE SMOOTH",
"36 118 LINE SMOOTH",
"20 59 OFFCURVE",
"-23 68 OFFCURVE",
"-31 36 CURVE SMOOTH",
"-36 13 OFFCURVE",
"-18 0 OFFCURVE",
"17 0 CURVE SMOOTH",
"268 0 LINE SMOOTH",
"303 0 OFFCURVE",
"325 6 OFFCURVE",
"330 25 CURVE SMOOTH",
"339 57 OFFCURVE",
"273 64 OFFCURVE",
"288 118 CURVE SMOOTH",
"334 284 LINE",
"372 284 LINE SMOOTH",
"427 284 OFFCURVE",
"446 266 OFFCURVE",
"433 214 CURVE SMOOTH",
"417 150 LINE SMOOTH",
"390 46 OFFCURVE",
"453 -9 OFFCURVE",
"555 -9 CURVE SMOOTH",
"665 -9 OFFCURVE",
"717 45 OFFCURVE",
"724 87 CURVE SMOOTH",
"728 109 OFFCURVE",
"713 115 OFFCURVE",
"687 115 CURVE SMOOTH",
"669 115 OFFCURVE",
"660 130 OFFCURVE",
"666 155 CURVE SMOOTH",
"677 204 LINE SMOOTH",
"694 274 OFFCURVE",
"665 326 OFFCURVE",
"586 332 CURVE",
"673 342 OFFCURVE",
"735 384 OFFCURVE",
"757 463 CURVE SMOOTH"
);
},
{
closed = 1;
nodes = (
"413 561 LINE",
"462 561 LINE SMOOTH",
"505 561 OFFCURVE",
"542 534 OFFCURVE",
"524 472 CURVE SMOOTH",
"505 407 OFFCURVE",
"466 384 OFFCURVE",
"411 384 CURVE SMOOTH",
"361 384 LINE"
);
}
);
};
guideLines = (
{
position = "{568, 675}";
},
{
angle = 73.2837;
position = "{633, 168}";
},
{
angle = 73.2837;
position = "{969, 168}";
},
{
angle = 73.2837;
position = "{508, 168}";
}
);
layerId = "FF8CB9F1-2B98-444C-A502-96421F2531A8";
name = "Bold Italic";
paths = (
{
closed = 1;
nodes = (
"787 573 OFFCURVE",
"700 666 OFFCURVE",
"536 666 CURVE SMOOTH",
"201 666 LINE SMOOTH",
"165 666 OFFCURVE",
"147 660 OFFCURVE",
"142 642 CURVE SMOOTH",
"130 608 OFFCURVE",
"175 609 OFFCURVE",
"158 549 CURVE SMOOTH",
"36 118 LINE SMOOTH",
"20 59 OFFCURVE",
"-23 68 OFFCURVE",
"-31 36 CURVE SMOOTH",
"-36 13 OFFCURVE",
"-18 0 OFFCURVE",
"17 0 CURVE SMOOTH",
"268 0 LINE SMOOTH",
"303 0 OFFCURVE",
"325 6 OFFCURVE",
"330 25 CURVE SMOOTH",
"339 57 OFFCURVE",
"273 64 OFFCURVE",
"288 118 CURVE SMOOTH",
"334 284 LINE",
"372 284 LINE SMOOTH",
"427 284 OFFCURVE",
"446 266 OFFCURVE",
"433 214 CURVE SMOOTH",
"417 150 LINE SMOOTH",
"390 46 OFFCURVE",
"453 -9 OFFCURVE",
"555 -9 CURVE SMOOTH",
"665 -9 OFFCURVE",
"717 45 OFFCURVE",
"724 87 CURVE SMOOTH",
"728 109 OFFCURVE",
"713 115 OFFCURVE",
"687 115 CURVE SMOOTH",
"669 115 OFFCURVE",
"660 130 OFFCURVE",
"666 155 CURVE SMOOTH",
"677 204 LINE SMOOTH",
"694 274 OFFCURVE",
"665 326 OFFCURVE",
"586 332 CURVE",
"673 342 OFFCURVE",
"735 384 OFFCURVE",
"757 463 CURVE SMOOTH"
);
},
{
closed = 1;
nodes = (
"483 403 OFFCURVE",
"454 384 OFFCURVE",
"404 384 CURVE SMOOTH",
"362 384 LINE",
"406 561 LINE",
"448 561 LINE SMOOTH",
"488 561 OFFCURVE",
"518 543 OFFCURVE",
"501 473 CURVE SMOOTH"
);
}
);
width = 755;
}
);
leftMetricsKey = I;
unicode = 0052;
},
{
glyphname = S;
lastChange = "2015-09-03 16:32:11 +0000";
layers = (
{
associatedMasterId = "FF8CB9F1-2B98-444C-A502-96421F2531A8";
background = {
paths = (
{
closed = 1;
nodes = (
"345 959 OFFCURVE",
"151 854 OFFCURVE",
"135 681 CURVE SMOOTH",
"110 413 OFFCURVE",
"607 398 OFFCURVE",
"607 264 CURVE SMOOTH",
"607 198 OFFCURVE",
"541 136 OFFCURVE",
"455 136 CURVE SMOOTH",
"416 136 OFFCURVE",
"375 143 OFFCURVE",
"346 158 CURVE",
"393 293 OFFCURVE",
"304 389 OFFCURVE",
"178 389 CURVE SMOOTH",
"70 389 OFFCURVE",
"7 326 OFFCURVE",
"7 232 CURVE SMOOTH",
"7 100 OFFCURVE",
"159 -10 OFFCURVE",
"448 -10 CURVE SMOOTH",
"764 -10 OFFCURVE",
"953 125 OFFCURVE",
"970 289 CURVE SMOOTH",
"999 568 OFFCURVE",
"469 565 OFFCURVE",
"469 730 CURVE SMOOTH",
"469 816 OFFCURVE",
"623 842 OFFCURVE",
"698 825 CURVE",
"662 687 OFFCURVE",
"755 595 OFFCURVE",
"877 595 CURVE SMOOTH",
"988 595 OFFCURVE",
"1036 674 OFFCURVE",
"1035 745 CURVE SMOOTH",
"1032 876 OFFCURVE",
"845 959 OFFCURVE",
"592 959 CURVE SMOOTH"
);
}
);
};
layerId = "4B9A8DB5-46E1-4DEC-A0EF-0AE35ECDD66E";
name = "Ball Terminals: Lipi";
paths = (
{
closed = 1;
nodes = (
"309 969 OFFCURVE",
"131 831 OFFCURVE",
"131 670 CURVE SMOOTH",
"131 399 OFFCURVE",
"617 395 OFFCURVE",
"617 236 CURVE SMOOTH",
"617 139 OFFCURVE",
"470 109 OFFCURVE",
"354 148 CURVE",
"411 278 OFFCURVE",
"320 379 OFFCURVE",
"191 379 CURVE SMOOTH",
"83 379 OFFCURVE",
"20 316 OFFCURVE",
"20 222 CURVE SMOOTH",
"20 90 OFFCURVE",
"172 -20 OFFCURVE",
"469 -20 CURVE SMOOTH",
"762 -20 OFFCURVE",
"980 106 OFFCURVE",
"980 305 CURVE SMOOTH",
"980 582 OFFCURVE",
"465 592 OFFCURVE",
"465 732 CURVE SMOOTH",
"465 816 OFFCURVE",
"593 847 OFFCURVE",
"711 835 CURVE",
"658 697 OFFCURVE",
"751 605 OFFCURVE",
"873 605 CURVE SMOOTH",
"984 605 OFFCURVE",
"1032 684 OFFCURVE",
"1031 755 CURVE SMOOTH",
"1028 886 OFFCURVE",
"841 969 OFFCURVE",
"560 969 CURVE SMOOTH"
);
}
);
width = 973;
},
{
associatedMasterId = "FF8CB9F1-2B98-444C-A502-96421F2531A8";
background = {
paths = (
{
closed = 1;
nodes = (
"383 959 OFFCURVE",
"189 854 OFFCURVE",
"173 681 CURVE SMOOTH",
"148 413 OFFCURVE",
"645 398 OFFCURVE",
"645 264 CURVE SMOOTH",
"645 198 OFFCURVE",
"579 136 OFFCURVE",
"493 136 CURVE SMOOTH",
"454 136 OFFCURVE",
"413 143 OFFCURVE",
"384 158 CURVE",
"431 293 OFFCURVE",
"342 389 OFFCURVE",
"216 389 CURVE SMOOTH",
"108 389 OFFCURVE",
"45 326 OFFCURVE",
"45 232 CURVE SMOOTH",
"45 100 OFFCURVE",
"197 -10 OFFCURVE",
"486 -10 CURVE SMOOTH",
"802 -10 OFFCURVE",
"991 125 OFFCURVE",
"1008 289 CURVE SMOOTH",
"1037 568 OFFCURVE",
"507 565 OFFCURVE",
"507 730 CURVE SMOOTH",
"507 816 OFFCURVE",
"661 842 OFFCURVE",
"736 825 CURVE",
"700 687 OFFCURVE",
"793 595 OFFCURVE",
"915 595 CURVE SMOOTH",
"1026 595 OFFCURVE",
"1074 674 OFFCURVE",
"1073 745 CURVE SMOOTH",
"1070 876 OFFCURVE",
"883 959 OFFCURVE",
"630 959 CURVE SMOOTH"
);
}
);
};
layerId = "EC6023BC-5000-4426-9669-5D8298901CAA";
name = "Ball Terminals: Jonny";
paths = (
{
closed = 1;
nodes = (
"390 969 OFFCURVE",
"200 831 OFFCURVE",
"186 670 CURVE SMOOTH",
"162 399 OFFCURVE",
"648 395 OFFCURVE",
"634 236 CURVE SMOOTH",
"626 139 OFFCURVE",
"476 109 OFFCURVE",
"363 148 CURVE",
"432 278 OFFCURVE",
"350 379 OFFCURVE",
"221 379 CURVE SMOOTH",
"113 379 OFFCURVE",
"44 316 OFFCURVE",
"36 222 CURVE SMOOTH",
"24 90 OFFCURVE",
"167 -20 OFFCURVE",
"482 -20 CURVE SMOOTH",
"772 -20 OFFCURVE",
"986 106 OFFCURVE",
"1003 305 CURVE SMOOTH",
"1027 582 OFFCURVE",
"513 592 OFFCURVE",
"526 732 CURVE SMOOTH",
"533 816 OFFCURVE",
"640 848 OFFCURVE",
"770 818 CURVE",
"715 697 OFFCURVE",
"800 605 OFFCURVE",
"922 605 CURVE SMOOTH",
"1033 605 OFFCURVE",
"1088 684 OFFCURVE",
"1094 755 CURVE SMOOTH",
"1102 886 OFFCURVE",
"922 969 OFFCURVE",
"641 969 CURVE SMOOTH"
);
}
);
width = 1033;
},
{
associatedMasterId = "FF8CB9F1-2B98-444C-A502-96421F2531A8";
background = {
paths = (
{
closed = 1;
nodes = (
"750 814 OFFCURVE",
"825 642 OFFCURVE",
"916 642 CURVE SMOOTH",
"973 642 OFFCURVE",
"1051 733 OFFCURVE",
"1051 810 CURVE SMOOTH",
"1051 899 OFFCURVE",
"825 960 OFFCURVE",
"585 960 CURVE SMOOTH",
"369 960 OFFCURVE",
"226 893 OFFCURVE",
"186 761 CURVE SMOOTH",
"71 382 OFFCURVE",
"642 365 OFFCURVE",
"586 190 CURVE SMOOTH",
"575 154 OFFCURVE",
"541 135 OFFCURVE",
"485 135 CURVE SMOOTH",
"296 135 OFFCURVE",
"246 380 OFFCURVE",
"159 380 CURVE SMOOTH",
"94 380 OFFCURVE",
"31 281 OFFCURVE",
"31 190 CURVE SMOOTH",
"31 55 OFFCURVE",
"246 -20 OFFCURVE",
"476 -20 CURVE SMOOTH",
"701 -20 OFFCURVE",
"898 66 OFFCURVE",
"948 227 CURVE SMOOTH",
"1057 576 OFFCURVE",
"464 603 OFFCURVE",
"515 771 CURVE SMOOTH",
"524 802 OFFCURVE",
"550 814 OFFCURVE",
"601 814 CURVE"
);
}
);
};
guideLines = (
{
angle = 73.2837;
position = "{1065, 618}";
},
{
angle = 73.2837;
position = "{469, 618}";
},
{
angle = 73.2837;
position = "{714, 618}";
},
{
angle = 73.2837;
position = "{143, 618}";
}
);
layerId = "211A6F91-BBB4-42D4-BA60-4929EEBFB02F";
name = "Wedge Terminal: Jonny";
paths = (
{
closed = 1;
nodes = (
"802 833 OFFCURVE",
"818 661 OFFCURVE",
"909 661 CURVE SMOOTH",
"986 661 OFFCURVE",
"1044 739 OFFCURVE",
"1044 802 CURVE SMOOTH",
"1044 887 OFFCURVE",
"848 979 OFFCURVE",
"608 979 CURVE SMOOTH",
"392 979 OFFCURVE",
"247 905 OFFCURVE",
"203 759 CURVE SMOOTH",
"94 401 OFFCURVE",
"642 365 OFFCURVE",
"586 190 CURVE SMOOTH",
"575 154 OFFCURVE",
"541 120 OFFCURVE",
"476 120 CURVE SMOOTH",
"296 120 OFFCURVE",
"275 380 OFFCURVE",
"159 380 CURVE SMOOTH",
"94 380 OFFCURVE",
"31 281 OFFCURVE",
"31 190 CURVE SMOOTH",
"31 55 OFFCURVE",
"246 -20 OFFCURVE",
"476 -20 CURVE SMOOTH",
"701 -20 OFFCURVE",
"899 66 OFFCURVE",
"948 227 CURVE SMOOTH",
"1060 595 OFFCURVE",
"488 623 OFFCURVE",
"538 790 CURVE SMOOTH",
"546 817 OFFCURVE",
"576 833 OFFCURVE",
"624 833 CURVE SMOOTH"
);
}
);
width = 996;
},
{
anchors = (
{
name = top;
position = "{420, 651}";
}
);
background = {
paths = (
{
closed = 0;
nodes = (
"414 570 LINE",
"454 570 OFFCURVE",
"485 550 OFFCURVE",
"523 503 CURVE SMOOTH",
"569 446 OFFCURVE",
"583 431 OFFCURVE",
"608 431 CURVE SMOOTH",
"624 431 LINE SMOOTH",
"642 431 OFFCURVE",
"655 445 OFFCURVE",
"667 479 CURVE SMOOTH",
"713 622 LINE SMOOTH",
"724 649 OFFCURVE",
"715 666 OFFCURVE",
"685 666 CURVE SMOOTH",
"649 666 LINE SMOOTH",
"624 666 OFFCURVE",
"607 659 OFFCURVE",
"566 617 CURVE",
"500 656 OFFCURVE",
"444 672 OFFCURVE",
"375 672 CURVE"
);
}
);
};
guideLines = (
{
angle = 73.2837;
position = "{1055, 618}";
},
{
angle = 73.2837;
position = "{459, 618}";
},
{
angle = 73.2837;
position = "{158, 618}";
},
{
angle = 73.2837;
position = "{412, 718}";
},
{
angle = 73.2837;
position = "{756, 638}";
},
{
angle = 73.2837;
position = "{514, 618}";
}
);
layerId = "FF8CB9F1-2B98-444C-A502-96421F2531A8";
name = "Bold Italic";
paths = (
{
closed = 1;
nodes = (
"252 672 OFFCURVE",
"156 611 OFFCURVE",
"128 519 CURVE SMOOTH",
"50 263 OFFCURVE",
"405 250 OFFCURVE",
"371 139 CURVE SMOOTH",
"363 115 OFFCURVE",
"346 103 OFFCURVE",
"309 103 CURVE SMOOTH",
"258 103 OFFCURVE",
"227 124 OFFCURVE",
"184 185 CURVE SMOOTH",
"146 238 OFFCURVE",
"126 259 OFFCURVE",
"94 259 CURVE SMOOTH",
"66 259 OFFCURVE",
"47 246 OFFCURVE",
"36 211 CURVE SMOOTH",
"-13 62 LINE SMOOTH",
"-26 23 OFFCURVE",
"-4 0 OFFCURVE",
"33 0 CURVE SMOOTH",
"60 0 OFFCURVE",
"77 9 OFFCURVE",
"110 36 CURVE SMOOTH",
"146 66 LINE",
"209 17 OFFCURVE",
"264 -4 OFFCURVE",
"358 -4 CURVE SMOOTH",
"475 -4 OFFCURVE",
"579 48 OFFCURVE",
"612 159 CURVE SMOOTH",
"685 401 OFFCURVE",
"324 426 OFFCURVE",
"357 534 CURVE SMOOTH",
"363 555 OFFCURVE",
"383 570 OFFCURVE",
"407 570 CURVE SMOOTH",
"445 570 OFFCURVE",
"481 553 OFFCURVE",
"529 497 CURVE SMOOTH",
"571 447 OFFCURVE",
"587 428 OFFCURVE",
"619 428 CURVE SMOOTH",
"647 428 OFFCURVE",
"659 440 OFFCURVE",
"668 472 CURVE SMOOTH",
"710 610 LINE SMOOTH",
"721 647 OFFCURVE",
"698 668 OFFCURVE",
"661 668 CURVE SMOOTH",
"634 668 OFFCURVE",
"617 660 OFFCURVE",
"586 635 CURVE SMOOTH",
"563 616 LINE",
"498 655 OFFCURVE",
"437 672 OFFCURVE",
"363 672 CURVE SMOOTH"
);
}
);
width = 667;
},
{
associatedMasterId = "FF8CB9F1-2B98-444C-A502-96421F2531A8";
guideLines = (
{
angle = 73.2837;
position = "{1065, 618}";
},
{
angle = 73.2837;
position = "{469, 618}";
},
{
angle = 73.2837;
position = "{714, 618}";
},
{
angle = 73.2837;
position = "{143, 618}";
}
);
layerId = "336269EB-47FB-4C74-AC2A-2B1AC62FAEB5";
name = V1;
paths = (
{
closed = 1;
nodes = (
"268 672 OFFCURVE",
"186 625 OFFCURVE",
"155 525 CURVE SMOOTH",
"73 267 OFFCURVE",
"432 255 OFFCURVE",
"393 139 CURVE SMOOTH",
"383 108 OFFCURVE",
"360 95 OFFCURVE",
"317 95 CURVE SMOOTH",
"271 95 OFFCURVE",
"237 118 OFFCURVE",
"203 185 CURVE SMOOTH",
"173 242 OFFCURVE",
"162 259 OFFCURVE",
"136 259 CURVE SMOOTH",
"114 259 LINE SMOOTH",
"92 259 OFFCURVE",
"79 246 OFFCURVE",
"67 211 CURVE SMOOTH",
"14 44 LINE SMOOTH",
"6 18 OFFCURVE",
"12 0 OFFCURVE",
"41 0 CURVE SMOOTH",
"80 0 LINE SMOOTH",
"105 0 OFFCURVE",
"122 13 OFFCURVE",
"153 55 CURVE",
"200 10 OFFCURVE",
"262 -14 OFFCURVE",
"354 -14 CURVE SMOOTH",
"480 -14 OFFCURVE",
"585 46 OFFCURVE",
"622 159 CURVE SMOOTH",
"703 403 OFFCURVE",
"327 402 OFFCURVE",
"369 533 CURVE SMOOTH",
"375 552 OFFCURVE",
"389 570 OFFCURVE",
"422 570 CURVE SMOOTH",
"460 570 OFFCURVE",
"490 550 OFFCURVE",
"526 503 CURVE SMOOTH",
"571 446 OFFCURVE",
"584 431 OFFCURVE",
"609 431 CURVE SMOOTH",
"624 431 LINE SMOOTH",
"641 431 OFFCURVE",
"653 445 OFFCURVE",
"665 479 CURVE SMOOTH",
"710 622 LINE SMOOTH",
"720 649 OFFCURVE",
"712 666 OFFCURVE",
"683 666 CURVE SMOOTH",
"648 666 LINE SMOOTH",
"624 666 OFFCURVE",
"608 659 OFFCURVE",
"568 617 CURVE",
"505 656 OFFCURVE",
"451 672 OFFCURVE",
"384 672 CURVE SMOOTH"
);
}
);
width = 697;
}
);
unicode = 0053;
},
{
glyphname = T;
lastChange = "2015-09-03 16:32:11 +0000";
layers = (
{
anchors = (
{
name = top;
position = "{470, 651}";
}
);
background = {
paths = (
{
closed = 0;
nodes = (
"619 565 LINE SMOOTH",
"648 565 OFFCURVE",
"660 558 OFFCURVE",
"665 533 CURVE SMOOTH",
"677 478 LINE SMOOTH",
"683 442 OFFCURVE",
"697 431 OFFCURVE",
"728 431 CURVE SMOOTH",
"771 431 OFFCURVE",
"808 463 OFFCURVE",
"823 514 CURVE SMOOTH",
"849 596 LINE SMOOTH",
"867 650 OFFCURVE",
"862 666 OFFCURVE",
"794 666 CURVE SMOOTH"
);
}
);
};
guideLines = (
{
angle = 74.2244;
position = "{757, 283}";
}
);
layerId = "FF8CB9F1-2B98-444C-A502-96421F2531A8";
name = "Bold Italic";
paths = (
{
closed = 1;
nodes = (
"349 580 LINE",
"219 119 LINE SMOOTH",
"202 61 OFFCURVE",
"165 71 OFFCURVE",
"151 40 CURVE SMOOTH",
"142 17 OFFCURVE",
"157 1 OFFCURVE",
"192 1 CURVE SMOOTH",
"427 1 LINE SMOOTH",
"463 1 OFFCURVE",
"481 8 OFFCURVE",
"488 26 CURVE SMOOTH",
"499 59 OFFCURVE",
"454 60 OFFCURVE",
"470 119 CURVE SMOOTH",
"601 580 LINE"
);
},
{
closed = 1;
nodes = (
"620 566 LINE SMOOTH",
"646 566 OFFCURVE",
"655 558 OFFCURVE",
"665 533 CURVE SMOOTH",
"682 492 LINE SMOOTH",
"696 458 OFFCURVE",
"710 438 OFFCURVE",
"746 438 CURVE SMOOTH",
"787 438 OFFCURVE",
"805 457 OFFCURVE",
"819 505 CURVE SMOOTH",
"843 586 LINE SMOOTH",
"859 642 OFFCURVE",
"842 666 OFFCURVE",
"794 666 CURVE SMOOTH",
"211 666 LINE SMOOTH",
"143 666 OFFCURVE",
"127 649 OFFCURVE",
"112 596 CURVE SMOOTH",
"86 505 LINE SMOOTH",
"75 464 OFFCURVE",
"93 438 OFFCURVE",
"132 438 CURVE SMOOTH",
"167 438 OFFCURVE",
"194 458 OFFCURVE",
"223 492 CURVE SMOOTH",
"256 533 LINE SMOOTH",
"277 558 OFFCURVE",
"293 566 OFFCURVE",
"322 566 CURVE SMOOTH"
);
}
);
width = 754;
}
);
unicode = 0054;
},
{
glyphname = U;
lastChange = "2015-09-03 16:32:11 +0000";
layers = (
{
anchors = (
{
name = top;
position = "{500, 651}";
}
);
background = {
components = (
{
name = I;
}
);
};
layerId = "FF8CB9F1-2B98-444C-A502-96421F2531A8";
name = "Bold Italic";
paths = (
{
closed = 1;
nodes = (
"513 244 LINE SMOOTH",
"486 149 OFFCURVE",
"446 118 OFFCURVE",
"390 118 CURVE SMOOTH",
"331 118 OFFCURVE",
"301 150 OFFCURVE",
"327 243 CURVE SMOOTH",
"414 549 LINE SMOOTH",
"431 608 OFFCURVE",
"472 597 OFFCURVE",
"482 630 CURVE SMOOTH",
"488 652 OFFCURVE",
"476 666 OFFCURVE",
"440 666 CURVE SMOOTH",
"205 666 LINE SMOOTH",
"169 666 OFFCURVE",
"152 660 OFFCURVE",
"146 642 CURVE SMOOTH",
"135 611 OFFCURVE",
"179 609 OFFCURVE",
"162 549 CURVE SMOOTH",
"86 280 LINE SMOOTH",
"28 76 OFFCURVE",
"135 -6 OFFCURVE",
"319 -6 CURVE SMOOTH",
"498 -6 OFFCURVE",
"589 86 OFFCURVE",
"630 238 CURVE SMOOTH",
"689 455 LINE",
"706 450 OFFCURVE",
"719 446 OFFCURVE",
"745 446 CURVE SMOOTH",
"784 446 OFFCURVE",
"829 466 OFFCURVE",
"845 529 CURVE SMOOTH",
"864 602 OFFCURVE",
"822 670 OFFCURVE",
"744 670 CURVE SMOOTH",
"658 670 OFFCURVE",
"619 616 OFFCURVE",
"595 531 CURVE SMOOTH"
);
}
);
width = 772;
},
{
associatedMasterId = "FF8CB9F1-2B98-444C-A502-96421F2531A8";
background = {
paths = (
{
closed = 1;
nodes = (
"537 451 LINE",
"489 280 LINE SMOOTH",
"458 168 OFFCURVE",
"445 118 OFFCURVE",
"350 118 CURVE SMOOTH",
"239 118 OFFCURVE",
"271 168 OFFCURVE",
"302 279 CURVE SMOOTH",
"379 549 LINE SMOOTH",
"396 608 OFFCURVE",
"434 597 OFFCURVE",
"446 628 CURVE SMOOTH",
"457 651 OFFCURVE",
"441 666 OFFCURVE",
"405 666 CURVE SMOOTH",
"170 666 LINE SMOOTH",
"134 666 OFFCURVE",
"116 660 OFFCURVE",
"111 642 CURVE SMOOTH",
"99 608 OFFCURVE",
"144 609 OFFCURVE",
"127 549 CURVE SMOOTH",
"51 280 LINE SMOOTH",
"-7 76 OFFCURVE",
"59 -6 OFFCURVE",
"294 -6 CURVE SMOOTH",
"504 -6 OFFCURVE",
"559 87 OFFCURVE",
"614 280 CURVE SMOOTH",
"662 451 LINE"
);
}
);
};
layerId = "99F50AD5-117D-413C-97CA-DB5A274BEFC6";
name = "Bold Italic Aug 12 15, 11:29";
paths = (
{
closed = 1;
nodes = (
"633 675 OFFCURVE",
"583 613 OFFCURVE",
"551 500 CURVE SMOOTH",
"478 244 LINE SMOOTH",
"451 149 OFFCURVE",
"411 118 OFFCURVE",
"350 118 CURVE SMOOTH",
"291 118 OFFCURVE",
"266 150 OFFCURVE",
"292 243 CURVE SMOOTH",
"379 549 LINE SMOOTH",
"396 608 OFFCURVE",
"434 597 OFFCURVE",
"446 628 CURVE",
"457 651 OFFCURVE",
"441 666 OFFCURVE",
"405 666 CURVE SMOOTH",
"170 666 LINE SMOOTH",
"134 666 OFFCURVE",
"116 660 OFFCURVE",
"111 642 CURVE",
"99 608 OFFCURVE",
"144 609 OFFCURVE",
"127 549 CURVE SMOOTH",
"51 280 LINE SMOOTH",
"-7 76 OFFCURVE",
"100 -6 OFFCURVE",
"305 -6 CURVE SMOOTH",
"475 -6 OFFCURVE",
"553 86 OFFCURVE",
"590 222 CURVE SMOOTH",
"665 497 LINE",
"676 468 OFFCURVE",
"698 450 OFFCURVE",
"737 450 CURVE SMOOTH",
"792 450 OFFCURVE",
"830 504 OFFCURVE",
"830 571 CURVE SMOOTH",
"830 628 OFFCURVE",
"793 675 OFFCURVE",
"724 675 CURVE SMOOTH"
);
}
);
width = 744;
visible = 1;
}
);
unicode = 0055;
},
{
glyphname = V;
lastChange = "2015-09-03 16:32:11 +0000";
layers = (
{
background = {
paths = (
{
closed = 1;
nodes = (
"413 145 LINE",
"487 170 LINE",
"444 554 LINE SMOOTH",
"439 602 OFFCURVE",
"484 602 OFFCURVE",
"483 635 CURVE SMOOTH",
"482 655 OFFCURVE",
"466 666 OFFCURVE",
"429 666 CURVE SMOOTH",
"177 666 LINE SMOOTH",
"135 666 OFFCURVE",
"121 652 OFFCURVE",
"123 629 CURVE SMOOTH",
"124 603 OFFCURVE",
"176 601 OFFCURVE",
"183 548 CURVE SMOOTH",
"247 73 LINE SMOOTH",
"254 23 OFFCURVE",
"279 0 OFFCURVE",
"329 0 CURVE SMOOTH",
"379 0 LINE SMOOTH",
"421 0 OFFCURVE",
"445 16 OFFCURVE",
"474 66 CURVE SMOOTH",
"713 486 LINE",
"732 466 OFFCURVE",
"758 454 OFFCURVE",
"790 454 CURVE SMOOTH",
"840 454 OFFCURVE",
"877 489 OFFCURVE",
"889 532 CURVE SMOOTH",
"913 616 OFFCURVE",
"861 670 OFFCURVE",
"792 670 CURVE SMOOTH",
"721 670 OFFCURVE",
"679 630 OFFCURVE",
"629 537 CURVE SMOOTH"
);
}
);
};
guideLines = (
{
angle = -79.6952;
position = "{150, 786}";
},
{
angle = -79.6952;
position = "{407, 786}";
}
);
layerId = "FF8CB9F1-2B98-444C-A502-96421F2531A8";
name = "Bold Italic";
paths = (
{
closed = 1;
nodes = (
"402 217 LINE SMOOTH",
"473 230 LINE SMOOTH",
"421 550 LINE SMOOTH",
"414 595 OFFCURVE",
"454 602 OFFCURVE",
"454 631 CURVE SMOOTH",
"455 652 OFFCURVE",
"439 666 OFFCURVE",
"408 666 CURVE SMOOTH",
"158 666 LINE SMOOTH",
"123 666 OFFCURVE",
"111 652 OFFCURVE",
"114 629 CURVE SMOOTH",
"114 603 OFFCURVE",
"155 597 OFFCURVE",
"164 548 CURVE SMOOTH",
"248 86 LINE SMOOTH",
"259 24 OFFCURVE",
"284 0 OFFCURVE",
"324 0 CURVE SMOOTH",
"364 0 OFFCURVE",
"391 27 OFFCURVE",
"426 86 CURVE SMOOTH",
"667 492 LINE",
"683 471 OFFCURVE",
"709 455 OFFCURVE",
"743 455 CURVE SMOOTH",
"789 455 OFFCURVE",
"847 495 OFFCURVE",
"846 572 CURVE SMOOTH",
"844 634 OFFCURVE",
"804 670 OFFCURVE",
"745 670 CURVE SMOOTH",
"676 670 OFFCURVE",
"638 636 OFFCURVE",
"592 553 CURVE SMOOTH"
);
}
);
width = 737;
}
);
unicode = 0056;
},
{
glyphname = W;
lastChange = "2015-09-03 16:32:11 +0000";
layers = (
{
background = {
guideLines = (
{
angle = -80.8077;
position = "{586, 648}";
}
);
paths = (
{
closed = 0;
nodes = (
"235 86 LINE",
"242 22 OFFCURVE",
"271 0 OFFCURVE",
"311 0 CURVE SMOOTH",
"351 0 OFFCURVE",
"377 25 OFFCURVE",
"413 86 CURVE SMOOTH"
);
}
);
};
guideLines = (
{
position = "{491, 337}";
}
);
layerId = "FF8CB9F1-2B98-444C-A502-96421F2531A8";
name = "Bold Italic";
paths = (
{
closed = 1;
nodes = (
"802 217 LINE",
"873 230 LINE",
"855 550 LINE SMOOTH",
"852 597 OFFCURVE",
"888 602 OFFCURVE",
"888 631 CURVE SMOOTH",
"889 652 OFFCURVE",
"873 666 OFFCURVE",
"842 666 CURVE SMOOTH",
"592 666 LINE SMOOTH",
"557 666 OFFCURVE",
"545 652 OFFCURVE",
"548 629 CURVE SMOOTH",
"548 603 OFFCURVE",
"592 599 OFFCURVE",
"598 548 CURVE SMOOTH",
"648 86 LINE SMOOTH",
"655 22 OFFCURVE",
"684 0 OFFCURVE",
"724 0 CURVE SMOOTH",
"764 0 OFFCURVE",
"790 25 OFFCURVE",
"826 86 CURVE SMOOTH",
"1069 492 LINE",
"1077 474 OFFCURVE",
"1106 454 OFFCURVE",
"1139 454 CURVE SMOOTH",
"1185 454 OFFCURVE",
"1249 495 OFFCURVE",
"1248 572 CURVE SMOOTH",
"1246 634 OFFCURVE",
"1206 670 OFFCURVE",
"1147 670 CURVE SMOOTH",
"1079 670 OFFCURVE",
"1045 643 OFFCURVE",
"1002 568 CURVE SMOOTH"
);
},
{
closed = 1;
nodes = (
"636 575 LINE",
"339 147 LINE",
"464 190 LINE",
"425 550 LINE SMOOTH",
"420 597 OFFCURVE",
"458 602 OFFCURVE",
"458 631 CURVE SMOOTH",
"459 652 OFFCURVE",
"444 666 OFFCURVE",
"413 666 CURVE SMOOTH",
"164 666 LINE SMOOTH",
"129 666 OFFCURVE",
"117 652 OFFCURVE",
"120 629 CURVE SMOOTH",
"120 603 OFFCURVE",
"162 601 OFFCURVE",
"170 548 CURVE SMOOTH",
"234 96 LINE SMOOTH",
"243 31 OFFCURVE",
"268 0 OFFCURVE",
"308 0 CURVE SMOOTH",
"345 0 OFFCURVE",
"367 18 OFFCURVE",
"414 86 CURVE SMOOTH",
"672 461 LINE"
);
}
);
width = 1146;
}
);
unicode = 0057;
},
{
glyphname = X;
lastChange = "2015-09-03 16:32:11 +0000";
layers = (
{
background = {
paths = (
{
closed = 1;
nodes = (
"480 549 LINE SMOOTH",
"455 609 OFFCURVE",
"519 608 OFFCURVE",
"507 642 CURVE SMOOTH",
"501 660 OFFCURVE",
"470 666 OFFCURVE",
"436 666 CURVE SMOOTH",
"187 666 LINE SMOOTH",
"153 666 OFFCURVE",
"140 651 OFFCURVE",
"150 628 CURVE SMOOTH",
"163 597 OFFCURVE",
"193 608 OFFCURVE",
"217 549 CURVE SMOOTH",
"393 119 LINE SMOOTH",
"417 60 OFFCURVE",
"352 59 OFFCURVE",
"365 26 CURVE SMOOTH",
"371 8 OFFCURVE",
"404 1 OFFCURVE",
"439 1 CURVE SMOOTH",
"693 1 LINE SMOOTH",
"729 1 OFFCURVE",
"744 17 OFFCURVE",
"732 40 CURVE SMOOTH",
"719 71 OFFCURVE",
"688 59 OFFCURVE",
"663 119 CURVE SMOOTH"
);
},
{
closed = 1;
nodes = (
"413 409 LINE",
"92 133 LINE SMOOTH",
"17 68 OFFCURVE",
"-46 85 OFFCURVE",
"-46 37 CURVE SMOOTH",
"-45 15 OFFCURVE",
"-21 0 OFFCURVE",
"25 0 CURVE SMOOTH",
"204 0 LINE SMOOTH",
"240 0 OFFCURVE",
"259 6 OFFCURVE",
"265 31 CURVE SMOOTH",
"275 72 OFFCURVE",
"183 68 OFFCURVE",
"262 138 CURVE SMOOTH",
"465 319 LINE"
);
},
{
closed = 1;
nodes = (
"414 258 LINE",
"757 533 LINE SMOOTH",
"836 596 OFFCURVE",
"895 581 OFFCURVE",
"894 629 CURVE SMOOTH",
"894 652 OFFCURVE",
"868 666 OFFCURVE",
"823 666 CURVE SMOOTH",
"644 666 LINE SMOOTH",
"608 666 OFFCURVE",
"588 661 OFFCURVE",
"583 636 CURVE SMOOTH",
"574 594 OFFCURVE",
"670 595 OFFCURVE",
"587 529 CURVE SMOOTH",
"362 348 LINE"
);
}
);
};
guideLines = (
{
angle = 74.0722;
position = "{375, 78}";
},
{
position = "{614, 26}";
},
{
angle = 74.0722;
position = "{284, 98}";
},
{
angle = 74.0722;
position = "{-30, 98}";
}
);
layerId = "FF8CB9F1-2B98-444C-A502-96421F2531A8";
name = "Bold Italic";
paths = (
{
closed = 1;
nodes = (
"683 0 LINE SMOOTH",
"716 0 OFFCURVE",
"730 9 OFFCURVE",
"734 26 CURVE SMOOTH",
"744 68 OFFCURVE",
"689 56 OFFCURVE",
"659 128 CURVE SMOOTH",
"493 530 LINE SMOOTH",
"461 607 OFFCURVE",
"505 593 OFFCURVE",
"515 626 CURVE SMOOTH",
"521 647 OFFCURVE",
"507 666 OFFCURVE",
"465 666 CURVE SMOOTH",
"196 666 LINE SMOOTH",
"163 666 OFFCURVE",
"149 657 OFFCURVE",
"145 640 CURVE SMOOTH",
"135 598 OFFCURVE",
"190 610 OFFCURVE",
"220 538 CURVE SMOOTH",
"386 136 LINE SMOOTH",
"418 58 OFFCURVE",
"374 73 OFFCURVE",
"364 40 CURVE SMOOTH",
"358 19 OFFCURVE",
"372 0 OFFCURVE",
"414 0 CURVE SMOOTH"
);
},
{
closed = 1;
nodes = (
"208 0 LINE SMOOTH",
"244 0 OFFCURVE",
"259 6 OFFCURVE",
"264 26 CURVE SMOOTH",
"274 63 OFFCURVE",
"190 71 OFFCURVE",
"260 136 CURVE SMOOTH",
"465 329 LINE",
"413 409 LINE",
"92 133 LINE SMOOTH",
"9 62 OFFCURVE",
"-36 79 OFFCURVE",
"-47 40 CURVE SMOOTH",
"-53 18 OFFCURVE",
"-37 0 OFFCURVE",
"-1 0 CURVE SMOOTH"
);
},
{
closed = 1;
nodes = (
"761 533 LINE SMOOTH",
"845 604 OFFCURVE",
"889 587 OFFCURVE",
"900 626 CURVE SMOOTH",
"906 648 OFFCURVE",
"890 666 OFFCURVE",
"854 666 CURVE SMOOTH",
"645 666 LINE SMOOTH",
"609 666 OFFCURVE",
"594 660 OFFCURVE",
"589 640 CURVE SMOOTH",
"579 603 OFFCURVE",
"664 595 OFFCURVE",
"593 530 CURVE SMOOTH",
"383 337 LINE",
"435 257 LINE"
);
}
);
width = 806;
},
{
associatedMasterId = "FF8CB9F1-2B98-444C-A502-96421F2531A8";
background = {
components = (
{
name = H;
}
);
};
layerId = "0E4597A1-38F7-4F1E-85E6-FD6F4AF3233C";
name = "Bold Italic Aug 14 15, 13:13";
paths = (
{
closed = 1;
nodes = (
"462 549 LINE SMOOTH",
"433 605 OFFCURVE",
"501 608 OFFCURVE",
"489 642 CURVE SMOOTH",
"483 660 OFFCURVE",
"452 666 OFFCURVE",
"418 666 CURVE SMOOTH",
"169 666 LINE SMOOTH",
"135 666 OFFCURVE",
"122 651 OFFCURVE",
"132 628 CURVE SMOOTH",
"145 597 OFFCURVE",
"171 605 OFFCURVE",
"199 549 CURVE SMOOTH",
"411 119 LINE SMOOTH",
"439 63 OFFCURVE",
"370 59 OFFCURVE",
"383 26 CURVE SMOOTH",
"389 8 OFFCURVE",
"422 1 OFFCURVE",
"457 1 CURVE SMOOTH",
"711 1 LINE SMOOTH",
"747 1 OFFCURVE",
"762 17 OFFCURVE",
"750 40 CURVE SMOOTH",
"737 71 OFFCURVE",
"710 63 OFFCURVE",
"681 119 CURVE SMOOTH"
);
},
{
closed = 1;
nodes = (
"401 409 LINE",
"80 133 LINE SMOOTH",
"5 68 OFFCURVE",
"-58 85 OFFCURVE",
"-58 37 CURVE SMOOTH",
"-57 15 OFFCURVE",
"-33 0 OFFCURVE",
"13 0 CURVE SMOOTH",
"192 0 LINE SMOOTH",
"228 0 OFFCURVE",
"247 6 OFFCURVE",
"253 31 CURVE SMOOTH",
"263 72 OFFCURVE",
"171 68 OFFCURVE",
"250 138 CURVE SMOOTH",
"453 319 LINE"
);
},
{
closed = 1;
nodes = (
"432 258 LINE",
"769 533 LINE SMOOTH",
"847 597 OFFCURVE",
"907 581 OFFCURVE",
"906 629 CURVE SMOOTH",
"906 652 OFFCURVE",
"880 666 OFFCURVE",
"835 666 CURVE SMOOTH",
"656 666 LINE SMOOTH",
"620 666 OFFCURVE",
"600 661 OFFCURVE",
"595 636 CURVE SMOOTH",
"586 594 OFFCURVE",
"681 596 OFFCURVE",
"599 529 CURVE SMOOTH",
"380 348 LINE"
);
}
);
width = 815;
}
);
unicode = 0058;
},
{
glyphname = Y;
lastChange = "2015-09-03 16:32:11 +0000";
layers = (
{
associatedMasterId = "FF8CB9F1-2B98-444C-A502-96421F2531A8";
background = {
paths = (
{
closed = 1;
nodes = (
"665 434 OFFCURVE",
"686 455 OFFCURVE",
"686 482 CURVE SMOOTH",
"686 508 OFFCURVE",
"665 529 OFFCURVE",
"639 529 CURVE SMOOTH",
"612 529 OFFCURVE",
"591 508 OFFCURVE",
"591 482 CURVE SMOOTH",
"591 455 OFFCURVE",
"612 434 OFFCURVE",
"639 434 CURVE SMOOTH"
);
},
{
closed = 1;
nodes = (
"585 331 OFFCURVE",
"606 352 OFFCURVE",
"606 379 CURVE SMOOTH",
"606 405 OFFCURVE",
"585 426 OFFCURVE",
"559 426 CURVE SMOOTH",
"532 426 OFFCURVE",
"511 405 OFFCURVE",
"511 379 CURVE SMOOTH",
"511 352 OFFCURVE",
"532 331 OFFCURVE",
"559 331 CURVE SMOOTH"
);
}
);
};
layerId = "8CC770A5-3032-46B9-A96F-F8918A9BE201";
name = "Bold Italic Aug 16 15, 15:24";
paths = (
{
closed = 1;
nodes = (
"511 352 LINE",
"457 557 LINE SMOOTH",
"446 600 OFFCURVE",
"489 608 OFFCURVE",
"489 639 CURVE SMOOTH",
"488 659 OFFCURVE",
"474 666 OFFCURVE",
"427 666 CURVE SMOOTH",
"160 666 LINE SMOOTH",
"136 666 OFFCURVE",
"123 658 OFFCURVE",
"120 645 CURVE SMOOTH",
"113 609 OFFCURVE",
"166 617 OFFCURVE",
"195 536 CURVE SMOOTH",
"294 254 LINE",
"298 312 LINE",
"241 118 LINE SMOOTH",
"224 60 OFFCURVE",
"182 68 OFFCURVE",
"174 36 CURVE SMOOTH",
"169 13 OFFCURVE",
"187 0 OFFCURVE",
"221 0 CURVE SMOOTH",
"473 0 LINE SMOOTH",
"508 0 OFFCURVE",
"529 6 OFFCURVE",
"535 25 CURVE SMOOTH",
"544 57 OFFCURVE",
"476 63 OFFCURVE",
"492 118 CURVE SMOOTH",
"542 287 LINE",
"521 251 LINE",
"724 515 LINE",
"657 513 LINE",
"681 469 OFFCURVE",
"708 453 OFFCURVE",
"751 453 CURVE SMOOTH",
"799 453 OFFCURVE",
"845 479 OFFCURVE",
"857 547 CURVE SMOOTH",
"869 617 OFFCURVE",
"824 670 OFFCURVE",
"750 670 CURVE SMOOTH",
"622 670 OFFCURVE",
"615 541 OFFCURVE",
"555 455 CURVE SMOOTH",
"482 351 LINE"
);
}
);
width = 788;
},
{
anchors = (
{
name = top;
position = "{510, 651}";
}
);
background = {
paths = (
{
closed = 1;
nodes = (
"666 434 OFFCURVE",
"687 455 OFFCURVE",
"687 482 CURVE SMOOTH",
"687 508 OFFCURVE",
"666 529 OFFCURVE",
"640 529 CURVE SMOOTH",
"613 529 OFFCURVE",
"592 508 OFFCURVE",
"592 482 CURVE SMOOTH",
"592 455 OFFCURVE",
"613 434 OFFCURVE",
"640 434 CURVE SMOOTH"
);
},
{
closed = 1;
nodes = (
"586 331 OFFCURVE",
"607 352 OFFCURVE",
"607 379 CURVE SMOOTH",
"607 405 OFFCURVE",
"586 426 OFFCURVE",
"560 426 CURVE SMOOTH",
"533 426 OFFCURVE",
"512 405 OFFCURVE",
"512 379 CURVE SMOOTH",
"512 352 OFFCURVE",
"533 331 OFFCURVE",
"560 331 CURVE SMOOTH"
);
}
);
};
layerId = "FF8CB9F1-2B98-444C-A502-96421F2531A8";
name = "Bold Italic";
paths = (
{
closed = 1;
nodes = (
"512 352 LINE",
"458 557 LINE SMOOTH",
"447 600 OFFCURVE",
"490 608 OFFCURVE",
"490 639 CURVE SMOOTH",
"489 659 OFFCURVE",
"475 666 OFFCURVE",
"428 666 CURVE SMOOTH",
"161 666 LINE SMOOTH",
"137 666 OFFCURVE",
"124 658 OFFCURVE",
"121 645 CURVE SMOOTH",
"114 609 OFFCURVE",
"167 617 OFFCURVE",
"196 536 CURVE SMOOTH",
"295 254 LINE",
"299 312 LINE",
"242 118 LINE SMOOTH",
"225 60 OFFCURVE",
"183 68 OFFCURVE",
"175 36 CURVE SMOOTH",
"170 13 OFFCURVE",
"188 0 OFFCURVE",
"222 0 CURVE SMOOTH",
"474 0 LINE SMOOTH",
"509 0 OFFCURVE",
"530 6 OFFCURVE",
"536 25 CURVE SMOOTH",
"545 57 OFFCURVE",
"477 63 OFFCURVE",
"493 118 CURVE SMOOTH",
"543 287 LINE",
"522 251 LINE",
"725 515 LINE",
"688 513 LINE",
"712 469 OFFCURVE",
"739 453 OFFCURVE",
"782 453 CURVE SMOOTH",
"830 453 OFFCURVE",
"876 479 OFFCURVE",
"888 547 CURVE SMOOTH",
"900 617 OFFCURVE",
"855 670 OFFCURVE",
"790 670 CURVE SMOOTH",
"730 670 OFFCURVE",
"685 639 OFFCURVE",
"631 562 CURVE SMOOTH",
"483 351 LINE"
);
}
);
width = 789;
visible = 1;
}
);
unicode = 0059;
},
{
glyphname = Z;
lastChange = "2015-09-03 16:32:11 +0000";
layers = (
{
anchors = (
{
name = top;
position = "{450, 651}";
}
);
background = {
paths = (
{
closed = 1;
nodes = (
"327 0 LINE",
"538 0 LINE SMOOTH",
"590 0 OFFCURVE",
"606 17 OFFCURVE",
"623 70 CURVE SMOOTH",
"651 159 LINE SMOOTH",
"662 193 OFFCURVE",
"650 214 OFFCURVE",
"612 214 CURVE SMOOTH",
"595 214 LINE SMOOTH",
"558 214 OFFCURVE",
"547 205 OFFCURVE",
"523 176 CURVE SMOOTH",
"486 132 LINE SMOOTH",
"465 107 OFFCURVE",
"453 100 OFFCURVE",
"422 100 CURVE SMOOTH",
"386 100 LINE"
);
},
{
closed = 1;
nodes = (
"459 666 LINE",
"227 666 LINE SMOOTH",
"175 666 OFFCURVE",
"161 650 OFFCURVE",
"143 596 CURVE SMOOTH",
"113 506 LINE SMOOTH",
"102 472 OFFCURVE",
"114 452 OFFCURVE",
"152 452 CURVE SMOOTH",
"169 452 LINE SMOOTH",
"205 452 OFFCURVE",
"217 460 OFFCURVE",
"241 490 CURVE SMOOTH",
"279 534 LINE SMOOTH",
"299 559 OFFCURVE",
"318 566 OFFCURVE",
"349 566 CURVE SMOOTH",
"384 566 LINE"
);
}
);
};
layerId = "FF8CB9F1-2B98-444C-A502-96421F2531A8";
name = "Bold Italic";
paths = (
{
closed = 1;
nodes = (
"254 96 LINE",
"268 68 LINE",
"730 529 LINE SMOOTH",
"796 595 OFFCURVE",
"768 666 OFFCURVE",
"694 666 CURVE SMOOTH",
"234 666 LINE SMOOTH",
"180 666 OFFCURVE",
"156 648 OFFCURVE",
"141 598 CURVE SMOOTH",
"112 497 LINE SMOOTH",
"100 454 OFFCURVE",
"128 438 OFFCURVE",
"159 438 CURVE SMOOTH",
"189 438 OFFCURVE",
"205 449 OFFCURVE",
"225 470 CURVE SMOOTH",
"285 536 LINE SMOOTH",
"308 561 OFFCURVE",
"324 570 OFFCURVE",
"350 570 CURVE SMOOTH",
"484 570 LINE",
"470 599 LINE",
"36 140 LINE SMOOTH",
"8 111 OFFCURVE",
"-5 88 OFFCURVE",
"-4 62 CURVE SMOOTH",
"-3 25 OFFCURVE",
"24 0 OFFCURVE",
"82 0 CURVE",
"530 0 LINE SMOOTH",
"584 0 OFFCURVE",
"608 18 OFFCURVE",
"623 68 CURVE SMOOTH",
"652 169 LINE SMOOTH",
"664 212 OFFCURVE",
"636 228 OFFCURVE",
"605 228 CURVE SMOOTH",
"575 228 OFFCURVE",
"559 217 OFFCURVE",
"539 196 CURVE SMOOTH",
"479 130 LINE SMOOTH",
"456 105 OFFCURVE",
"439 96 OFFCURVE",
"414 96 CURVE SMOOTH"
);
}
);
width = 711;
}
);
unicode = 005A;
},
{
glyphname = a;
lastChange = "2015-09-03 16:32:11 +0000";
layers = (
{
anchors = (
{
name = bottom;
position = "{265, 0}";
},
{
name = ogonek;
position = "{527, 10}";
},
{
name = top;
position = "{389, 500}";
}
);
background = {
paths = (
{
closed = 1;
nodes = (
"858 403 LINE SMOOTH",
"935 655 OFFCURVE",
"764 755 OFFCURVE",
"520 755 CURVE SMOOTH",
"285 755 OFFCURVE",
"193 674 OFFCURVE",
"193 588 CURVE SMOOTH",
"193 531 OFFCURVE",
"243 483 OFFCURVE",
"340 483 CURVE SMOOTH",
"468 483 OFFCURVE",
"516 580 OFFCURVE",
"488 660 CURVE",
"549 660 OFFCURVE",
"576 637 OFFCURVE",
"576 591 CURVE SMOOTH",
"576 567 OFFCURVE",
"569 536 OFFCURVE",
"555 499 CURVE SMOOTH",
"519 404 LINE",
"453 425 OFFCURVE",
"402 442 OFFCURVE",
"309 442 CURVE SMOOTH",
"154 442 OFFCURVE",
"21 360 OFFCURVE",
"21 194 CURVE SMOOTH",
"21 77 OFFCURVE",
"118 -4 OFFCURVE",
"245 -4 CURVE SMOOTH",
"335 -4 OFFCURVE",
"391 35 OFFCURVE",
"450 103 CURVE",
"475 31 OFFCURVE",
"552 -4 OFFCURVE",
"649 -4 CURVE SMOOTH",
"775 -4 OFFCURVE",
"875 88 OFFCURVE",
"875 166 CURVE SMOOTH",
"875 182 OFFCURVE",
"869 198 OFFCURVE",
"859 198 CURVE SMOOTH",
"848 198 OFFCURVE",
"840 168 OFFCURVE",
"813 168 CURVE SMOOTH",
"797 168 OFFCURVE",
"790 183 OFFCURVE",
"797 206 CURVE SMOOTH"
);
},
{
closed = 1;
nodes = (
"457 241 LINE SMOOTH",
"440 197 OFFCURVE",
"426 181 OFFCURVE",
"407 181 CURVE SMOOTH",
"336 181 OFFCURVE",
"363 330 OFFCURVE",
"458 330 CURVE SMOOTH",
"469 330 OFFCURVE",
"479 329 OFFCURVE",
"489 326 CURVE"
);
}
);
};
layerId = "FF8CB9F1-2B98-444C-A502-96421F2531A8";
name = "Bold Italic";
paths = (
{
closed = 1;
nodes = (
"191 529 OFFCURVE",
"127 472 OFFCURVE",
"128 412 CURVE SMOOTH",
"129 372 OFFCURVE",
"164 338 OFFCURVE",
"232 338 CURVE SMOOTH",
"322 338 OFFCURVE",
"354 406 OFFCURVE",
"334 462 CURVE",
"376 462 OFFCURVE",
"395 446 OFFCURVE",
"396 414 CURVE SMOOTH",
"396 397 OFFCURVE",
"391 375 OFFCURVE",
"383 349 CURVE SMOOTH",
"358 283 LINE",
"312 298 OFFCURVE",
"260 309 OFFCURVE",
"195 309 CURVE SMOOTH",
"102 309 OFFCURVE",
"20 267 OFFCURVE",
"-2 170 CURVE SMOOTH",
"-19 95 OFFCURVE",
"27 -3 OFFCURVE",
"155 -3 CURVE SMOOTH",
"218 -3 OFFCURVE",
"274 25 OFFCURVE",
"314 72 CURVE",
"333 22 OFFCURVE",
"386 -3 OFFCURVE",
"454 -3 CURVE SMOOTH",
"543 -3 OFFCURVE",
"612 62 OFFCURVE",
"611 116 CURVE SMOOTH",
"611 127 OFFCURVE",
"606 139 OFFCURVE",
"599 139 CURVE SMOOTH",
"592 139 OFFCURVE",
"586 118 OFFCURVE",
"567 118 CURVE SMOOTH",
"556 118 OFFCURVE",
"551 128 OFFCURVE",
"555 144 CURVE SMOOTH",
"596 282 LINE SMOOTH",
"647 458 OFFCURVE",
"526 529 OFFCURVE",
"355 529 CURVE SMOOTH"
);
},
{
closed = 1;
nodes = (
"307 226 OFFCURVE",
"326 225 OFFCURVE",
"337 223 CURVE",
"316 164 LINE SMOOTH",
"305 133 OFFCURVE",
"279 122 OFFCURVE",
"265 122 CURVE SMOOTH",
"241 122 OFFCURVE",
"232 147 OFFCURVE",
"238 173 CURVE SMOOTH",
"245 200 OFFCURVE",
"266 226 OFFCURVE",
"299 226 CURVE SMOOTH"
);
}
);
width = 654;
},
{
associatedMasterId = "FF8CB9F1-2B98-444C-A502-96421F2531A8";
background = {
paths = (
{
closed = 1;
nodes = (
"377 755 OFFCURVE",
"249 669 OFFCURVE",
"249 619 CURVE SMOOTH",
"249 597 OFFCURVE",
"264 586 OFFCURVE",
"291 586 CURVE SMOOTH",
"333 586 OFFCURVE",
"377 605 OFFCURVE",
"429 605 CURVE SMOOTH",
"510 605 OFFCURVE",
"538 561 OFFCURVE",
"515 499 CURVE SMOOTH",
"429 271 LINE SMOOTH",
"412 227 OFFCURVE",
"402 189 OFFCURVE",
"402 156 CURVE SMOOTH",
"402 49 OFFCURVE",
"490 -4 OFFCURVE",
"609 -4 CURVE SMOOTH",
"735 -4 OFFCURVE",
"835 88 OFFCURVE",
"835 166 CURVE SMOOTH",
"835 182 OFFCURVE",
"829 198 OFFCURVE",
"819 198 CURVE SMOOTH",
"808 198 OFFCURVE",
"800 168 OFFCURVE",
"773 168 CURVE SMOOTH",
"757 168 OFFCURVE",
"750 183 OFFCURVE",
"757 206 CURVE SMOOTH",
"837 467 LINE SMOOTH",
"895 655 OFFCURVE",
"767 755 OFFCURVE",
"567 755 CURVE SMOOTH"
);
},
{
closed = 1;
nodes = (
"445 482 OFFCURVE",
"393 502 OFFCURVE",
"292 502 CURVE SMOOTH",
"125 502 OFFCURVE",
"-19 378 OFFCURVE",
"-19 194 CURVE SMOOTH",
"-19 77 OFFCURVE",
"78 -4 OFFCURVE",
"191 -4 CURVE SMOOTH",
"291 -4 OFFCURVE",
"377 50 OFFCURVE",
"441 142 CURVE",
"418 193 LINE",
"373 175 OFFCURVE",
"331 184 OFFCURVE",
"331 259 CURVE SMOOTH",
"331 320 OFFCURVE",
"385 390 OFFCURVE",
"441 390 CURVE SMOOTH",
"456 390 OFFCURVE",
"470 388 OFFCURVE",
"486 381 CURVE",
"519 458 LINE"
);
}
);
};
layerId = "BB191146-D8CF-45BA-B624-8553F2C7C435";
name = "Bold Jun 26 15, 13:34";
paths = (
{
closed = 1;
nodes = (
"837 467 LINE SMOOTH",
"895 655 OFFCURVE",
"767 755 OFFCURVE",
"567 755 CURVE SMOOTH",
"377 755 OFFCURVE",
"249 669 OFFCURVE",
"249 619 CURVE SMOOTH",
"249 597 OFFCURVE",
"264 586 OFFCURVE",
"291 586 CURVE SMOOTH",
"333 586 OFFCURVE",
"377 605 OFFCURVE",
"429 605 CURVE SMOOTH",
"510 605 OFFCURVE",
"538 561 OFFCURVE",
"515 499 CURVE SMOOTH",
"502 464 LINE",
"436 485 OFFCURVE",
"385 502 OFFCURVE",
"292 502 CURVE SMOOTH",
"125 502 OFFCURVE",
"-19 378 OFFCURVE",
"-19 194 CURVE SMOOTH",
"-19 77 OFFCURVE",
"96 -4 OFFCURVE",
"209 -4 CURVE SMOOTH",
"295 -4 OFFCURVE",
"351 35 OFFCURVE",
"410 103 CURVE",
"435 31 OFFCURVE",
"512 -4 OFFCURVE",
"609 -4 CURVE SMOOTH",
"735 -4 OFFCURVE",
"835 88 OFFCURVE",
"835 166 CURVE SMOOTH",
"835 182 OFFCURVE",
"829 198 OFFCURVE",
"819 198 CURVE SMOOTH",
"808 198 OFFCURVE",
"800 168 OFFCURVE",
"773 168 CURVE SMOOTH",
"757 168 OFFCURVE",
"750 183 OFFCURVE",
"757 206 CURVE SMOOTH"
);
},
{
closed = 1;
nodes = (
"417 241 LINE SMOOTH",
"400 197 OFFCURVE",
"386 181 OFFCURVE",
"367 181 CURVE SMOOTH",
"296 181 OFFCURVE",
"346 390 OFFCURVE",
"441 390 CURVE SMOOTH",
"452 390 OFFCURVE",
"462 389 OFFCURVE",
"472 386 CURVE"
);
}
);
width = 901;
}
);
unicode = 0061;
},
{
glyphname = b;
lastChange = "2015-09-03 16:32:11 +0000";
layers = (
{
background = {
paths = (
{
closed = 1;
nodes = (
"657 755 OFFCURVE",
"545 711 OFFCURVE",
"442 505 CURVE",
"455 435 LINE",
"483 517 OFFCURVE",
"528 542 OFFCURVE",
"558 542 CURVE SMOOTH",
"587 542 OFFCURVE",
"610 519 OFFCURVE",
"591 472 CURVE SMOOTH",
"509 266 LINE SMOOTH",
"492 222 OFFCURVE",
"482 180 OFFCURVE",
"482 147 CURVE SMOOTH",
"482 50 OFFCURVE",
"560 -13 OFFCURVE",
"686 -13 CURVE SMOOTH",
"847 -13 OFFCURVE",
"932 79 OFFCURVE",
"932 157 CURVE SMOOTH",
"932 173 OFFCURVE",
"926 189 OFFCURVE",
"916 189 CURVE SMOOTH",
"905 189 OFFCURVE",
"897 159 OFFCURVE",
"870 159 CURVE SMOOTH",
"854 159 OFFCURVE",
"846 174 OFFCURVE",
"854 197 CURVE SMOOTH",
"947 479 LINE SMOOTH",
"999 635 OFFCURVE",
"917 755 OFFCURVE",
"771 755 CURVE SMOOTH"
);
},
{
closed = 1;
nodes = (
"533 675 OFFCURVE",
"470 755 OFFCURVE",
"354 755 CURVE SMOOTH",
"240 755 OFFCURVE",
"105 718 OFFCURVE",
"93 673 CURVE SMOOTH",
"80 626 OFFCURVE",
"159 633 OFFCURVE",
"137 564 CURVE SMOOTH",
"3 152 LINE SMOOTH",
"-25 65 OFFCURVE",
"-75 85 OFFCURVE",
"-88 44 CURVE SMOOTH",
"-96 19 OFFCURVE",
"-75 0 OFFCURVE",
"-24 0 CURVE SMOOTH",
"302 0 LINE SMOOTH",
"363 0 OFFCURVE",
"388 11 OFFCURVE",
"396 35 CURVE SMOOTH",
"408 73 OFFCURVE",
"335 68 OFFCURVE",
"361 148 CURVE SMOOTH",
"489 540 LINE SMOOTH"
);
}
);
};
guideLines = (
{
position = "{241, 375}";
showMeasurement = 1;
}
);
layerId = "FF8CB9F1-2B98-444C-A502-96421F2531A8";
name = "Bold Italic";
paths = (
{
closed = 1;
nodes = (
"421 533 OFFCURVE",
"361 487 OFFCURVE",
"312 407 CURVE",
"337 384 LINE",
"351 405 OFFCURVE",
"370 414 OFFCURVE",
"385 414 CURVE SMOOTH",
"410 414 OFFCURVE",
"428 384 OFFCURVE",
"392 258 CURVE SMOOTH",
"354 121 OFFCURVE",
"326 92 OFFCURVE",
"297 92 CURVE SMOOTH",
"272 92 OFFCURVE",
"254 110 OFFCURVE",
"269 158 CURVE",
"181 113 LINE",
"206 39 OFFCURVE",
"267 -9 OFFCURVE",
"369 -9 CURVE SMOOTH",
"497 -9 OFFCURVE",
"612 73 OFFCURVE",
"657 252 CURVE SMOOTH",
"697 414 OFFCURVE",
"627 533 OFFCURVE",
"505 533 CURVE SMOOTH"
);
},
{
closed = 1;
nodes = (
"403 592 LINE SMOOTH",
"423 659 OFFCURVE",
"401 717 OFFCURVE",
"297 717 CURVE SMOOTH",
"217 717 OFFCURVE",
"124 691 OFFCURVE",
"115 659 CURVE SMOOTH",
"107 627 OFFCURVE",
"163 631 OFFCURVE",
"148 583 CURVE SMOOTH",
"-12 62 LINE SMOOTH",
"-23 23 OFFCURVE",
"-4 0 OFFCURVE",
"37 0 CURVE SMOOTH",
"81 0 LINE SMOOTH",
"118 0 OFFCURVE",
"142 13 OFFCURVE",
"168 35 CURVE SMOOTH",
"231 89 LINE SMOOTH",
"240 97 OFFCURVE",
"258 120 OFFCURVE",
"275 177 CURVE SMOOTH"
);
}
);
width = 662;
}
);
unicode = 0062;
},
{
glyphname = c;
lastChange = "2015-09-03 16:32:11 +0000";
layers = (
{
anchors = (
{
name = top;
position = "{359, 500}";
}
);
background = {
paths = (
{
closed = 1;
nodes = (
"67 443 CURVE SMOOTH",
"-11 156 OFFCURVE",
"135 -4 OFFCURVE",
"369 -4 CURVE SMOOTH",
"555 -4 OFFCURVE",
"710 102 OFFCURVE",
"719 233 CURVE SMOOTH",
"720 247 OFFCURVE",
"715 252 OFFCURVE",
"704 252 CURVE SMOOTH",
"674 252 OFFCURVE",
"649 203 OFFCURVE",
"517 203 CURVE SMOOTH",
"440 203 OFFCURVE",
"355 277 OFFCURVE",
"406 421 CURVE SMOOTH",
"439 514 OFFCURVE",
"514 573 OFFCURVE",
"588 573 CURVE SMOOTH",
"691 573 OFFCURVE",
"728 507 OFFCURVE",
"758 507 CURVE SMOOTH",
"769 507 OFFCURVE",
"775 512 OFFCURVE",
"778 526 CURVE SMOOTH",
"803 657 OFFCURVE",
"676 763 OFFCURVE",
"490 763 CURVE SMOOTH",
"280 763 OFFCURVE",
"124 652 OFFCURVE"
);
}
);
};
layerId = "FF8CB9F1-2B98-444C-A502-96421F2531A8";
name = "Bold Italic";
paths = (
{
closed = 1;
nodes = (
"215 534 OFFCURVE",
"74 456 OFFCURVE",
"36 284 CURVE SMOOTH",
"-3 109 OFFCURVE",
"104 -3 OFFCURVE",
"272 -3 CURVE SMOOTH",
"417 -3 OFFCURVE",
"515 98 OFFCURVE",
"514 170 CURVE SMOOTH",
"514 180 OFFCURVE",
"512 183 OFFCURVE",
"504 183 CURVE SMOOTH",
"483 183 OFFCURVE",
"446 149 OFFCURVE",
"373 149 CURVE SMOOTH",
"283 149 OFFCURVE",
"239 204 OFFCURVE",
"263 313 CURVE SMOOTH",
"279 388 OFFCURVE",
"329 428 OFFCURVE",
"381 442 CURVE",
"359 363 OFFCURVE",
"397 309 OFFCURVE",
"477 309 CURVE SMOOTH",
"542 309 OFFCURVE",
"580 350 OFFCURVE",
"579 403 CURVE SMOOTH",
"578 477 OFFCURVE",
"498 534 OFFCURVE",
"375 534 CURVE SMOOTH"
);
}
);
width = 550;
}
);
leftKerningGroup = o;
unicode = 0063;
},
{
glyphname = d;
lastChange = "2015-09-03 16:32:11 +0000";
layers = (
{
background = {
paths = (
{
closed = 1;
nodes = (
"1027 830 LINE SMOOTH",
"1063 949 OFFCURVE",
"973 1052 OFFCURVE",
"805 1052 CURVE SMOOTH",
"740 1052 OFFCURVE",
"708 1037 OFFCURVE",
"708 1018 CURVE SMOOTH",
"708 995 OFFCURVE",
"736 976 OFFCURVE",
"719 923 CURVE SMOOTH",
"648 704 LINE",
"604 740 OFFCURVE",
"547 762 OFFCURVE",
"464 762 CURVE SMOOTH",
"239 762 OFFCURVE",
"57 530 OFFCURVE",
"57 250 CURVE SMOOTH",
"57 86 OFFCURVE",
"181 -4 OFFCURVE",
"295 -4 CURVE SMOOTH",
"381 -4 OFFCURVE",
"437 27 OFFCURVE",
"491 94 CURVE",
"515 36 OFFCURVE",
"591 -4 OFFCURVE",
"687 -4 CURVE SMOOTH",
"813 -4 OFFCURVE",
"913 88 OFFCURVE",
"913 166 CURVE SMOOTH",
"913 182 OFFCURVE",
"907 198 OFFCURVE",
"897 198 CURVE SMOOTH",
"886 198 OFFCURVE",
"878 168 OFFCURVE",
"851 168 CURVE SMOOTH",
"835 168 OFFCURVE",
"828 183 OFFCURVE",
"835 206 CURVE SMOOTH"
);
},
{
closed = 1;
nodes = (
"499 246 LINE SMOOTH",
"484 200 OFFCURVE",
"467 182 OFFCURVE",
"441 182 CURVE SMOOTH",
"406 182 OFFCURVE",
"381 208 OFFCURVE",
"381 260 CURVE SMOOTH",
"381 399 OFFCURVE",
"473 627 OFFCURVE",
"561 627 CURVE SMOOTH",
"584 627 OFFCURVE",
"601 618 OFFCURVE",
"615 604 CURVE"
);
}
);
};
layerId = "FF8CB9F1-2B98-444C-A502-96421F2531A8";
name = "Bold Italic";
paths = (
{
closed = 1;
nodes = (
"719 594 LINE SMOOTH",
"739 663 OFFCURVE",
"717 719 OFFCURVE",
"613 719 CURVE SMOOTH",
"533 719 OFFCURVE",
"439 693 OFFCURVE",
"431 662 CURVE SMOOTH",
"423 629 OFFCURVE",
"478 634 OFFCURVE",
"464 585 CURVE SMOOTH",
"436 493 LINE",
"405 518 OFFCURVE",
"367 533 OFFCURVE",
"307 533 CURVE SMOOTH",
"142 533 OFFCURVE",
"32 357 OFFCURVE",
"35 175 CURVE SMOOTH",
"37 67 OFFCURVE",
"118 -3 OFFCURVE",
"207 -3 CURVE SMOOTH",
"258 -3 OFFCURVE",
"306 19 OFFCURVE",
"343 66 CURVE",
"361 25 OFFCURVE",
"414 -3 OFFCURVE",
"481 -3 CURVE SMOOTH",
"569 -3 OFFCURVE",
"638 62 OFFCURVE",
"637 116 CURVE SMOOTH",
"637 127 OFFCURVE",
"633 139 OFFCURVE",
"626 139 CURVE SMOOTH",
"618 139 OFFCURVE",
"613 118 OFFCURVE",
"594 118 CURVE SMOOTH",
"583 118 OFFCURVE",
"578 128 OFFCURVE",
"582 144 CURVE SMOOTH"
);
},
{
closed = 1;
nodes = (
"337 172 LINE SMOOTH",
"328 140 OFFCURVE",
"316 127 OFFCURVE",
"298 127 CURVE SMOOTH",
"273 127 OFFCURVE",
"262 146 OFFCURVE",
"262 182 CURVE SMOOTH",
"260 279 OFFCURVE",
"321 439 OFFCURVE",
"383 439 CURVE SMOOTH",
"399 439 OFFCURVE",
"404 433 OFFCURVE",
"414 423 CURVE"
);
}
);
width = 680;
},
{
associatedMasterId = "FF8CB9F1-2B98-444C-A502-96421F2531A8";
background = {
paths = (
{
closed = 1;
nodes = (
"979 830 LINE SMOOTH",
"1015 949 OFFCURVE",
"925 1052 OFFCURVE",
"757 1052 CURVE SMOOTH",
"692 1052 OFFCURVE",
"660 1037 OFFCURVE",
"660 1018 CURVE SMOOTH",
"660 995 OFFCURVE",
"688 976 OFFCURVE",
"671 923 CURVE SMOOTH",
"599.867 704.233 LINE",
"556 740 OFFCURVE",
"499 762 OFFCURVE",
"416 762 CURVE SMOOTH",
"191 762 OFFCURVE",
"9 530 OFFCURVE",
"9 250 CURVE SMOOTH",
"9 86 OFFCURVE",
"133 -4 OFFCURVE",
"247 -4 CURVE SMOOTH",
"333 -4 OFFCURVE",
"389 27 OFFCURVE",
"443 94 CURVE",
"467 36 OFFCURVE",
"542.973 -4 OFFCURVE",
"639 -4 CURVE SMOOTH",
"765 -4 OFFCURVE",
"865 88 OFFCURVE",
"865 166 CURVE SMOOTH",
"865 182 OFFCURVE",
"859 198 OFFCURVE",
"849 198 CURVE SMOOTH",
"838 198 OFFCURVE",
"830 168 OFFCURVE",
"803 168 CURVE SMOOTH",
"787 168 OFFCURVE",
"780 183 OFFCURVE",
"787 206 CURVE SMOOTH"
);
},
{
closed = 1;
nodes = (
"451 246 LINE SMOOTH",
"436 200 OFFCURVE",
"419 182 OFFCURVE",
"393 182 CURVE SMOOTH",
"358 182 OFFCURVE",
"333 208 OFFCURVE",
"333 260 CURVE SMOOTH",
"333 399 OFFCURVE",
"425 627 OFFCURVE",
"513 627 CURVE SMOOTH",
"536 627 OFFCURVE",
"553 618 OFFCURVE",
"567 604 CURVE"
);
}
);
};
layerId = "8E0D416A-7E92-4A18-8E7E-F46A9615C67B";
name = "Bold Italic Jul 27 15, 14:59";
paths = (
{
closed = 1;
nodes = (
"692 1052 OFFCURVE",
"660 1037 OFFCURVE",
"660 1018 CURVE SMOOTH",
"660 995 OFFCURVE",
"688 976 OFFCURVE",
"671 923 CURVE SMOOTH",
"599.867 704.233 LINE",
"556 740 OFFCURVE",
"502 762 OFFCURVE",
"416 762 CURVE SMOOTH",
"181 762 OFFCURVE",
"19 510 OFFCURVE",
"19 250 CURVE SMOOTH",
"19 96 OFFCURVE",
"133 -4 OFFCURVE",
"260 -4 CURVE SMOOTH",
"333 -4 OFFCURVE",
"389 27 OFFCURVE",
"443 94 CURVE",
"467 36 OFFCURVE",
"542.973 -4 OFFCURVE",
"639 -4 CURVE SMOOTH",
"765 -4 OFFCURVE",
"865 88 OFFCURVE",
"865 166 CURVE SMOOTH",
"865 182 OFFCURVE",
"859 198 OFFCURVE",
"849 198 CURVE SMOOTH",
"838 198 OFFCURVE",
"830 168 OFFCURVE",
"803 168 CURVE SMOOTH",
"787 168 OFFCURVE",
"780 183 OFFCURVE",
"787 206 CURVE SMOOTH",
"979 830 LINE SMOOTH",
"1015 949 OFFCURVE",
"925 1052 OFFCURVE",
"757 1052 CURVE SMOOTH"
);
},
{
closed = 1;
nodes = (
"546 627 OFFCURVE",
"553 618 OFFCURVE",
"567 604 CURVE",
"451 246 LINE SMOOTH",
"436 200 OFFCURVE",
"419 182 OFFCURVE",
"393 182 CURVE SMOOTH",
"358 182 OFFCURVE",
"343 208 OFFCURVE",
"343 260 CURVE SMOOTH",
"343 399 OFFCURVE",
"435 627 OFFCURVE",
"523 627 CURVE SMOOTH"
);
}
);
width = 933;
}
);
leftKerningGroup = o;
unicode = 0064;
},
{
glyphname = e;
lastChange = "2015-09-03 16:32:11 +0000";
layers = (
{
anchors = (
{
name = top;
position = "{339, 500}";
}
);
background = {
paths = (
{
closed = 1;
nodes = (
"228 763 OFFCURVE",
"98 594 OFFCURVE",
"57 409 CURVE SMOOTH",
"-6 130 OFFCURVE",
"169 -4 OFFCURVE",
"403 -4 CURVE SMOOTH",
"589 -4 OFFCURVE",
"739 122 OFFCURVE",
"739 233 CURVE SMOOTH",
"739 247 OFFCURVE",
"734 252 OFFCURVE",
"723 252 CURVE SMOOTH",
"693 252 OFFCURVE",
"630 186 OFFCURVE",
"498 186 CURVE SMOOTH",
"404 186 OFFCURVE",
"350 201 OFFCURVE",
"368 339 CURVE SMOOTH",
"397 559 OFFCURVE",
"467 645 OFFCURVE",
"494 645 CURVE SMOOTH",
"512 645 OFFCURVE",
"520 635 OFFCURVE",
"520 612 CURVE SMOOTH",
"520 538 OFFCURVE",
"491 441 OFFCURVE",
"441 438 CURVE SMOOTH",
"424 438 OFFCURVE",
"402 441 OFFCURVE",
"376 446 CURVE",
"354 363 LINE",
"434 349 OFFCURVE",
"525 345 OFFCURVE",
"585 348 CURVE SMOOTH",
"775 357 OFFCURVE",
"860 445 OFFCURVE",
"854 572 CURVE SMOOTH",
"849 676 OFFCURVE",
"757 763 OFFCURVE",
"513 763 CURVE SMOOTH"
);
}
);
};
layerId = "FF8CB9F1-2B98-444C-A502-96421F2531A8";
name = "Bold Italic";
paths = (
{
closed = 1;
nodes = (
"190 534 OFFCURVE",
"64 455 OFFCURVE",
"30 286 CURVE SMOOTH",
"-10 91 OFFCURVE",
"113 -3 OFFCURVE",
"275 -3 CURVE SMOOTH",
"435 -3 OFFCURVE",
"510 99 OFFCURVE",
"509 163 CURVE SMOOTH",
"509 173 OFFCURVE",
"505 176 OFFCURVE",
"498 176 CURVE SMOOTH",
"477 176 OFFCURVE",
"417 144 OFFCURVE",
"358 144 CURVE SMOOTH",
"289 144 OFFCURVE",
"237 169 OFFCURVE",
"251 267 CURVE SMOOTH",
"270 391 OFFCURVE",
"314 451 OFFCURVE",
"336 451 CURVE SMOOTH",
"345 451 OFFCURVE",
"351 442 OFFCURVE",
"352 423 CURVE SMOOTH",
"353 362 OFFCURVE",
"323 287 OFFCURVE",
"253 298 CURVE",
"238 240 LINE",
"355 220 OFFCURVE",
"553 228 OFFCURVE",
"582 355 CURVE SMOOTH",
"601 440 OFFCURVE",
"557 534 OFFCURVE",
"345 534 CURVE SMOOTH"
);
}
);
width = 568;
},
{
associatedMasterId = "FF8CB9F1-2B98-444C-A502-96421F2531A8";
background = {
paths = (
{
closed = 1;
nodes = (
"230 753 OFFCURVE",
"9 554 OFFCURVE",
"9 267 CURVE SMOOTH",
"9 104 OFFCURVE",
"127 -4 OFFCURVE",
"347 -4 CURVE SMOOTH",
"552 -4 OFFCURVE",
"687 103 OFFCURVE",
"687 187 CURVE SMOOTH",
"687 215 OFFCURVE",
"675 267 OFFCURVE",
"670 267 CURVE SMOOTH",
"652 267 OFFCURVE",
"603 218 OFFCURVE",
"522 218 CURVE SMOOTH",
"408 218 OFFCURVE",
"333 221 OFFCURVE",
"333 339 CURVE SMOOTH",
"333 558 OFFCURVE",
"396 635 OFFCURVE",
"434 635 CURVE SMOOTH",
"450 635 OFFCURVE",
"466 626 OFFCURVE",
"466 588 CURVE SMOOTH",
"466 518 OFFCURVE",
"412 455 OFFCURVE",
"314 463 CURVE",
"258 378 LINE",
"593 320 OFFCURVE",
"782 403 OFFCURVE",
"782 562 CURVE SMOOTH",
"782 671 OFFCURVE",
"677 753 OFFCURVE",
"481 753 CURVE SMOOTH"
);
}
);
};
backgroundImage = {
crop = "{{304.54500000000002, 0}, {79.363600000000005, 121}}";
imagePath = shrikhand/Gujarati/Reference/shrikhand_latin_1024.png;
locked = "1";
transform = "{11, 0, 0, 11, -3350, -166}";
};
layerId = "69D1F1FE-9577-4A4E-89A7-7FFA67E84DAE";
name = "Bold Italic Jul 3 15, 14:15";
paths = (
{
closed = 1;
nodes = (
"289 753 OFFCURVE",
"37 554 OFFCURVE",
"0 316 CURVE SMOOTH",
"-33 104 OFFCURVE",
"129 -4 OFFCURVE",
"288 -4 CURVE SMOOTH",
"492 -4 OFFCURVE",
"644 103 OFFCURVE",
"658 187 CURVE SMOOTH",
"662 215 OFFCURVE",
"658 267 OFFCURVE",
"653 267 CURVE SMOOTH",
"635 267 OFFCURVE",
"578 218 OFFCURVE",
"497 218 CURVE SMOOTH",
"383 218 OFFCURVE",
"309 221 OFFCURVE",
"327 339 CURVE SMOOTH",
"362 558 OFFCURVE",
"437 635 OFFCURVE",
"475 635 CURVE SMOOTH",
"491 635 OFFCURVE",
"506 626 OFFCURVE",
"500 588 CURVE SMOOTH",
"489 518 OFFCURVE",
"425 455 OFFCURVE",
"328 463 CURVE",
"259 378 LINE",
"584 320 OFFCURVE",
"786 403 OFFCURVE",
"811 562 CURVE SMOOTH",
"829 671 OFFCURVE",
"736 753 OFFCURVE",
"540 753 CURVE SMOOTH"
);
}
);
width = 786;
},
{
associatedMasterId = "FF8CB9F1-2B98-444C-A502-96421F2531A8";
background = {
paths = (
{
closed = 1;
nodes = (
"187 753 OFFCURVE",
"37 554 OFFCURVE",
"0 316 CURVE SMOOTH",
"-33 104 OFFCURVE",
"95 -4 OFFCURVE",
"364 -4 CURVE SMOOTH",
"548 -4 OFFCURVE",
"684 71 OFFCURVE",
"698 155 CURVE SMOOTH",
"702 183 OFFCURVE",
"698 235 OFFCURVE",
"693 235 CURVE SMOOTH",
"675 235 OFFCURVE",
"558 186 OFFCURVE",
"477 186 CURVE SMOOTH",
"363 186 OFFCURVE",
"309 201 OFFCURVE",
"327 339 CURVE SMOOTH",
"356 559 OFFCURVE",
"447 635 OFFCURVE",
"485 635 CURVE SMOOTH",
"501 635 OFFCURVE",
"506 580 OFFCURVE",
"500 542 CURVE SMOOTH",
"489 472 OFFCURVE",
"461 406 OFFCURVE",
"328 428 CURVE",
"302 346 LINE",
"638 286 OFFCURVE",
"785 366 OFFCURVE",
"811 532 CURVE SMOOTH",
"828 641 OFFCURVE",
"764 753 OFFCURVE",
"472 753 CURVE SMOOTH"
);
}
);
};
backgroundImage = {
crop = "{{304.54500000000002, 0}, {79.363600000000005, 121}}";
imagePath = shrikhand/Gujarati/Reference/shrikhand_latin_1024.png;
locked = "1";
transform = "{11, 0, 0, 11, -3350, -166}";
};
layerId = "DC5809BD-908E-4ACF-BD38-F1A089FAC586";
name = lipi;
paths = (
{
closed = 1;
nodes = (
"177 753 OFFCURVE",
"2 512 OFFCURVE",
"2 289 CURVE SMOOTH",
"2 123 OFFCURVE",
"117 -4 OFFCURVE",
"350 -4 CURVE SMOOTH",
"591 -4 OFFCURVE",
"709 118 OFFCURVE",
"692 250 CURVE",
"634 211 OFFCURVE",
"567 190 OFFCURVE",
"505 190 CURVE SMOOTH",
"408 190 OFFCURVE",
"327 242 OFFCURVE",
"327 352 CURVE SMOOTH",
"327 473 OFFCURVE",
"420 631 OFFCURVE",
"470 631 CURVE SMOOTH",
"492 631 OFFCURVE",
"502 597 OFFCURVE",
"502 552 CURVE SMOOTH",
"502 476 OFFCURVE",
"461 425 OFFCURVE",
"368 425 CURVE SMOOTH",
"356 425 OFFCURVE",
"342 426 OFFCURVE",
"328 428 CURVE",
"302 346 LINE",
"512 254 OFFCURVE",
"768 345 OFFCURVE",
"768 532 CURVE SMOOTH",
"768 674 OFFCURVE",
"682 753 OFFCURVE",
"482 753 CURVE SMOOTH"
);
},
{
closed = 0;
nodes = (
"327 352 LINE SMOOTH"
);
}
);
width = 786;
}
);
leftMetricsKey = o;
unicode = 0065;
},
{
glyphname = f;
lastChange = "2015-09-03 16:32:11 +0000";
layers = (
{
background = {
paths = (
{
closed = 1;
nodes = (
"280 444 OFFCURVE",
"294 428 OFFCURVE",
"326 428 CURVE SMOOTH",
"434 428 LINE SMOOTH",
"486 428 OFFCURVE",
"506 444 OFFCURVE",
"514 472 CURVE SMOOTH",
"521 500 OFFCURVE",
"512 516 OFFCURVE",
"481 516 CURVE SMOOTH",
"348 516 LINE SMOOTH",
"317 516 OFFCURVE",
"295 500 OFFCURVE",
"288 472 CURVE SMOOTH"
);
},
{
closed = 1;
nodes = (
"6 46 OFFCURVE",
"-29 59 OFFCURVE",
"-38 31 CURVE SMOOTH",
"-43 13 OFFCURVE",
"-28 0 OFFCURVE",
"8 0 CURVE SMOOTH",
"236 0 LINE SMOOTH",
"279 0 OFFCURVE",
"296 8 OFFCURVE",
"302 25 CURVE SMOOTH",
"309 51 OFFCURVE",
"258 47 OFFCURVE",
"275 104 CURVE SMOOTH",
"431 617 LINE SMOOTH",
"452 687 OFFCURVE",
"542 629 OFFCURVE",
"547 656 CURVE SMOOTH",
"551 683 OFFCURVE",
"515 752 OFFCURVE",
"396 752 CURVE SMOOTH",
"277 752 OFFCURVE",
"212 711 OFFCURVE",
"180 610 CURVE SMOOTH",
"150 516 LINE",
"118 516 LINE SMOOTH",
"61 516 OFFCURVE",
"48 505 OFFCURVE",
"49 481 CURVE SMOOTH",
"49 445 OFFCURVE",
"128 445 OFFCURVE",
"103 362 CURVE SMOOTH",
"25 106 LINE SMOOTH"
);
}
);
};
layerId = "FF8CB9F1-2B98-444C-A502-96421F2531A8";
name = "Bold Italic";
paths = (
{
closed = 1;
nodes = (
"280 444 OFFCURVE",
"294 428 OFFCURVE",
"326 428 CURVE SMOOTH",
"434 428 LINE SMOOTH",
"486 428 OFFCURVE",
"506 444 OFFCURVE",
"514 472 CURVE SMOOTH",
"521 500 OFFCURVE",
"505 516 OFFCURVE",
"464 516 CURVE SMOOTH",
"348 516 LINE SMOOTH",
"317 516 OFFCURVE",
"295 500 OFFCURVE",
"288 472 CURVE SMOOTH"
);
},
{
closed = 1;
nodes = (
"6 46 OFFCURVE",
"-29 59 OFFCURVE",
"-38 31 CURVE SMOOTH",
"-43 13 OFFCURVE",
"-28 0 OFFCURVE",
"8 0 CURVE SMOOTH",
"236 0 LINE SMOOTH",
"279 0 OFFCURVE",
"296 8 OFFCURVE",
"302 25 CURVE SMOOTH",
"309 51 OFFCURVE",
"258 47 OFFCURVE",
"275 104 CURVE SMOOTH",
"415 564 LINE SMOOTH",
"441 651 OFFCURVE",
"532 596 OFFCURVE",
"537 623 CURVE SMOOTH",
"541 650 OFFCURVE",
"505 719 OFFCURVE",
"386 719 CURVE SMOOTH",
"277 719 OFFCURVE",
"200 670 OFFCURVE",
"167 568 CURVE SMOOTH",
"150 516 LINE",
"118 516 LINE SMOOTH",
"61 516 OFFCURVE",
"48 505 OFFCURVE",
"49 481 CURVE SMOOTH",
"49 445 OFFCURVE",
"128 445 OFFCURVE",
"103 362 CURVE SMOOTH",
"25 106 LINE SMOOTH"
);
}
);
width = 459;
}
);
unicode = 0066;
},
{
glyphname = g;
lastChange = "2015-09-03 16:32:11 +0000";
layers = (
{
anchors = (
{
name = top;
position = "{269, 507}";
}
);
background = {
paths = (
{
closed = 1;
nodes = (
"-35 184 OFFCURVE",
"7 -20 OFFCURVE",
"243 -20 CURVE SMOOTH",
"398 -20 LINE SMOOTH",
"468 -20 OFFCURVE",
"479 -21 OFFCURVE",
"463 -68 CURVE SMOOTH",
"446 -118 OFFCURVE",
"363 -140 OFFCURVE",
"292 -140 CURVE SMOOTH",
"230 -140 OFFCURVE",
"187 -120 OFFCURVE",
"187 -64 CURVE SMOOTH",
"187 -13 OFFCURVE",
"272 21 OFFCURVE",
"274 26 CURVE",
"106 86 LINE",
"-33 62 OFFCURVE",
"-98 35 OFFCURVE",
"-117 -56 CURVE SMOOTH",
"-151 -217 OFFCURVE",
"37 -285 OFFCURVE",
"302 -285 CURVE SMOOTH",
"662 -285 OFFCURVE",
"820 -172 OFFCURVE",
"820 -32 CURVE SMOOTH",
"820 58 OFFCURVE",
"744 124 OFFCURVE",
"564 124 CURVE SMOOTH",
"443 124 LINE SMOOTH",
"347 124 OFFCURVE",
"275 110 OFFCURVE",
"341 244 CURVE",
"211 290 LINE"
);
},
{
closed = 1;
nodes = (
"555 641 OFFCURVE",
"586 582 OFFCURVE",
"543 455 CURVE SMOOTH",
"502 339 OFFCURVE",
"467 319 OFFCURVE",
"432 321 CURVE SMOOTH",
"396 321 OFFCURVE",
"366 334 OFFCURVE",
"409 461 CURVE SMOOTH",
"449 576 OFFCURVE",
"485 641 OFFCURVE",
"519 641 CURVE SMOOTH"
);
},
{
closed = 1;
nodes = (
"223 761 OFFCURVE",
"30 576 OFFCURVE",
"71 379 CURVE SMOOTH",
"94 271 OFFCURVE",
"216 202 OFFCURVE",
"460 202 CURVE SMOOTH",
"740 202 OFFCURVE",
"933 387 OFFCURVE",
"891 584 CURVE SMOOTH",
"868 692 OFFCURVE",
"747 761 OFFCURVE",
"503 761 CURVE SMOOTH"
);
},
{
closed = 1;
nodes = (
"766 989 OFFCURVE",
"726 918 OFFCURVE",
"726 854 CURVE SMOOTH",
"726 796 OFFCURVE",
"759 717 OFFCURVE",
"812 668 CURVE",
"877 622 LINE",
"851 671 OFFCURVE",
"834 748 OFFCURVE",
"849 781 CURVE",
"872 770 OFFCURVE",
"892 760 OFFCURVE",
"940 760 CURVE SMOOTH",
"1015 760 OFFCURVE",
"1056 788 OFFCURVE",
"1056 844 CURVE SMOOTH",
"1056 924 OFFCURVE",
"962 989 OFFCURVE",
"870 989 CURVE SMOOTH"
);
}
);
};
guideLines = (
{
position = "{476, 481}";
},
{
angle = 72.1703;
position = "{504, 752}";
},
{
angle = 72.1703;
position = "{445, 152}";
},
{
angle = 252.072;
position = "{484, 482}";
},
{
angle = 72.1703;
position = "{246, 752}";
},
{
angle = 72.1703;
position = "{136, 752}";
},
{
angle = 72.1703;
position = "{1076, 752}";
},
{
angle = 72.1703;
position = "{727, 752}";
}
);
layerId = "FF8CB9F1-2B98-444C-A502-96421F2531A8";
name = "Bold Italic";
paths = (
{
closed = 1;
nodes = (
"77 174 OFFCURVE",
"44 134 OFFCURVE",
"34 103 CURVE SMOOTH",
"16 39 OFFCURVE",
"70 -14 OFFCURVE",
"195 -14 CURVE SMOOTH",
"291 -14 LINE SMOOTH",
"320 -14 OFFCURVE",
"331 -31 OFFCURVE",
"323 -53 CURVE SMOOTH",
"313 -83 OFFCURVE",
"268 -98 OFFCURVE",
"213 -98 CURVE SMOOTH",
"159 -98 OFFCURVE",
"133 -84 OFFCURVE",
"132 -51 CURVE SMOOTH",
"131 -18 OFFCURVE",
"148 4 OFFCURVE",
"192 18 CURVE",
"111 27 LINE",
"-41 27 OFFCURVE",
"-77 -8 OFFCURVE",
"-89 -47 CURVE SMOOTH",
"-113 -127 OFFCURVE",
"-17 -200 OFFCURVE",
"208 -200 CURVE SMOOTH",
"439 -200 OFFCURVE",
"547 -125 OFFCURVE",
"569 -52 CURVE SMOOTH",
"595 36 OFFCURVE",
"532 87 OFFCURVE",
"412 87 CURVE SMOOTH",
"262 87 LINE SMOOTH",
"215 87 OFFCURVE",
"207 107 OFFCURVE",
"211 124 CURVE SMOOTH",
"214 138 OFFCURVE",
"222 149 OFFCURVE",
"238 158 CURVE",
"173 190 LINE"
);
},
{
closed = 1;
nodes = (
"412 449 OFFCURVE",
"420 423 OFFCURVE",
"394 337 CURVE SMOOTH",
"368 252 OFFCURVE",
"344 225 OFFCURVE",
"312 225 CURVE SMOOTH",
"281 225 OFFCURVE",
"275 251 OFFCURVE",
"300 337 CURVE SMOOTH",
"326 424 OFFCURVE",
"349 449 OFFCURVE",
"381 449 CURVE SMOOTH"
);
},
{
closed = 1;
nodes = (
"200 533 OFFCURVE",
"83 449 OFFCURVE",
"59 346 CURVE SMOOTH",
"30 219 OFFCURVE",
"114 141 OFFCURVE",
"334 141 CURVE SMOOTH",
"491 141 OFFCURVE",
"606 224 OFFCURVE",
"630 328 CURVE SMOOTH",
"658 453 OFFCURVE",
"577 533 OFFCURVE",
"357 533 CURVE SMOOTH"
);
},
{
closed = 1;
nodes = (
"538 692 OFFCURVE",
"511 643 OFFCURVE",
"512 598 CURVE SMOOTH",
"512 557 OFFCURVE",
"536 502 OFFCURVE",
"574 468 CURVE",
"620 435 LINE",
"602 470 OFFCURVE",
"589 524 OFFCURVE",
"598 547 CURVE",
"615 539 OFFCURVE",
"629 532 OFFCURVE",
"663 532 CURVE SMOOTH",
"716 532 OFFCURVE",
"743 552 OFFCURVE",
"743 591 CURVE SMOOTH",
"742 647 OFFCURVE",
"675 692 OFFCURVE",
"611 692 CURVE SMOOTH"
);
}
);
width = 630;
}
);
unicode = 0067;
},
{
glyphname = h;
lastChange = "2015-09-03 16:32:11 +0000";
layers = (
{
background = {
paths = (
{
closed = 1;
nodes = (
"352 1052 OFFCURVE",
"221 1006 OFFCURVE",
"210 970 CURVE SMOOTH",
"195 923 OFFCURVE",
"276 927 OFFCURVE",
"254 861 CURVE SMOOTH",
"23 152 LINE SMOOTH",
"-5 67 OFFCURVE",
"-55 85 OFFCURVE",
"-68 44 CURVE SMOOTH",
"-76 19 OFFCURVE",
"-55 0 OFFCURVE",
"-4 0 CURVE SMOOTH",
"322 0 LINE SMOOTH",
"383 0 OFFCURVE",
"408 11 OFFCURVE",
"416 35 CURVE SMOOTH",
"428 73 OFFCURVE",
"356 71 OFFCURVE",
"381 148 CURVE SMOOTH",
"609 845 LINE SMOOTH",
"650 970 OFFCURVE",
"588 1052 OFFCURVE",
"470 1052 CURVE SMOOTH"
);
},
{
closed = 1;
nodes = (
"677 755 OFFCURVE",
"565 711 OFFCURVE",
"462 505 CURVE",
"475 435 LINE",
"503 517 OFFCURVE",
"548 542 OFFCURVE",
"578 542 CURVE SMOOTH",
"607 542 OFFCURVE",
"630 519 OFFCURVE",
"611 472 CURVE SMOOTH",
"529 266 LINE SMOOTH",
"512 222 OFFCURVE",
"502 180 OFFCURVE",
"502 147 CURVE SMOOTH",
"502 50 OFFCURVE",
"580 -13 OFFCURVE",
"706 -13 CURVE SMOOTH",
"867 -13 OFFCURVE",
"952 79 OFFCURVE",
"952 157 CURVE SMOOTH",
"952 173 OFFCURVE",
"946 189 OFFCURVE",
"936 189 CURVE SMOOTH",
"925 189 OFFCURVE",
"917 159 OFFCURVE",
"890 159 CURVE SMOOTH",
"874 159 OFFCURVE",
"866 174 OFFCURVE",
"874 197 CURVE SMOOTH",
"967 479 LINE SMOOTH",
"1019 635 OFFCURVE",
"937 755 OFFCURVE",
"791 755 CURVE SMOOTH"
);
}
);
};
layerId = "FF8CB9F1-2B98-444C-A502-96421F2531A8";
name = "Bold Italic";
paths = (
{
closed = 1;
nodes = (
"230 719 OFFCURVE",
"136 693 OFFCURVE",
"128 662 CURVE SMOOTH",
"120 629 OFFCURVE",
"175 634 OFFCURVE",
"161 585 CURVE SMOOTH",
"15 106 LINE SMOOTH",
"-4 46 OFFCURVE",
"-39 59 OFFCURVE",
"-48 31 CURVE SMOOTH",
"-53 13 OFFCURVE",
"-38 0 OFFCURVE",
"-2 0 CURVE SMOOTH",
"226 0 LINE SMOOTH",
"269 0 OFFCURVE",
"286 8 OFFCURVE",
"292 25 CURVE SMOOTH",
"299 51 OFFCURVE",
"248 48 OFFCURVE",
"265 104 CURVE SMOOTH",
"416 594 LINE SMOOTH",
"436 663 OFFCURVE",
"414 719 OFFCURVE",
"310 719 CURVE SMOOTH"
);
},
{
closed = 1;
nodes = (
"465 529 OFFCURVE",
"387 498 OFFCURVE",
"317 354 CURVE",
"328 305 LINE",
"346 362 OFFCURVE",
"377 379 OFFCURVE",
"398 379 CURVE SMOOTH",
"418 379 OFFCURVE",
"435 363 OFFCURVE",
"422 330 CURVE SMOOTH",
"367 186 LINE SMOOTH",
"355 155 OFFCURVE",
"349 126 OFFCURVE",
"349 103 CURVE SMOOTH",
"350 35 OFFCURVE",
"406 -9 OFFCURVE",
"494 -9 CURVE SMOOTH",
"607 -9 OFFCURVE",
"665 55 OFFCURVE",
"664 110 CURVE SMOOTH",
"664 121 OFFCURVE",
"660 132 OFFCURVE",
"653 132 CURVE SMOOTH",
"646 132 OFFCURVE",
"640 111 OFFCURVE",
"621 111 CURVE SMOOTH",
"610 111 OFFCURVE",
"604 122 OFFCURVE",
"610 138 CURVE SMOOTH",
"671 335 LINE SMOOTH",
"705 445 OFFCURVE",
"647 529 OFFCURVE",
"545 529 CURVE SMOOTH"
);
}
);
width = 698;
}
);
leftMetricsKey = l;
rightMetricsKey = n;
unicode = 0068;
},
{
glyphname = i;
lastChange = "2015-09-03 16:32:11 +0000";
layers = (
{
background = {
paths = (
{
closed = 1;
nodes = (
"354 1009 OFFCURVE",
"312 974 OFFCURVE",
"312 918 CURVE SMOOTH",
"312 848 OFFCURVE",
"399 782 OFFCURVE",
"498 782 CURVE SMOOTH",
"564 782 OFFCURVE",
"616 815 OFFCURVE",
"616 864 CURVE SMOOTH",
"616 930 OFFCURVE",
"531 1009 OFFCURVE",
"430 1009 CURVE SMOOTH"
);
},
{
closed = 1;
nodes = (
"255 755 OFFCURVE",
"124 709 OFFCURVE",
"113 673 CURVE SMOOTH",
"98 626 OFFCURVE",
"179 630 OFFCURVE",
"157 564 CURVE SMOOTH",
"23 152 LINE SMOOTH",
"-5 65 OFFCURVE",
"-55 85 OFFCURVE",
"-68 44 CURVE SMOOTH",
"-76 19 OFFCURVE",
"-55 0 OFFCURVE",
"-4 0 CURVE SMOOTH",
"322 0 LINE SMOOTH",
"383 0 OFFCURVE",
"408 11 OFFCURVE",
"416 35 CURVE SMOOTH",
"428 73 OFFCURVE",
"355 68 OFFCURVE",
"381 148 CURVE SMOOTH",
"512 548 LINE SMOOTH",
"553 673 OFFCURVE",
"491 755 OFFCURVE",
"373 755 CURVE SMOOTH"
);
}
);
};
layerId = "FF8CB9F1-2B98-444C-A502-96421F2531A8";
name = "Bold Italic";
paths = (
{
closed = 1;
nodes = (
"172 529 OFFCURVE",
"78 503 OFFCURVE",
"70 471 CURVE SMOOTH",
"61 438 OFFCURVE",
"117 443 OFFCURVE",
"102 395 CURVE SMOOTH",
"15 106 LINE SMOOTH",
"-4 46 OFFCURVE",
"-39 59 OFFCURVE",
"-48 31 CURVE SMOOTH",
"-53 13 OFFCURVE",
"-38 0 OFFCURVE",
"-2 0 CURVE SMOOTH",
"226 0 LINE SMOOTH",
"269 0 OFFCURVE",
"286 8 OFFCURVE",
"292 25 CURVE SMOOTH",
"299 51 OFFCURVE",
"248 48 OFFCURVE",
"265 104 CURVE SMOOTH",
"357 403 LINE SMOOTH",
"378 472 OFFCURVE",
"356 529 OFFCURVE",
"252 529 CURVE SMOOTH"
);
},
{
closed = 1;
nodes = (
"273 753 OFFCURVE",
"229 693 OFFCURVE",
"230 641 CURVE SMOOTH",
"231 589 OFFCURVE",
"270 548 OFFCURVE",
"323 548 CURVE SMOOTH",
"391 548 OFFCURVE",
"436 607 OFFCURVE",
"435 662 CURVE SMOOTH",
"435 713 OFFCURVE",
"394 753 OFFCURVE",
"341 753 CURVE SMOOTH"
);
}
);
width = 357;
}
);
unicode = 0069;
},
{
glyphname = dotlessi;
lastChange = "2015-09-03 16:32:11 +0000";
layers = (
{
anchors = (
{
name = top;
position = "{239, 500}";
}
);
background = {
paths = (
{
closed = 1;
nodes = (
"255 755 OFFCURVE",
"124 709 OFFCURVE",
"113 673 CURVE SMOOTH",
"98 626 OFFCURVE",
"179 630 OFFCURVE",
"157 564 CURVE SMOOTH",
"23 152 LINE SMOOTH",
"-5 65 OFFCURVE",
"-55 85 OFFCURVE",
"-68 44 CURVE SMOOTH",
"-76 19 OFFCURVE",
"-55 0 OFFCURVE",
"-4 0 CURVE SMOOTH",
"322 0 LINE SMOOTH",
"383 0 OFFCURVE",
"408 11 OFFCURVE",
"416 35 CURVE SMOOTH",
"428 73 OFFCURVE",
"355 68 OFFCURVE",
"381 148 CURVE SMOOTH",
"512 548 LINE SMOOTH",
"553 673 OFFCURVE",
"491 755 OFFCURVE",
"373 755 CURVE SMOOTH"
);
}
);
};
guideLines = (
{
angle = 75.9638;
position = "{456, 333}";
}
);
layerId = "FF8CB9F1-2B98-444C-A502-96421F2531A8";
name = "Bold Italic";
paths = (
{
closed = 1;
nodes = (
"172 529 OFFCURVE",
"78 503 OFFCURVE",
"70 471 CURVE SMOOTH",
"61 438 OFFCURVE",
"117 443 OFFCURVE",
"102 395 CURVE SMOOTH",
"15 106 LINE SMOOTH",
"-4 46 OFFCURVE",
"-39 59 OFFCURVE",
"-48 31 CURVE SMOOTH",
"-53 13 OFFCURVE",
"-38 0 OFFCURVE",
"-2 0 CURVE SMOOTH",
"226 0 LINE SMOOTH",
"269 0 OFFCURVE",
"286 8 OFFCURVE",
"292 25 CURVE SMOOTH",
"299 51 OFFCURVE",
"248 48 OFFCURVE",
"265 104 CURVE SMOOTH",
"357 403 LINE SMOOTH",
"378 472 OFFCURVE",
"356 529 OFFCURVE",
"252 529 CURVE SMOOTH"
);
}
);
width = 357;
}
);
unicode = 0131;
},
{
glyphname = j;
lastChange = "2015-09-03 16:32:11 +0000";
layers = (
{
layerId = "FF8CB9F1-2B98-444C-A502-96421F2531A8";
name = "Bold Italic";
paths = (
{
closed = 1;
nodes = (
"172 529 OFFCURVE",
"78 503 OFFCURVE",
"70 471 CURVE SMOOTH",
"61 438 OFFCURVE",
"117 443 OFFCURVE",
"102 395 CURVE SMOOTH",
"-18 0 LINE SMOOTH",
"-33 -53 OFFCURVE",
"-49 -63 OFFCURVE",
"-76 -63 CURVE SMOOTH",
"-99 -63 OFFCURVE",
"-114 -56 OFFCURVE",
"-127 -56 CURVE SMOOTH",
"-142 -56 OFFCURVE",
"-147 -64 OFFCURVE",
"-147 -80 CURVE SMOOTH",
"-146 -124 OFFCURVE",
"-54 -190 OFFCURVE",
"58 -190 CURVE SMOOTH",
"147 -190 OFFCURVE",
"194 -149 OFFCURVE",
"222 -52 CURVE SMOOTH",
"357 403 LINE SMOOTH",
"378 472 OFFCURVE",
"356 529 OFFCURVE",
"252 529 CURVE SMOOTH"
);
},
{
closed = 1;
nodes = (
"273 753 OFFCURVE",
"229 693 OFFCURVE",
"230 641 CURVE SMOOTH",
"231 589 OFFCURVE",
"270 548 OFFCURVE",
"323 548 CURVE SMOOTH",
"391 548 OFFCURVE",
"436 607 OFFCURVE",
"435 662 CURVE SMOOTH",
"435 713 OFFCURVE",
"394 753 OFFCURVE",
"341 753 CURVE SMOOTH"
);
}
);
width = 339;
}
);
unicode = 006A;
},
{
glyphname = k;
lastChange = "2015-09-03 16:32:11 +0000";
layers = (
{
background = {
guideLines = (
{
angle = 74.0546;
position = "{764, 206}";
}
);
paths = (
{
closed = 1;
nodes = (
"651 755 OFFCURVE",
"539 711 OFFCURVE",
"436 505 CURVE",
"449 435 LINE",
"477 517 OFFCURVE",
"522 542 OFFCURVE",
"552 542 CURVE SMOOTH",
"581 542 OFFCURVE",
"604 519 OFFCURVE",
"585 472 CURVE SMOOTH",
"503 266 LINE SMOOTH",
"486 222 OFFCURVE",
"476 180 OFFCURVE",
"476 147 CURVE SMOOTH",
"476 50 OFFCURVE",
"554 -13 OFFCURVE",
"680 -13 CURVE SMOOTH",
"841 -13 OFFCURVE",
"926 79 OFFCURVE",
"926 157 CURVE SMOOTH",
"926 173 OFFCURVE",
"920 189 OFFCURVE",
"910 189 CURVE SMOOTH",
"899 189 OFFCURVE",
"891 159 OFFCURVE",
"864 159 CURVE SMOOTH",
"848 159 OFFCURVE",
"840 174 OFFCURVE",
"848 197 CURVE SMOOTH",
"941 479 LINE SMOOTH",
"993 635 OFFCURVE",
"911 755 OFFCURVE",
"765 755 CURVE SMOOTH"
);
}
);
};
guideLines = (
{
angle = 72.1811;
position = "{868, 258}";
}
);
layerId = "FF8CB9F1-2B98-444C-A502-96421F2531A8";
name = "Bold Italic";
paths = (
{
closed = 1;
nodes = (
"230 719 OFFCURVE",
"136 693 OFFCURVE",
"128 662 CURVE SMOOTH",
"120 629 OFFCURVE",
"175 634 OFFCURVE",
"161 585 CURVE SMOOTH",
"15 106 LINE SMOOTH",
"-4 46 OFFCURVE",
"-39 59 OFFCURVE",
"-48 31 CURVE SMOOTH",
"-53 13 OFFCURVE",
"-38 0 OFFCURVE",
"-2 0 CURVE SMOOTH",
"226 0 LINE SMOOTH",
"269 0 OFFCURVE",
"286 8 OFFCURVE",
"292 25 CURVE SMOOTH",
"299 51 OFFCURVE",
"248 48 OFFCURVE",
"265 104 CURVE SMOOTH",
"415 594 LINE SMOOTH",
"435 663 OFFCURVE",
"414 719 OFFCURVE",
"310 719 CURVE SMOOTH"
);
},
{
closed = 1;
nodes = (
"321 308 LINE",
"284 251 LINE",
"330 251 LINE SMOOTH",
"364 251 OFFCURVE",
"372 237 OFFCURVE",
"360 200 CURVE SMOOTH",
"341 150 LINE SMOOTH",
"309 57 OFFCURVE",
"382 -9 OFFCURVE",
"482 -9 CURVE SMOOTH",
"594 -9 OFFCURVE",
"647 55 OFFCURVE",
"646 110 CURVE SMOOTH",
"646 121 OFFCURVE",
"642 132 OFFCURVE",
"635 132 CURVE SMOOTH",
"627 132 OFFCURVE",
"622 111 OFFCURVE",
"603 111 CURVE SMOOTH",
"592 111 OFFCURVE",
"586 120 OFFCURVE",
"592 138 CURVE SMOOTH",
"600 169 LINE SMOOTH",
"625 247 OFFCURVE",
"584 308 OFFCURVE",
"440 308 CURVE SMOOTH"
);
},
{
closed = 1;
nodes = (
"497 529 OFFCURVE",
"450 469 OFFCURVE",
"419 377 CURVE SMOOTH",
"410 347 OFFCURVE",
"395 330 OFFCURVE",
"367 330 CURVE SMOOTH",
"322 330 LINE",
"295 280 LINE",
"389 280 LINE SMOOTH",
"440 280 OFFCURVE",
"477 291 OFFCURVE",
"492 342 CURVE SMOOTH",
"503 382 OFFCURVE",
"512 391 OFFCURVE",
"524 389 CURVE",
"523 356 OFFCURVE",
"551 319 OFFCURVE",
"611 319 CURVE SMOOTH",
"667 319 OFFCURVE",
"707 350 OFFCURVE",
"715 404 CURVE SMOOTH",
"725 469 OFFCURVE",
"676 529 OFFCURVE",
"590 529 CURVE SMOOTH"
);
}
);
width = 692;
},
{
associatedMasterId = "FF8CB9F1-2B98-444C-A502-96421F2531A8";
layerId = "5BC5E7F8-77C1-4470-A525-5B9A6FF21ABA";
name = "Bold Italic Jul 15 15, 09:56";
paths = (
{
closed = 1;
nodes = (
"238 1058 OFFCURVE",
"211 1043 OFFCURVE",
"211 1020 CURVE SMOOTH",
"211 991 OFFCURVE",
"236 974 OFFCURVE",
"217 913 CURVE SMOOTH",
"0 214 LINE SMOOTH",
"-50 56 OFFCURVE",
"89 -4 OFFCURVE",
"185 -4 CURVE SMOOTH",
"245 -4 OFFCURVE",
"281 24 OFFCURVE",
"306 107 CURVE SMOOTH",
"528 831 LINE SMOOTH",
"565 950 OFFCURVE",
"420 1058 OFFCURVE",
"280 1058 CURVE SMOOTH"
);
},
{
closed = 1;
nodes = (
"467 442 OFFCURVE",
"403 481 OFFCURVE",
"304 380 CURVE",
"352 299 LINE",
"379 341 OFFCURVE",
"382 353 OFFCURVE",
"406 353 CURVE SMOOTH",
"432 353 OFFCURVE",
"470 332 OFFCURVE",
"458 283 CURVE SMOOTH",
"440 207 LINE SMOOTH",
"411 86 OFFCURVE",
"497 -4 OFFCURVE",
"644 -4 CURVE SMOOTH",
"789 -4 OFFCURVE",
"842 88 OFFCURVE",
"842 166 CURVE SMOOTH",
"842 182 OFFCURVE",
"836 198 OFFCURVE",
"826 198 CURVE SMOOTH",
"815 198 OFFCURVE",
"807 168 OFFCURVE",
"780 168 CURVE SMOOTH",
"764 168 OFFCURVE",
"757 181 OFFCURVE",
"764 206 CURVE SMOOTH",
"778 259 LINE SMOOTH",
"808 372 OFFCURVE",
"717 442 OFFCURVE",
"527 442 CURVE SMOOTH"
);
},
{
closed = 1;
nodes = (
"535 756 OFFCURVE",
"527 471 OFFCURVE",
"332 484 CURVE",
"467 410 LINE",
"591 440 OFFCURVE",
"595 552 OFFCURVE",
"658 576 CURVE",
"642 509 OFFCURVE",
"682 462 OFFCURVE",
"773 462 CURVE SMOOTH",
"849 462 OFFCURVE",
"933 515 OFFCURVE",
"933 613 CURVE SMOOTH",
"933 700 OFFCURVE",
"857 756 OFFCURVE",
"749 756 CURVE SMOOTH"
);
}
);
width = 908;
},
{
associatedMasterId = "FF8CB9F1-2B98-444C-A502-96421F2531A8";
layerId = "7727856F-9FA0-4CBF-98EE-97BAEACE47D5";
name = "Bold Italic Jul 15 15, 09:58";
paths = (
{
closed = 1;
nodes = (
"238 1058 OFFCURVE",
"211 1043 OFFCURVE",
"211 1020 CURVE SMOOTH",
"211 991 OFFCURVE",
"236 974 OFFCURVE",
"217 913 CURVE SMOOTH",
"0 214 LINE SMOOTH",
"-50 56 OFFCURVE",
"89 -4 OFFCURVE",
"185 -4 CURVE SMOOTH",
"245 -4 OFFCURVE",
"281 24 OFFCURVE",
"306 107 CURVE SMOOTH",
"528 831 LINE SMOOTH",
"565 950 OFFCURVE",
"420 1058 OFFCURVE",
"280 1058 CURVE SMOOTH"
);
},
{
closed = 1;
nodes = (
"467 442 OFFCURVE",
"373 426 OFFCURVE",
"304 380 CURVE",
"352 299 LINE",
"379 341 OFFCURVE",
"382 353 OFFCURVE",
"406 353 CURVE SMOOTH",
"432 353 OFFCURVE",
"470 332 OFFCURVE",
"458 283 CURVE SMOOTH",
"440 207 LINE SMOOTH",
"411 86 OFFCURVE",
"497 -4 OFFCURVE",
"644 -4 CURVE SMOOTH",
"789 -4 OFFCURVE",
"842 88 OFFCURVE",
"842 166 CURVE SMOOTH",
"842 182 OFFCURVE",
"836 198 OFFCURVE",
"826 198 CURVE SMOOTH",
"815 198 OFFCURVE",
"807 168 OFFCURVE",
"780 168 CURVE SMOOTH",
"764 168 OFFCURVE",
"757 181 OFFCURVE",
"764 206 CURVE SMOOTH",
"778 259 LINE SMOOTH",
"808 372 OFFCURVE",
"717 442 OFFCURVE",
"527 442 CURVE SMOOTH"
);
},
{
closed = 1;
nodes = (
"678 756 OFFCURVE",
"631 714 OFFCURVE",
"561 644 CURVE SMOOTH",
"357 441 LINE",
"440 367 LINE",
"639 543 LINE",
"673 496 OFFCURVE",
"720 466 OFFCURVE",
"785 466 CURVE SMOOTH",
"887 466 OFFCURVE",
"933 542 OFFCURVE",
"933 612 CURVE SMOOTH",
"933 694 OFFCURVE",
"851 756 OFFCURVE",
"761 756 CURVE SMOOTH"
);
}
);
width = 908;
},
{
associatedMasterId = "FF8CB9F1-2B98-444C-A502-96421F2531A8";
background = {
guideLines = (
{
angle = 74.0546;
position = "{764, 206}";
}
);
paths = (
{
closed = 1;
nodes = (
"666 1058 OFFCURVE",
"639 1043 OFFCURVE",
"639 1020 CURVE SMOOTH",
"639 991 OFFCURVE",
"664 974 OFFCURVE",
"645 913 CURVE SMOOTH",
"428 214 LINE SMOOTH",
"378 56 OFFCURVE",
"517 -4 OFFCURVE",
"613 -4 CURVE SMOOTH",
"673 -4 OFFCURVE",
"709 24 OFFCURVE",
"734 107 CURVE SMOOTH",
"956 831 LINE SMOOTH",
"993 950 OFFCURVE",
"848 1058 OFFCURVE",
"708 1058 CURVE SMOOTH"
);
}
);
};
layerId = "E54C8495-C862-408B-AB27-4F4C2D6D9077";
name = "Bold Italic Jul 27 15, 14:47";
paths = (
{
closed = 1;
nodes = (
"238 1058 OFFCURVE",
"211 1043 OFFCURVE",
"211 1020 CURVE SMOOTH",
"211 991 OFFCURVE",
"236 974 OFFCURVE",
"217 913 CURVE SMOOTH",
"0 214 LINE SMOOTH",
"-50 56 OFFCURVE",
"89 -4 OFFCURVE",
"185 -4 CURVE SMOOTH",
"245 -4 OFFCURVE",
"281 24 OFFCURVE",
"306 107 CURVE SMOOTH",
"528 831 LINE SMOOTH",
"565 950 OFFCURVE",
"420 1058 OFFCURVE",
"280 1058 CURVE SMOOTH"
);
},
{
closed = 1;
nodes = (
"398 440 LINE",
"367 358 LINE",
"409 358 LINE SMOOTH",
"458 358 OFFCURVE",
"467 340 OFFCURVE",
"450 285 CURVE SMOOTH",
"426 207 LINE SMOOTH",
"390 89 OFFCURVE",
"485 -4 OFFCURVE",
"628 -4 CURVE SMOOTH",
"789 -4 OFFCURVE",
"842 88 OFFCURVE",
"842 166 CURVE SMOOTH",
"842 182 OFFCURVE",
"836 198 OFFCURVE",
"826 198 CURVE SMOOTH",
"815 198 OFFCURVE",
"807 168 OFFCURVE",
"780 168 CURVE SMOOTH",
"764 168 OFFCURVE",
"756 181 OFFCURVE",
"764 206 CURVE SMOOTH",
"775 241 LINE SMOOTH",
"811 355 OFFCURVE",
"759 440 OFFCURVE",
"567 440 CURVE SMOOTH"
);
},
{
closed = 1;
nodes = (
"651 755 OFFCURVE",
"576 689 OFFCURVE",
"541 577 CURVE SMOOTH",
"529 538 LINE SMOOTH",
"516 496 OFFCURVE",
"493 471 OFFCURVE",
"453 471 CURVE SMOOTH",
"401 471 LINE",
"349 400 LINE",
"483 400 LINE SMOOTH",
"555 400 OFFCURVE",
"608 415 OFFCURVE",
"631 488 CURVE SMOOTH",
"649 546 OFFCURVE",
"661 558 OFFCURVE",
"679 555 CURVE",
"676 509 OFFCURVE",
"716 456 OFFCURVE",
"801 456 CURVE SMOOTH",
"881 456 OFFCURVE",
"939 500 OFFCURVE",
"952 577 CURVE SMOOTH",
"967 670 OFFCURVE",
"899 755 OFFCURVE",
"765 755 CURVE SMOOTH"
);
}
);
width = 908;
}
);
leftMetricsKey = l;
unicode = 006B;
},
{
glyphname = l;
lastChange = "2015-09-03 16:32:11 +0000";
layers = (
{
anchors = (
{
name = top;
position = "{306, 685}";
}
);
background = {
paths = (
{
closed = 1;
nodes = (
"268 1058 OFFCURVE",
"241 1043 OFFCURVE",
"241 1020 CURVE SMOOTH",
"241 991 OFFCURVE",
"267 974 OFFCURVE",
"247 913 CURVE SMOOTH",
"38 271 LINE SMOOTH",
"21 227 OFFCURVE",
"11 189 OFFCURVE",
"11 156 CURVE SMOOTH",
"11 59 OFFCURVE",
"99 -4 OFFCURVE",
"218 -4 CURVE SMOOTH",
"344 -4 OFFCURVE",
"444 88 OFFCURVE",
"444 166 CURVE SMOOTH",
"444 182 OFFCURVE",
"438 198 OFFCURVE",
"428 198 CURVE SMOOTH",
"417 198 OFFCURVE",
"409 168 OFFCURVE",
"382 168 CURVE SMOOTH",
"366 168 OFFCURVE",
"359 183 OFFCURVE",
"366 206 CURVE SMOOTH",
"558 831 LINE SMOOTH",
"595 950 OFFCURVE",
"450 1058 OFFCURVE",
"310 1058 CURVE SMOOTH"
);
}
);
};
layerId = "FF8CB9F1-2B98-444C-A502-96421F2531A8";
name = "Bold Italic";
paths = (
{
closed = 1;
nodes = (
"230 719 OFFCURVE",
"136 693 OFFCURVE",
"128 662 CURVE SMOOTH",
"120 629 OFFCURVE",
"175 634 OFFCURVE",
"161 585 CURVE SMOOTH",
"15 106 LINE SMOOTH",
"-4 46 OFFCURVE",
"-39 59 OFFCURVE",
"-48 31 CURVE SMOOTH",
"-53 13 OFFCURVE",
"-38 0 OFFCURVE",
"-2 0 CURVE SMOOTH",
"226 0 LINE SMOOTH",
"269 0 OFFCURVE",
"286 8 OFFCURVE",
"292 25 CURVE SMOOTH",
"299 51 OFFCURVE",
"248 48 OFFCURVE",
"265 104 CURVE SMOOTH",
"416 594 LINE SMOOTH",
"436 663 OFFCURVE",
"414 719 OFFCURVE",
"310 719 CURVE SMOOTH"
);
}
);
width = 358;
},
{
associatedMasterId = "FF8CB9F1-2B98-444C-A502-96421F2531A8";
background = {
paths = (
{
closed = 1;
nodes = (
"268 1058 OFFCURVE",
"241 1043 OFFCURVE",
"241 1020 CURVE SMOOTH",
"241 991 OFFCURVE",
"267 974 OFFCURVE",
"247 913 CURVE SMOOTH",
"38 271 LINE SMOOTH",
"21 227 OFFCURVE",
"11 189 OFFCURVE",
"11 156 CURVE SMOOTH",
"11 59 OFFCURVE",
"99 -4 OFFCURVE",
"218 -4 CURVE SMOOTH",
"344 -4 OFFCURVE",
"444 88 OFFCURVE",
"444 166 CURVE SMOOTH",
"444 182 OFFCURVE",
"438 198 OFFCURVE",
"428 198 CURVE SMOOTH",
"417 198 OFFCURVE",
"409 168 OFFCURVE",
"382 168 CURVE SMOOTH",
"366 168 OFFCURVE",
"359 183 OFFCURVE",
"366 206 CURVE SMOOTH",
"558 831 LINE SMOOTH",
"595 950 OFFCURVE",
"450 1058 OFFCURVE",
"310 1058 CURVE SMOOTH"
);
}
);
};
layerId = "4EB0801A-1EB8-47FB-9761-210B38ECE40F";
name = "Bold Italic Jul 27 15, 14:41";
paths = (
{
closed = 1;
nodes = (
"268 1058 OFFCURVE",
"241 1043 OFFCURVE",
"241 1020 CURVE SMOOTH",
"241 991 OFFCURVE",
"267 974 OFFCURVE",
"247 913 CURVE SMOOTH",
"38 271 LINE SMOOTH",
"21 227 OFFCURVE",
"11 189 OFFCURVE",
"11 156 CURVE SMOOTH",
"11 59 OFFCURVE",
"99 -4 OFFCURVE",
"218 -4 CURVE SMOOTH",
"344 -4 OFFCURVE",
"444 88 OFFCURVE",
"444 166 CURVE SMOOTH",
"444 182 OFFCURVE",
"438 198 OFFCURVE",
"428 198 CURVE SMOOTH",
"417 198 OFFCURVE",
"409 168 OFFCURVE",
"382 168 CURVE SMOOTH",
"366 168 OFFCURVE",
"359 183 OFFCURVE",
"366 206 CURVE SMOOTH",
"558 831 LINE SMOOTH",
"595 950 OFFCURVE",
"450 1058 OFFCURVE",
"310 1058 CURVE SMOOTH"
);
}
);
width = 512;
}
);
unicode = 006C;
},
{
glyphname = m;
lastChange = "2015-09-03 16:32:11 +0000";
layers = (
{
background = {
paths = (
{
closed = 1;
nodes = (
"255 755 OFFCURVE",
"124 709 OFFCURVE",
"113 673 CURVE SMOOTH",
"98 626 OFFCURVE",
"179 630 OFFCURVE",
"157 564 CURVE SMOOTH",
"23 152 LINE SMOOTH",
"-5 65 OFFCURVE",
"-55 85 OFFCURVE",
"-68 44 CURVE SMOOTH",
"-76 19 OFFCURVE",
"-55 0 OFFCURVE",
"-4 0 CURVE SMOOTH",
"322 0 LINE SMOOTH",
"383 0 OFFCURVE",
"408 11 OFFCURVE",
"416 35 CURVE SMOOTH",
"428 73 OFFCURVE",
"355 68 OFFCURVE",
"381 148 CURVE SMOOTH",
"512 548 LINE SMOOTH",
"553 673 OFFCURVE",
"491 755 OFFCURVE",
"373 755 CURVE SMOOTH"
);
},
{
closed = 1;
nodes = (
"677 755 OFFCURVE",
"565 711 OFFCURVE",
"462 505 CURVE",
"475 435 LINE",
"503 517 OFFCURVE",
"548 542 OFFCURVE",
"578 542 CURVE SMOOTH",
"607 542 OFFCURVE",
"630 519 OFFCURVE",
"611 472 CURVE SMOOTH",
"529 266 LINE SMOOTH",
"512 222 OFFCURVE",
"502 180 OFFCURVE",
"502 147 CURVE SMOOTH",
"502 50 OFFCURVE",
"580 -13 OFFCURVE",
"706 -13 CURVE SMOOTH",
"867 -13 OFFCURVE",
"952 79 OFFCURVE",
"952 157 CURVE SMOOTH",
"952 173 OFFCURVE",
"946 189 OFFCURVE",
"936 189 CURVE SMOOTH",
"925 189 OFFCURVE",
"917 159 OFFCURVE",
"890 159 CURVE SMOOTH",
"874 159 OFFCURVE",
"866 174 OFFCURVE",
"874 197 CURVE SMOOTH",
"967 479 LINE SMOOTH",
"1019 635 OFFCURVE",
"937 755 OFFCURVE",
"791 755 CURVE SMOOTH"
);
},
{
closed = 1;
nodes = (
"1154 755 OFFCURVE",
"1042 711 OFFCURVE",
"939 505 CURVE",
"952 435 LINE",
"980 517 OFFCURVE",
"1025 542 OFFCURVE",
"1055 542 CURVE SMOOTH",
"1084 542 OFFCURVE",
"1107 519 OFFCURVE",
"1088 472 CURVE SMOOTH",
"1006 266 LINE SMOOTH",
"989 222 OFFCURVE",
"979 180 OFFCURVE",
"979 147 CURVE SMOOTH",
"979 50 OFFCURVE",
"1057 -13 OFFCURVE",
"1183 -13 CURVE SMOOTH",
"1344 -13 OFFCURVE",
"1429 79 OFFCURVE",
"1429 157 CURVE SMOOTH",
"1429 173 OFFCURVE",
"1423 189 OFFCURVE",
"1413 189 CURVE SMOOTH",
"1402 189 OFFCURVE",
"1394 159 OFFCURVE",
"1367 159 CURVE SMOOTH",
"1351 159 OFFCURVE",
"1343 174 OFFCURVE",
"1351 197 CURVE SMOOTH",
"1444 479 LINE SMOOTH",
"1496 635 OFFCURVE",
"1414 755 OFFCURVE",
"1268 755 CURVE SMOOTH"
);
}
);
};
layerId = "FF8CB9F1-2B98-444C-A502-96421F2531A8";
name = "Bold Italic";
paths = (
{
closed = 1;
nodes = (
"463 529 OFFCURVE",
"385 498 OFFCURVE",
"315 354 CURVE",
"326 305 LINE",
"344 362 OFFCURVE",
"375 379 OFFCURVE",
"396 379 CURVE SMOOTH",
"416 379 OFFCURVE",
"433 363 OFFCURVE",
"420 330 CURVE SMOOTH",
"365 186 LINE SMOOTH",
"353 155 OFFCURVE",
"347 126 OFFCURVE",
"347 103 CURVE SMOOTH",
"348 35 OFFCURVE",
"404 -9 OFFCURVE",
"492 -9 CURVE SMOOTH",
"605 -9 OFFCURVE",
"663 55 OFFCURVE",
"662 110 CURVE SMOOTH",
"662 121 OFFCURVE",
"658 132 OFFCURVE",
"651 132 CURVE SMOOTH",
"644 132 OFFCURVE",
"638 111 OFFCURVE",
"619 111 CURVE SMOOTH",
"608 111 OFFCURVE",
"602 122 OFFCURVE",
"608 138 CURVE SMOOTH",
"669 335 LINE SMOOTH",
"703 445 OFFCURVE",
"645 529 OFFCURVE",
"543 529 CURVE SMOOTH"
);
},
{
closed = 1;
nodes = (
"797 529 OFFCURVE",
"718 498 OFFCURVE",
"649 354 CURVE",
"659 305 LINE",
"678 362 OFFCURVE",
"709 379 OFFCURVE",
"730 379 CURVE SMOOTH",
"750 379 OFFCURVE",
"767 363 OFFCURVE",
"754 330 CURVE SMOOTH",
"699 186 LINE SMOOTH",
"687 155 OFFCURVE",
"681 126 OFFCURVE",
"681 103 CURVE SMOOTH",
"682 35 OFFCURVE",
"738 -9 OFFCURVE",
"826 -9 CURVE SMOOTH",
"939 -9 OFFCURVE",
"997 55 OFFCURVE",
"996 110 CURVE SMOOTH",
"996 121 OFFCURVE",
"992 132 OFFCURVE",
"985 132 CURVE SMOOTH",
"977 132 OFFCURVE",
"972 111 OFFCURVE",
"953 111 CURVE SMOOTH",
"942 111 OFFCURVE",
"936 122 OFFCURVE",
"942 138 CURVE SMOOTH",
"1003 335 LINE SMOOTH",
"1037 445 OFFCURVE",
"979 529 OFFCURVE",
"877 529 CURVE SMOOTH"
);
},
{
closed = 1;
nodes = (
"379 472 OFFCURVE",
"334 529 OFFCURVE",
"253 529 CURVE SMOOTH",
"173 529 OFFCURVE",
"79 503 OFFCURVE",
"71 471 CURVE SMOOTH",
"62 438 OFFCURVE",
"117 443 OFFCURVE",
"103 395 CURVE SMOOTH",
"14 106 LINE SMOOTH",
"-5 46 OFFCURVE",
"-40 59 OFFCURVE",
"-49 31 CURVE SMOOTH",
"-53 13 OFFCURVE",
"-39 0 OFFCURVE",
"-3 0 CURVE SMOOTH",
"225 0 LINE SMOOTH",
"268 0 OFFCURVE",
"286 8 OFFCURVE",
"291 25 CURVE SMOOTH",
"299 51 OFFCURVE",
"247 48 OFFCURVE",
"265 104 CURVE SMOOTH",
"349 378 LINE SMOOTH"
);
}
);
width = 1030;
},
{
associatedMasterId = "FF8CB9F1-2B98-444C-A502-96421F2531A8";
background = {
paths = (
{
closed = 1;
nodes = (
"159 755 OFFCURVE",
"127 740 OFFCURVE",
"127 721 CURVE SMOOTH",
"127 698 OFFCURVE",
"157 681 OFFCURVE",
"138 626 CURVE SMOOTH",
"5 238 LINE SMOOTH",
"-46 88 OFFCURVE",
"46 -4 OFFCURVE",
"175 -4 CURVE SMOOTH",
"255 -4 OFFCURVE",
"294 35 OFFCURVE",
"319 117 CURVE SMOOTH",
"446 533 LINE SMOOTH",
"482 652 OFFCURVE",
"392 755 OFFCURVE",
"224 755 CURVE SMOOTH"
);
},
{
closed = 1;
nodes = (
"466 271 LINE SMOOTH",
"449 227 OFFCURVE",
"439 189 OFFCURVE",
"439 156 CURVE SMOOTH",
"439 49 OFFCURVE",
"527 -4 OFFCURVE",
"646 -4 CURVE SMOOTH",
"772 -4 OFFCURVE",
"872 88 OFFCURVE",
"872 166 CURVE SMOOTH",
"872 182 OFFCURVE",
"866 198 OFFCURVE",
"856 198 CURVE SMOOTH",
"845 198 OFFCURVE",
"837 168 OFFCURVE",
"810 168 CURVE SMOOTH",
"794 168 OFFCURVE",
"787 183 OFFCURVE",
"794 206 CURVE SMOOTH",
"878 479 LINE SMOOTH",
"925 632 OFFCURVE",
"852 755 OFFCURVE",
"692 755 CURVE SMOOTH",
"586 755 OFFCURVE",
"476 711 OFFCURVE",
"372 535 CURVE",
"425 465 LINE",
"445 528 OFFCURVE",
"479 542 OFFCURVE",
"502 542 CURVE SMOOTH",
"534 542 OFFCURVE",
"560 519 OFFCURVE",
"542 472 CURVE SMOOTH"
);
},
{
closed = 1;
nodes = (
"926 271 LINE SMOOTH",
"909 227 OFFCURVE",
"899 189 OFFCURVE",
"899 156 CURVE SMOOTH",
"899 49 OFFCURVE",
"987 -4 OFFCURVE",
"1106 -4 CURVE SMOOTH",
"1232 -4 OFFCURVE",
"1332 88 OFFCURVE",
"1332 166 CURVE SMOOTH",
"1332 182 OFFCURVE",
"1326 198 OFFCURVE",
"1316 198 CURVE SMOOTH",
"1305 198 OFFCURVE",
"1297 168 OFFCURVE",
"1270 168 CURVE SMOOTH",
"1254 168 OFFCURVE",
"1247 183 OFFCURVE",
"1254 206 CURVE SMOOTH",
"1338 479 LINE SMOOTH",
"1385 632 OFFCURVE",
"1312 755 OFFCURVE",
"1152 755 CURVE SMOOTH",
"1046 755 OFFCURVE",
"936 711 OFFCURVE",
"832 535 CURVE",
"885 465 LINE",
"905 528 OFFCURVE",
"939 542 OFFCURVE",
"962 542 CURVE SMOOTH",
"994 542 OFFCURVE",
"1020 519 OFFCURVE",
"1002 472 CURVE SMOOTH"
);
}
);
};
layerId = "B2E94D97-3223-4D64-8496-19A498D9A8B3";
leftMetricsKey = "=m";
rightMetricsKey = "=n";
name = "Bold Italic Jul 6 15, 12:27";
paths = (
{
closed = 1;
nodes = (
"159 755 OFFCURVE",
"127 740 OFFCURVE",
"127 721 CURVE SMOOTH",
"127 698 OFFCURVE",
"157 681 OFFCURVE",
"138 626 CURVE SMOOTH",
"5 238 LINE SMOOTH",
"-46 88 OFFCURVE",
"46 -4 OFFCURVE",
"175 -4 CURVE SMOOTH",
"255 -4 OFFCURVE",
"294 35 OFFCURVE",
"319 117 CURVE SMOOTH",
"446 533 LINE SMOOTH",
"482 652 OFFCURVE",
"392 755 OFFCURVE",
"224 755 CURVE SMOOTH"
);
},
{
closed = 1;
nodes = (
"466 271 LINE SMOOTH",
"449 227 OFFCURVE",
"439 189 OFFCURVE",
"439 156 CURVE SMOOTH",
"439 49 OFFCURVE",
"527 -4 OFFCURVE",
"646 -4 CURVE SMOOTH",
"782 -4 OFFCURVE",
"859 88 OFFCURVE",
"859 166 CURVE SMOOTH",
"859 182 OFFCURVE",
"853 198 OFFCURVE",
"843 198 CURVE SMOOTH",
"832 198 OFFCURVE",
"818 172 OFFCURVE",
"804 172 CURVE SMOOTH",
"792 172 OFFCURVE",
"786 181 OFFCURVE",
"792 200 CURVE SMOOTH",
"878 479 LINE SMOOTH",
"925 632 OFFCURVE",
"852 755 OFFCURVE",
"692 755 CURVE SMOOTH",
"586 755 OFFCURVE",
"476 711 OFFCURVE",
"372 535 CURVE",
"425 465 LINE",
"445 528 OFFCURVE",
"479 542 OFFCURVE",
"502 542 CURVE SMOOTH",
"534 542 OFFCURVE",
"560 519 OFFCURVE",
"542 472 CURVE SMOOTH"
);
},
{
closed = 1;
nodes = (
"926 271 LINE SMOOTH",
"909 227 OFFCURVE",
"899 189 OFFCURVE",
"899 156 CURVE SMOOTH",
"899 49 OFFCURVE",
"987 -4 OFFCURVE",
"1106 -4 CURVE SMOOTH",
"1232 -4 OFFCURVE",
"1332 88 OFFCURVE",
"1332 166 CURVE SMOOTH",
"1332 182 OFFCURVE",
"1326 198 OFFCURVE",
"1316 198 CURVE SMOOTH",
"1305 198 OFFCURVE",
"1297 168 OFFCURVE",
"1270 168 CURVE SMOOTH",
"1254 168 OFFCURVE",
"1247 183 OFFCURVE",
"1254 206 CURVE SMOOTH",
"1338 479 LINE SMOOTH",
"1385 632 OFFCURVE",
"1312 755 OFFCURVE",
"1152 755 CURVE SMOOTH",
"1046 755 OFFCURVE",
"923 711 OFFCURVE",
"819 535 CURVE",
"874 465 LINE",
"892 525 OFFCURVE",
"930 542 OFFCURVE",
"960 542 CURVE SMOOTH",
"997 542 OFFCURVE",
"1020 519 OFFCURVE",
"1002 472 CURVE SMOOTH"
);
}
);
width = 1398;
},
{
associatedMasterId = "FF8CB9F1-2B98-444C-A502-96421F2531A8";
background = {
paths = (
{
closed = 1;
nodes = (
"159 755 OFFCURVE",
"127 740 OFFCURVE",
"127 721 CURVE SMOOTH",
"127 698 OFFCURVE",
"157 681 OFFCURVE",
"138 626 CURVE SMOOTH",
"5 238 LINE SMOOTH",
"-46 88 OFFCURVE",
"46 -4 OFFCURVE",
"175 -4 CURVE SMOOTH",
"255 -4 OFFCURVE",
"294 35 OFFCURVE",
"319 117 CURVE SMOOTH",
"446 533 LINE SMOOTH",
"482 652 OFFCURVE",
"392 755 OFFCURVE",
"224 755 CURVE SMOOTH"
);
},
{
closed = 1;
nodes = (
"466 271 LINE SMOOTH",
"449 227 OFFCURVE",
"439 189 OFFCURVE",
"439 156 CURVE SMOOTH",
"439 49 OFFCURVE",
"527 -4 OFFCURVE",
"646 -4 CURVE SMOOTH",
"772 -4 OFFCURVE",
"872 88 OFFCURVE",
"872 166 CURVE SMOOTH",
"872 182 OFFCURVE",
"866 198 OFFCURVE",
"856 198 CURVE SMOOTH",
"845 198 OFFCURVE",
"837 168 OFFCURVE",
"810 168 CURVE SMOOTH",
"794 168 OFFCURVE",
"787 183 OFFCURVE",
"794 206 CURVE SMOOTH",
"878 479 LINE SMOOTH",
"925 632 OFFCURVE",
"852 755 OFFCURVE",
"692 755 CURVE SMOOTH",
"586 755 OFFCURVE",
"476 711 OFFCURVE",
"372 535 CURVE",
"425 465 LINE",
"445 528 OFFCURVE",
"479 542 OFFCURVE",
"502 542 CURVE SMOOTH",
"534 542 OFFCURVE",
"560 519 OFFCURVE",
"542 472 CURVE SMOOTH"
);
},
{
closed = 1;
nodes = (
"914 271 LINE SMOOTH",
"897 227 OFFCURVE",
"887 189 OFFCURVE",
"887 156 CURVE SMOOTH",
"887 49 OFFCURVE",
"975 -4 OFFCURVE",
"1094 -4 CURVE SMOOTH",
"1220 -4 OFFCURVE",
"1320 88 OFFCURVE",
"1320 166 CURVE SMOOTH",
"1320 182 OFFCURVE",
"1314 198 OFFCURVE",
"1304 198 CURVE SMOOTH",
"1293 198 OFFCURVE",
"1285 168 OFFCURVE",
"1258 168 CURVE SMOOTH",
"1242 168 OFFCURVE",
"1235 183 OFFCURVE",
"1242 206 CURVE SMOOTH",
"1326 479 LINE SMOOTH",
"1373 632 OFFCURVE",
"1300 755 OFFCURVE",
"1140 755 CURVE SMOOTH",
"1034 755 OFFCURVE",
"924 711 OFFCURVE",
"820 535 CURVE",
"873 465 LINE",
"893 528 OFFCURVE",
"927 542 OFFCURVE",
"950 542 CURVE SMOOTH",
"982 542 OFFCURVE",
"1008 519 OFFCURVE",
"990 472 CURVE SMOOTH"
);
}
);
};
layerId = "C719D739-AF3B-44E3-8624-1268672D0ACD";
leftMetricsKey = "=m";
rightMetricsKey = "=n";
name = "Bold Italic Jul 27 15, 12:53";
paths = (
{
closed = 1;
nodes = (
"1024 755 OFFCURVE",
"914 707 OFFCURVE",
"810 535 CURVE",
"873 465 LINE",
"893 528 OFFCURVE",
"927 542 OFFCURVE",
"950 542 CURVE SMOOTH",
"982 542 OFFCURVE",
"1008 519 OFFCURVE",
"990 472 CURVE SMOOTH",
"914 271 LINE SMOOTH",
"897 227 OFFCURVE",
"887 189 OFFCURVE",
"887 156 CURVE SMOOTH",
"887 49 OFFCURVE",
"975 -4 OFFCURVE",
"1094 -4 CURVE SMOOTH",
"1220 -4 OFFCURVE",
"1320 88 OFFCURVE",
"1320 166 CURVE SMOOTH",
"1320 182 OFFCURVE",
"1314 198 OFFCURVE",
"1304 198 CURVE SMOOTH",
"1293 198 OFFCURVE",
"1285 168 OFFCURVE",
"1258 168 CURVE SMOOTH",
"1242 168 OFFCURVE",
"1235 183 OFFCURVE",
"1242 206 CURVE SMOOTH",
"1326 479 LINE SMOOTH",
"1373 632 OFFCURVE",
"1300 755 OFFCURVE",
"1140 755 CURVE SMOOTH"
);
},
{
closed = 1;
nodes = (
"159 755 OFFCURVE",
"127 740 OFFCURVE",
"127 721 CURVE SMOOTH",
"127 698 OFFCURVE",
"157 681 OFFCURVE",
"138 626 CURVE SMOOTH",
"5 238 LINE SMOOTH",
"-46 88 OFFCURVE",
"46 -4 OFFCURVE",
"175 -4 CURVE SMOOTH",
"255 -4 OFFCURVE",
"294 35 OFFCURVE",
"319 117 CURVE SMOOTH",
"446 533 LINE SMOOTH",
"482 652 OFFCURVE",
"392 755 OFFCURVE",
"224 755 CURVE SMOOTH"
);
},
{
closed = 1;
nodes = (
"586 755 OFFCURVE",
"476 711 OFFCURVE",
"372 535 CURVE",
"425 465 LINE",
"445 528 OFFCURVE",
"479 542 OFFCURVE",
"502 542 CURVE SMOOTH",
"534 542 OFFCURVE",
"560 519 OFFCURVE",
"542 472 CURVE SMOOTH",
"454 238 LINE SMOOTH",
"399 90 OFFCURVE",
"495 -4 OFFCURVE",
"624 -4 CURVE SMOOTH",
"704 -4 OFFCURVE",
"743 35 OFFCURVE",
"768 117 CURVE SMOOTH",
"878 479 LINE SMOOTH",
"925 632 OFFCURVE",
"852 755 OFFCURVE",
"692 755 CURVE SMOOTH"
);
}
);
width = 1386;
}
);
leftMetricsKey = n;
rightKerningGroup = m;
rightMetricsKey = n;
unicode = 006D;
},
{
glyphname = n;
lastChange = "2015-09-03 16:32:11 +0000";
layers = (
{
anchors = (
{
name = top;
position = "{369, 500}";
}
);
background = {
paths = (
{
closed = 1;
nodes = (
"474 529 OFFCURVE",
"396 498 OFFCURVE",
"323 354 CURVE",
"333 305 LINE",
"352 362 OFFCURVE",
"384 379 OFFCURVE",
"405 379 CURVE SMOOTH",
"425 379 OFFCURVE",
"441 363 OFFCURVE",
"428 330 CURVE SMOOTH",
"370 186 LINE SMOOTH",
"358 155 OFFCURVE",
"351 126 OFFCURVE",
"351 103 CURVE SMOOTH",
"351 35 OFFCURVE",
"406 -9 OFFCURVE",
"494 -9 CURVE SMOOTH",
"607 -9 OFFCURVE",
"666 55 OFFCURVE",
"666 110 CURVE SMOOTH",
"666 121 OFFCURVE",
"662 132 OFFCURVE",
"655 132 CURVE SMOOTH",
"648 132 OFFCURVE",
"642 111 OFFCURVE",
"623 111 CURVE SMOOTH",
"612 111 OFFCURVE",
"606 122 OFFCURVE",
"612 138 CURVE SMOOTH",
"677 335 LINE SMOOTH",
"713 445 OFFCURVE",
"656 529 OFFCURVE",
"554 529 CURVE SMOOTH"
);
},
{
closed = 1;
nodes = (
"387 472 OFFCURVE",
"343 529 OFFCURVE",
"262 529 CURVE SMOOTH",
"182 529 OFFCURVE",
"88 503 OFFCURVE",
"79 471 CURVE SMOOTH",
"70 438 OFFCURVE",
"125 443 OFFCURVE",
"110 395 CURVE SMOOTH",
"16 106 LINE SMOOTH",
"-4 46 OFFCURVE",
"-39 59 OFFCURVE",
"-48 31 CURVE SMOOTH",
"-53 13 OFFCURVE",
"-39 0 OFFCURVE",
"-3 0 CURVE SMOOTH",
"225 0 LINE SMOOTH",
"268 0 OFFCURVE",
"286 8 OFFCURVE",
"291 25 CURVE SMOOTH",
"300 51 OFFCURVE",
"248 48 OFFCURVE",
"267 104 CURVE SMOOTH",
"356 378 LINE SMOOTH"
);
}
);
};
layerId = "FF8CB9F1-2B98-444C-A502-96421F2531A8";
name = "Bold Italic";
paths = (
{
closed = 1;
nodes = (
"705 445 OFFCURVE",
"647 529 OFFCURVE",
"545 529 CURVE SMOOTH",
"480 529 OFFCURVE",
"417 509 OFFCURVE",
"358 425 CURVE",
"362 491 OFFCURVE",
"319 529 OFFCURVE",
"253 529 CURVE SMOOTH",
"173 529 OFFCURVE",
"79 503 OFFCURVE",
"71 471 CURVE SMOOTH",
"62 438 OFFCURVE",
"117 443 OFFCURVE",
"103 395 CURVE SMOOTH",
"14 106 LINE SMOOTH",
"-5 46 OFFCURVE",
"-40 59 OFFCURVE",
"-49 31 CURVE",
"-53 13 OFFCURVE",
"-39 0 OFFCURVE",
"-3 0 CURVE SMOOTH",
"225 0 LINE SMOOTH",
"268 0 OFFCURVE",
"286 8 OFFCURVE",
"291 25 CURVE SMOOTH",
"299 51 OFFCURVE",
"247 48 OFFCURVE",
"265 104 CURVE SMOOTH",
"327 308 LINE SMOOTH",
"339 347 OFFCURVE",
"368 379 OFFCURVE",
"398 379 CURVE SMOOTH",
"418 379 OFFCURVE",
"435 363 OFFCURVE",
"422 330 CURVE SMOOTH",
"367 186 LINE SMOOTH",
"355 155 OFFCURVE",
"349 126 OFFCURVE",
"349 103 CURVE SMOOTH",
"350 35 OFFCURVE",
"406 -9 OFFCURVE",
"494 -9 CURVE SMOOTH",
"607 -9 OFFCURVE",
"665 55 OFFCURVE",
"664 110 CURVE",
"664 121 OFFCURVE",
"660 132 OFFCURVE",
"653 132 CURVE SMOOTH",
"646 132 OFFCURVE",
"640 111 OFFCURVE",
"621 111 CURVE SMOOTH",
"610 111 OFFCURVE",
"604 122 OFFCURVE",
"610 138 CURVE",
"671 335 LINE SMOOTH"
);
}
);
width = 698;
},
{
associatedMasterId = "FF8CB9F1-2B98-444C-A502-96421F2531A8";
background = {
paths = (
{
closed = 1;
nodes = (
"159 755 OFFCURVE",
"127 740 OFFCURVE",
"127 721 CURVE SMOOTH",
"127 698 OFFCURVE",
"157 681 OFFCURVE",
"138 626 CURVE SMOOTH",
"5 238 LINE SMOOTH",
"-46 88 OFFCURVE",
"46 -4 OFFCURVE",
"175 -4 CURVE SMOOTH",
"255 -4 OFFCURVE",
"294 35 OFFCURVE",
"319 117 CURVE SMOOTH",
"446 533 LINE SMOOTH",
"482 652 OFFCURVE",
"392 755 OFFCURVE",
"224 755 CURVE SMOOTH"
);
},
{
closed = 0;
nodes = (
"552 499 LINE SMOOTH",
"466 271 LINE SMOOTH",
"449 227 OFFCURVE",
"439 189 OFFCURVE",
"439 156 CURVE SMOOTH",
"439 49 OFFCURVE",
"527 -4 OFFCURVE",
"646 -4 CURVE SMOOTH",
"772 -4 OFFCURVE",
"872 88 OFFCURVE",
"872 166 CURVE SMOOTH",
"872 182 OFFCURVE",
"866 198 OFFCURVE",
"856 198 CURVE SMOOTH",
"845 198 OFFCURVE",
"837 168 OFFCURVE",
"810 168 CURVE SMOOTH",
"794 168 OFFCURVE",
"787 183 OFFCURVE",
"794 206 CURVE SMOOTH",
"878 479 LINE SMOOTH",
"925 632 OFFCURVE",
"852 755 OFFCURVE",
"692 755 CURVE SMOOTH",
"586 755 OFFCURVE",
"476 711 OFFCURVE",
"372 535 CURVE",
"425 465 LINE",
"445 528 OFFCURVE",
"479 542 OFFCURVE",
"502 542 CURVE SMOOTH",
"534 542 OFFCURVE",
"559 520 OFFCURVE",
"544 472 CURVE"
);
}
);
};
guideLines = (
{
angle = 72.9336;
position = "{128, 595}";
}
);
layerId = "D9F892F9-75F4-4AA6-A67D-BB0C665F7A39";
name = "Bold Italic Jul 27 15, 12:48";
paths = (
{
closed = 1;
nodes = (
"586 755 OFFCURVE",
"476 711 OFFCURVE",
"372 535 CURVE",
"425 465 LINE",
"445 528 OFFCURVE",
"479 542 OFFCURVE",
"502 542 CURVE SMOOTH",
"534 542 OFFCURVE",
"560 519 OFFCURVE",
"542 472 CURVE SMOOTH",
"466 271 LINE SMOOTH",
"449 227 OFFCURVE",
"439 189 OFFCURVE",
"439 156 CURVE SMOOTH",
"439 49 OFFCURVE",
"527 -4 OFFCURVE",
"646 -4 CURVE SMOOTH",
"772 -4 OFFCURVE",
"872 88 OFFCURVE",
"872 166 CURVE SMOOTH",
"872 182 OFFCURVE",
"866 198 OFFCURVE",
"856 198 CURVE SMOOTH",
"845 198 OFFCURVE",
"837 168 OFFCURVE",
"810 168 CURVE SMOOTH",
"794 168 OFFCURVE",
"787 183 OFFCURVE",
"794 206 CURVE SMOOTH",
"878 479 LINE SMOOTH",
"925 632 OFFCURVE",
"852 755 OFFCURVE",
"692 755 CURVE SMOOTH"
);
},
{
closed = 1;
nodes = (
"159 755 OFFCURVE",
"127 740 OFFCURVE",
"127 721 CURVE SMOOTH",
"127 698 OFFCURVE",
"157 681 OFFCURVE",
"138 626 CURVE SMOOTH",
"5 238 LINE SMOOTH",
"-46 88 OFFCURVE",
"46 -4 OFFCURVE",
"175 -4 CURVE SMOOTH",
"255 -4 OFFCURVE",
"294 35 OFFCURVE",
"319 117 CURVE SMOOTH",
"446 533 LINE SMOOTH",
"482 652 OFFCURVE",
"392 755 OFFCURVE",
"224 755 CURVE SMOOTH"
);
}
);
width = 938;
}
);
rightKerningGroup = m;
unicode = 006E;
},
{
glyphname = o;
lastChange = "2015-09-03 16:32:11 +0000";
layers = (
{
anchors = (
{
name = top;
position = "{379, 500}";
}
);
background = {
paths = (
{
closed = 1;
nodes = (
"264 755 OFFCURVE",
"26 543 OFFCURVE",
"26 251 CURVE SMOOTH",
"26 90 OFFCURVE",
"160 -13 OFFCURVE",
"400 -13 CURVE SMOOTH",
"698 -13 OFFCURVE",
"934 194 OFFCURVE",
"934 486 CURVE SMOOTH",
"934 647 OFFCURVE",
"802 755 OFFCURVE",
"562 755 CURVE SMOOTH"
);
},
{
closed = 1;
nodes = (
"592 629 OFFCURVE",
"618 599 OFFCURVE",
"541 363 CURVE SMOOTH",
"470 147 OFFCURVE",
"429 109 OFFCURVE",
"395 112 CURVE SMOOTH",
"359 112 OFFCURVE",
"332 137 OFFCURVE",
"409 373 CURVE SMOOTH",
"480 589 OFFCURVE",
"522 629 OFFCURVE",
"556 629 CURVE SMOOTH"
);
}
);
};
guideLines = (
{
position = "{211, 375}";
showMeasurement = 1;
}
);
layerId = "FF8CB9F1-2B98-444C-A502-96421F2531A8";
name = "Bold Italic";
paths = (
{
closed = 1;
nodes = (
"215 529 OFFCURVE",
"62 421 OFFCURVE",
"24 263 CURVE SMOOTH",
"-10 116 OFFCURVE",
"57 -9 OFFCURVE",
"288 -9 CURVE SMOOTH",
"466 -9 OFFCURVE",
"611 97 OFFCURVE",
"650 263 CURVE SMOOTH",
"683 402 OFFCURVE",
"621 529 OFFCURVE",
"393 529 CURVE SMOOTH"
);
},
{
closed = 1;
nodes = (
"415 440 OFFCURVE",
"434 419 OFFCURVE",
"384 262 CURVE SMOOTH",
"335 103 OFFCURVE",
"308 76 OFFCURVE",
"284 78 CURVE SMOOTH",
"259 78 OFFCURVE",
"239 96 OFFCURVE",
"290 261 CURVE SMOOTH",
"337 412 OFFCURVE",
"366 440 OFFCURVE",
"390 440 CURVE SMOOTH"
);
}
);
width = 668;
}
);
leftKerningGroup = o;
unicode = 006F;
},
{
glyphname = p;
lastChange = "2015-09-03 16:32:11 +0000";
layers = (
{
background = {
paths = (
{
closed = 1;
nodes = (
"625 761 OFFCURVE",
"520 689 OFFCURVE",
"436 515 CURVE",
"472 478 LINE",
"506 550 OFFCURVE",
"547 562 OFFCURVE",
"561 562 CURVE SMOOTH",
"597 562 OFFCURVE",
"621 542 OFFCURVE",
"559 337 CURVE SMOOTH",
"502 148 OFFCURVE",
"452 125 OFFCURVE",
"411 125 CURVE SMOOTH",
"382 125 OFFCURVE",
"361 143 OFFCURVE",
"343 179 CURVE",
"293 59 LINE",
"345 9 OFFCURVE",
"428 -13 OFFCURVE",
"504 -13 CURVE SMOOTH",
"701 -13 OFFCURVE",
"877 104 OFFCURVE",
"942 349 CURVE SMOOTH",
"1006 592 OFFCURVE",
"920 761 OFFCURVE",
"732 761 CURVE SMOOTH"
);
},
{
closed = 1;
nodes = (
"244 755 OFFCURVE",
"113 709 OFFCURVE",
"102 673 CURVE SMOOTH",
"87 626 OFFCURVE",
"168 633 OFFCURVE",
"146 564 CURVE SMOOTH",
"-74 -120 LINE SMOOTH",
"-102 -207 OFFCURVE",
"-152 -187 OFFCURVE",
"-165 -228 CURVE SMOOTH",
"-173 -253 OFFCURVE",
"-152 -272 OFFCURVE",
"-101 -272 CURVE SMOOTH",
"225 -272 LINE SMOOTH",
"286 -272 OFFCURVE",
"311 -261 OFFCURVE",
"319 -237 CURVE SMOOTH",
"331 -199 OFFCURVE",
"258 -204 OFFCURVE",
"284 -124 CURVE SMOOTH",
"501 548 LINE SMOOTH",
"542 675 OFFCURVE",
"480 755 OFFCURVE",
"362 755 CURVE SMOOTH"
);
}
);
};
layerId = "FF8CB9F1-2B98-444C-A502-96421F2531A8";
name = "Bold Italic";
paths = (
{
closed = 1;
nodes = (
"429 533 OFFCURVE",
"356 482 OFFCURVE",
"299 361 CURVE",
"324 335 LINE",
"347 385 OFFCURVE",
"376 393 OFFCURVE",
"386 393 CURVE SMOOTH",
"411 393 OFFCURVE",
"427 379 OFFCURVE",
"387 236 CURVE SMOOTH",
"348 98 OFFCURVE",
"314 82 OFFCURVE",
"285 82 CURVE SMOOTH",
"265 82 OFFCURVE",
"249 95 OFFCURVE",
"237 120 CURVE",
"204 41 LINE",
"241 6 OFFCURVE",
"300 -9 OFFCURVE",
"353 -9 CURVE SMOOTH",
"491 -9 OFFCURVE",
"613 73 OFFCURVE",
"655 244 CURVE SMOOTH",
"697 414 OFFCURVE",
"635 533 OFFCURVE",
"503 533 CURVE SMOOTH"
);
},
{
closed = 1;
nodes = (
"371 471 OFFCURVE",
"326 529 OFFCURVE",
"245 529 CURVE SMOOTH",
"165 529 OFFCURVE",
"71 503 OFFCURVE",
"63 471 CURVE SMOOTH",
"54 438 OFFCURVE",
"110 442 OFFCURVE",
"95 395 CURVE SMOOTH",
"-51 -84 LINE SMOOTH",
"-68 -144 OFFCURVE",
"-104 -131 OFFCURVE",
"-112 -160 CURVE SMOOTH",
"-118 -177 OFFCURVE",
"-103 -190 OFFCURVE",
"-68 -190 CURVE SMOOTH",
"161 -190 LINE SMOOTH",
"203 -190 OFFCURVE",
"221 -183 OFFCURVE",
"226 -166 CURVE SMOOTH",
"234 -139 OFFCURVE",
"183 -141 OFFCURVE",
"201 -87 CURVE SMOOTH",
"342 378 LINE SMOOTH"
);
}
);
width = 677;
},
{
associatedMasterId = "FF8CB9F1-2B98-444C-A502-96421F2531A8";
background = {
paths = (
{
closed = 1;
nodes = (
"159 755 OFFCURVE",
"127 740 OFFCURVE",
"127 721 CURVE SMOOTH",
"127 698 OFFCURVE",
"157 682 OFFCURVE",
"138 626 CURVE SMOOTH",
"-84 -30 LINE SMOOTH",
"-135 -180 OFFCURVE",
"-43 -272 OFFCURVE",
"86 -272 CURVE SMOOTH",
"166 -272 OFFCURVE",
"204 -234 OFFCURVE",
"230 -151 CURVE SMOOTH",
"446 533 LINE SMOOTH",
"483 652 OFFCURVE",
"392 755 OFFCURVE",
"224 755 CURVE SMOOTH"
);
},
{
closed = 1;
nodes = (
"520 761 OFFCURVE",
"447 726 OFFCURVE",
"363 638 CURVE",
"429 555 LINE",
"463 585 OFFCURVE",
"504 593 OFFCURVE",
"518 593 CURVE SMOOTH",
"554 593 OFFCURVE",
"583 522 OFFCURVE",
"528 353 CURVE SMOOTH",
"465 158 OFFCURVE",
"420 143 OFFCURVE",
"379 143 CURVE SMOOTH",
"350 143 OFFCURVE",
"329 161 OFFCURVE",
"311 197 CURVE",
"256 49 LINE",
"294 9 OFFCURVE",
"378 -2 OFFCURVE",
"439 -2 CURVE SMOOTH",
"719 -2 OFFCURVE",
"901 205 OFFCURVE",
"901 497 CURVE SMOOTH",
"901 658 OFFCURVE",
"794 761 OFFCURVE",
"627 761 CURVE SMOOTH"
);
}
);
};
layerId = "9F3411B1-B281-40FA-AB0B-1667639318A6";
name = "Bold Italic Jul 27 15, 13:22";
paths = (
{
closed = 1;
nodes = (
"159 755 OFFCURVE",
"127 740 OFFCURVE",
"127 721 CURVE SMOOTH",
"127 698 OFFCURVE",
"157 682 OFFCURVE",
"138 626 CURVE SMOOTH",
"-84 -30 LINE SMOOTH",
"-135 -180 OFFCURVE",
"-43 -272 OFFCURVE",
"86 -272 CURVE SMOOTH",
"166 -272 OFFCURVE",
"204 -234 OFFCURVE",
"230 -151 CURVE SMOOTH",
"446 533 LINE SMOOTH",
"483 652 OFFCURVE",
"392 755 OFFCURVE",
"224 755 CURVE SMOOTH"
);
},
{
closed = 1;
nodes = (
"520 761 OFFCURVE",
"447 726 OFFCURVE",
"363 638 CURVE",
"429 555 LINE",
"463 585 OFFCURVE",
"504 593 OFFCURVE",
"518 593 CURVE SMOOTH",
"554 593 OFFCURVE",
"583 522 OFFCURVE",
"528 353 CURVE SMOOTH",
"465 158 OFFCURVE",
"420 143 OFFCURVE",
"379 143 CURVE SMOOTH",
"350 143 OFFCURVE",
"329 161 OFFCURVE",
"311 197 CURVE",
"256 49 LINE",
"294 9 OFFCURVE",
"378 -2 OFFCURVE",
"439 -2 CURVE SMOOTH",
"719 -2 OFFCURVE",
"901 205 OFFCURVE",
"901 497 CURVE SMOOTH",
"901 658 OFFCURVE",
"794 761 OFFCURVE",
"627 761 CURVE SMOOTH"
);
}
);
width = 927;
}
);
unicode = 0070;
},
{
glyphname = q;
lastChange = "2015-09-03 16:32:11 +0000";
layers = (
{
background = {
paths = (
{
closed = 1;
nodes = (
"2 134 OFFCURVE",
"124 -4 OFFCURVE",
"280 -4 CURVE SMOOTH",
"398 -4 OFFCURVE",
"477 62 OFFCURVE",
"535 140 CURVE",
"552 273 LINE",
"531 208 OFFCURVE",
"513 182 OFFCURVE",
"483 182 CURVE SMOOTH",
"435 182 OFFCURVE",
"406 245 OFFCURVE",
"458 405 CURVE SMOOTH",
"511 568 OFFCURVE",
"551 610 OFFCURVE",
"596 610 CURVE SMOOTH",
"630 610 OFFCURVE",
"652 585 OFFCURVE",
"630 516 CURVE",
"777 602 LINE",
"712 705 OFFCURVE",
"637 755 OFFCURVE",
"492 755 CURVE SMOOTH",
"318 755 OFFCURVE",
"137 643 OFFCURVE",
"72 397 CURVE SMOOTH"
);
},
{
closed = 1;
nodes = (
"451 -37 LINE SMOOTH",
"404 -184 OFFCURVE",
"483 -272 OFFCURVE",
"611 -272 CURVE SMOOTH",
"766 -272 OFFCURVE",
"961 -142 OFFCURVE",
"961 -54 CURVE SMOOTH",
"961 -41 OFFCURVE",
"956 -31 OFFCURVE",
"944 -31 CURVE SMOOTH",
"926 -31 OFFCURVE",
"898 -41 OFFCURVE",
"865 -41 CURVE SMOOTH",
"826 -41 OFFCURVE",
"814 -27 OFFCURVE",
"838 49 CURVE SMOOTH",
"1033 654 LINE SMOOTH",
"1051 709 OFFCURVE",
"1024 742 OFFCURVE",
"965 742 CURVE SMOOTH",
"902 742 LINE SMOOTH",
"849 742 OFFCURVE",
"816 724 OFFCURVE",
"777 692 CURVE SMOOTH",
"685 615 LINE SMOOTH",
"672 604 OFFCURVE",
"648 570 OFFCURVE",
"621 489 CURVE SMOOTH"
);
}
);
};
layerId = "FF8CB9F1-2B98-444C-A502-96421F2531A8";
name = "Bold Italic";
paths = (
{
closed = 1;
nodes = (
"-1 94 OFFCURVE",
"87 -3 OFFCURVE",
"196 -3 CURVE SMOOTH",
"279 -3 OFFCURVE",
"333 43 OFFCURVE",
"373 98 CURVE",
"383 191 LINE",
"369 146 OFFCURVE",
"357 127 OFFCURVE",
"336 127 CURVE SMOOTH",
"303 127 OFFCURVE",
"281 172 OFFCURVE",
"316 284 CURVE SMOOTH",
"351 398 OFFCURVE",
"379 427 OFFCURVE",
"410 427 CURVE SMOOTH",
"434 427 OFFCURVE",
"449 410 OFFCURVE",
"435 361 CURVE",
"537 421 LINE",
"489 493 OFFCURVE",
"437 529 OFFCURVE",
"335 529 CURVE SMOOTH",
"214 529 OFFCURVE",
"88 450 OFFCURVE",
"45 278 CURVE SMOOTH"
);
},
{
closed = 1;
nodes = (
"316 -26 LINE SMOOTH",
"285 -129 OFFCURVE",
"341 -190 OFFCURVE",
"458 -190 CURVE SMOOTH",
"559 -190 OFFCURVE",
"664 -123 OFFCURVE",
"663 -72 CURVE SMOOTH",
"663 -63 OFFCURVE",
"660 -56 OFFCURVE",
"651 -56 CURVE SMOOTH",
"639 -56 OFFCURVE",
"619 -63 OFFCURVE",
"596 -63 CURVE SMOOTH",
"569 -63 OFFCURVE",
"560 -53 OFFCURVE",
"576 0 CURVE SMOOTH",
"715 458 LINE SMOOTH",
"727 496 OFFCURVE",
"708 519 OFFCURVE",
"667 519 CURVE SMOOTH",
"622 519 LINE SMOOTH",
"585 519 OFFCURVE",
"562 507 OFFCURVE",
"536 484 CURVE SMOOTH",
"471 431 LINE SMOOTH",
"463 423 OFFCURVE",
"447 399 OFFCURVE",
"429 342 CURVE SMOOTH"
);
}
);
width = 697;
}
);
leftKerningGroup = o;
unicode = 0071;
},
{
glyphname = r;
lastChange = "2015-09-03 16:32:11 +0000";
layers = (
{
anchors = (
{
name = top;
position = "{329, 500}";
}
);
background = {
paths = (
{
closed = 1;
nodes = (
"615 755 OFFCURVE",
"535 711 OFFCURVE",
"431 535 CURVE",
"484 465 LINE",
"504 528 OFFCURVE",
"523 557 OFFCURVE",
"546 557 CURVE SMOOTH",
"578 557 OFFCURVE",
"580 415 OFFCURVE",
"716 415 CURVE SMOOTH",
"779 415 OFFCURVE",
"834 436 OFFCURVE",
"873 533 CURVE SMOOTH",
"912 629 OFFCURVE",
"837 755 OFFCURVE",
"721 755 CURVE SMOOTH"
);
},
{
closed = 1;
nodes = (
"553 675 OFFCURVE",
"490 755 OFFCURVE",
"374 755 CURVE SMOOTH",
"260 755 OFFCURVE",
"125 718 OFFCURVE",
"113 673 CURVE SMOOTH",
"100 626 OFFCURVE",
"179 633 OFFCURVE",
"157 564 CURVE SMOOTH",
"23 152 LINE SMOOTH",
"-5 65 OFFCURVE",
"-55 85 OFFCURVE",
"-68 44 CURVE SMOOTH",
"-76 19 OFFCURVE",
"-55 0 OFFCURVE",
"-4 0 CURVE SMOOTH",
"322 0 LINE SMOOTH",
"383 0 OFFCURVE",
"408 11 OFFCURVE",
"416 35 CURVE SMOOTH",
"428 73 OFFCURVE",
"355 68 OFFCURVE",
"381 148 CURVE SMOOTH",
"509 540 LINE SMOOTH"
);
}
);
};
layerId = "FF8CB9F1-2B98-444C-A502-96421F2531A8";
name = "Bold Italic";
paths = (
{
closed = 1;
nodes = (
"415 529 OFFCURVE",
"352 491 OFFCURVE",
"310 361 CURVE",
"342 354 LINE",
"350 382 OFFCURVE",
"360 390 OFFCURVE",
"373 390 CURVE SMOOTH",
"410 390 OFFCURVE",
"401 291 OFFCURVE",
"496 291 CURVE SMOOTH",
"547 291 OFFCURVE",
"588 320 OFFCURVE",
"601 376 CURVE SMOOTH",
"621 455 OFFCURVE",
"573 529 OFFCURVE",
"482 529 CURVE SMOOTH"
);
},
{
closed = 1;
nodes = (
"379 473 OFFCURVE",
"334 529 OFFCURVE",
"253 529 CURVE SMOOTH",
"173 529 OFFCURVE",
"79 503 OFFCURVE",
"71 471 CURVE SMOOTH",
"62 438 OFFCURVE",
"117 443 OFFCURVE",
"103 395 CURVE SMOOTH",
"14 106 LINE SMOOTH",
"-5 46 OFFCURVE",
"-40 59 OFFCURVE",
"-49 31 CURVE SMOOTH",
"-53 13 OFFCURVE",
"-39 0 OFFCURVE",
"-3 0 CURVE SMOOTH",
"253 0 LINE SMOOTH",
"295 0 OFFCURVE",
"307 8 OFFCURVE",
"310 25 CURVE SMOOTH",
"314 53 OFFCURVE",
"250 52 OFFCURVE",
"265 104 CURVE SMOOTH",
"349 378 LINE SMOOTH"
);
}
);
width = 561;
},
{
associatedMasterId = "FF8CB9F1-2B98-444C-A502-96421F2531A8";
background = {
paths = (
{
closed = 1;
nodes = (
"159 755 OFFCURVE",
"127 740 OFFCURVE",
"127 721 CURVE SMOOTH",
"127 698 OFFCURVE",
"157 681 OFFCURVE",
"138 626 CURVE SMOOTH",
"5 238 LINE SMOOTH",
"-46 88 OFFCURVE",
"46 -4 OFFCURVE",
"175 -4 CURVE SMOOTH",
"255 -4 OFFCURVE",
"294 35 OFFCURVE",
"319 117 CURVE SMOOTH",
"446 533 LINE SMOOTH",
"482 652 OFFCURVE",
"392 755 OFFCURVE",
"224 755 CURVE SMOOTH"
);
},
{
closed = 1;
nodes = (
"546 755 OFFCURVE",
"476 711 OFFCURVE",
"372 535 CURVE",
"425 465 LINE",
"445 528 OFFCURVE",
"454 557 OFFCURVE",
"477 557 CURVE SMOOTH",
"509 557 OFFCURVE",
"511 415 OFFCURVE",
"647 415 CURVE SMOOTH",
"710 415 OFFCURVE",
"765 436 OFFCURVE",
"804 533 CURVE SMOOTH",
"843 629 OFFCURVE",
"768 755 OFFCURVE",
"652 755 CURVE SMOOTH"
);
}
);
};
layerId = "CFC98002-C347-4BDA-9E6C-A17C5E16C8FC";
name = "Bold Italic Jul 27 15, 14:52";
paths = (
{
closed = 1;
nodes = (
"159 755 OFFCURVE",
"127 740 OFFCURVE",
"127 721 CURVE SMOOTH",
"127 698 OFFCURVE",
"157 681 OFFCURVE",
"138 626 CURVE SMOOTH",
"5 238 LINE SMOOTH",
"-46 88 OFFCURVE",
"46 -4 OFFCURVE",
"175 -4 CURVE SMOOTH",
"255 -4 OFFCURVE",
"294 35 OFFCURVE",
"319 117 CURVE SMOOTH",
"446 533 LINE SMOOTH",
"482 652 OFFCURVE",
"392 755 OFFCURVE",
"224 755 CURVE SMOOTH"
);
},
{
closed = 1;
nodes = (
"546 755 OFFCURVE",
"476 711 OFFCURVE",
"372 535 CURVE",
"425 465 LINE",
"445 528 OFFCURVE",
"454 557 OFFCURVE",
"477 557 CURVE SMOOTH",
"509 557 OFFCURVE",
"511 415 OFFCURVE",
"647 415 CURVE SMOOTH",
"710 415 OFFCURVE",
"765 436 OFFCURVE",
"804 533 CURVE SMOOTH",
"843 629 OFFCURVE",
"768 755 OFFCURVE",
"652 755 CURVE SMOOTH"
);
}
);
width = 731;
}
);
unicode = 0072;
},
{
glyphname = s;
lastChange = "2015-09-03 16:32:11 +0000";
layers = (
{
associatedMasterId = "FF8CB9F1-2B98-444C-A502-96421F2531A8";
background = {
paths = (
{
closed = 1;
nodes = (
"142 -2 OFFCURVE",
"12 74 OFFCURVE",
"12 162 CURVE SMOOTH",
"12 217 OFFCURVE",
"44 212 OFFCURVE",
"66 212 CURVE SMOOTH",
"125 212 OFFCURVE",
"184 154 OFFCURVE",
"264 154 CURVE SMOOTH",
"296 154 OFFCURVE",
"307 169 OFFCURVE",
"307 201 CURVE SMOOTH",
"307 233 OFFCURVE",
"81 332 OFFCURVE",
"81 491 CURVE SMOOTH",
"81 649 OFFCURVE",
"238 758 OFFCURVE",
"437 758 CURVE SMOOTH",
"589 758 OFFCURVE",
"692 677 OFFCURVE",
"692 621 CURVE SMOOTH",
"692 593 OFFCURVE",
"676 574 OFFCURVE",
"644 574 CURVE SMOOTH",
"602 574 OFFCURVE",
"554 630 OFFCURVE",
"477 630 CURVE SMOOTH",
"442 630 OFFCURVE",
"417 635 OFFCURVE",
"417 608 CURVE SMOOTH",
"417 542 OFFCURVE",
"676 462 OFFCURVE",
"676 280 CURVE SMOOTH",
"676 132 OFFCURVE",
"539 -2 OFFCURVE",
"358 -2 CURVE SMOOTH"
);
}
);
};
layerId = "3DE710FB-3228-4122-A3FA-62D90E4995FE";
name = "Bold Italic Jul 3 15, 10:38";
paths = (
{
closed = 1;
nodes = (
"109 -2 OFFCURVE",
"-15 74 OFFCURVE",
"-7 162 CURVE SMOOTH",
"-2 217 OFFCURVE",
"35 273 OFFCURVE",
"57 273 CURVE SMOOTH",
"116 273 OFFCURVE",
"111 223 OFFCURVE",
"250 223 CURVE SMOOTH",
"283 223 OFFCURVE",
"295 238 OFFCURVE",
"298 270 CURVE SMOOTH",
"300 302 OFFCURVE",
"80 371 OFFCURVE",
"94 530 CURVE SMOOTH",
"108 688 OFFCURVE",
"271 758 OFFCURVE",
"470 758 CURVE SMOOTH",
"622 758 OFFCURVE",
"718 677 OFFCURVE",
"713 621 CURVE SMOOTH",
"711 593 OFFCURVE",
"693 574 OFFCURVE",
"661 574 CURVE SMOOTH",
"619 574 OFFCURVE",
"576 630 OFFCURVE",
"499 630 CURVE SMOOTH",
"464 630 OFFCURVE",
"439 635 OFFCURVE",
"437 608 CURVE SMOOTH",
"431 542 OFFCURVE",
"683 462 OFFCURVE",
"667 280 CURVE SMOOTH",
"655 132 OFFCURVE",
"506 -2 OFFCURVE",
"325 -2 CURVE SMOOTH"
);
}
);
width = 716;
},
{
anchors = (
{
name = top;
position = "{329, 500}";
}
);
background = {
paths = (
{
closed = 1;
nodes = (
"240 769 OFFCURVE",
"99 662 OFFCURVE",
"99 509 CURVE SMOOTH",
"99 309 OFFCURVE",
"431 295 OFFCURVE",
"431 197 CURVE SMOOTH",
"431 141 OFFCURVE",
"389 107 OFFCURVE",
"351 107 CURVE SMOOTH",
"324 107 OFFCURVE",
"305 110 OFFCURVE",
"279 116 CURVE",
"307 232 OFFCURVE",
"217 311 OFFCURVE",
"114 311 CURVE SMOOTH",
"43 311 OFFCURVE",
"-3 283 OFFCURVE",
"-18 227 CURVE SMOOTH",
"-58 76 OFFCURVE",
"106 -6 OFFCURVE",
"352 -6 CURVE SMOOTH",
"618 -6 OFFCURVE",
"762 85 OFFCURVE",
"796 216 CURVE SMOOTH",
"857 447 OFFCURVE",
"422 462 OFFCURVE",
"420 582 CURVE SMOOTH",
"419 633 OFFCURVE",
"458 671 OFFCURVE",
"493 671 CURVE SMOOTH",
"500 671 OFFCURVE",
"542 669 OFFCURVE",
"548 667 CURVE",
"519 556 OFFCURVE",
"603 487 OFFCURVE",
"710 487 CURVE SMOOTH",
"807 487 OFFCURVE",
"861 540 OFFCURVE",
"860 597 CURVE SMOOTH",
"859 702 OFFCURVE",
"728 769 OFFCURVE",
"488 769 CURVE SMOOTH"
);
}
);
};
layerId = "FF8CB9F1-2B98-444C-A502-96421F2531A8";
name = "Bold Italic";
paths = (
{
closed = 1;
nodes = (
"152 538 OFFCURVE",
"61 463 OFFCURVE",
"63 356 CURVE SMOOTH",
"65 216 OFFCURVE",
"298 207 OFFCURVE",
"300 128 CURVE SMOOTH",
"300 94 OFFCURVE",
"273 75 OFFCURVE",
"240 75 CURVE SMOOTH",
"222 75 OFFCURVE",
"210 77 OFFCURVE",
"194 81 CURVE",
"212 162 OFFCURVE",
"148 218 OFFCURVE",
"76 218 CURVE SMOOTH",
"32 218 OFFCURVE",
"-3 200 OFFCURVE",
"-15 160 CURVE SMOOTH",
"-43 57 OFFCURVE",
"74 -4 OFFCURVE",
"272 -4 CURVE SMOOTH",
"433 -4 OFFCURVE",
"532 53 OFFCURVE",
"553 141 CURVE SMOOTH",
"593 314 OFFCURVE",
"288 319 OFFCURVE",
"287 413 CURVE SMOOTH",
"286 443 OFFCURVE",
"312 459 OFFCURVE",
"344 459 CURVE SMOOTH",
"354 459 OFFCURVE",
"365 457 OFFCURVE",
"376 454 CURVE",
"356 389 OFFCURVE",
"416 341 OFFCURVE",
"491 341 CURVE SMOOTH",
"559 341 OFFCURVE",
"596 375 OFFCURVE",
"595 422 CURVE SMOOTH",
"592 489 OFFCURVE",
"494 538 OFFCURVE",
"326 538 CURVE SMOOTH"
);
}
);
width = 583;
},
{
associatedMasterId = "FF8CB9F1-2B98-444C-A502-96421F2531A8";
background = {
paths = (
{
closed = 1;
nodes = (
"259 -2 OFFCURVE",
"129 74 OFFCURVE",
"129 162 CURVE SMOOTH",
"129 217 OFFCURVE",
"161 212 OFFCURVE",
"183 212 CURVE SMOOTH",
"242 212 OFFCURVE",
"301 154 OFFCURVE",
"381 154 CURVE SMOOTH",
"413 154 OFFCURVE",
"424 169 OFFCURVE",
"424 201 CURVE SMOOTH",
"424 233 OFFCURVE",
"198 332 OFFCURVE",
"198 491 CURVE SMOOTH",
"198 649 OFFCURVE",
"355 758 OFFCURVE",
"554 758 CURVE SMOOTH",
"706 758 OFFCURVE",
"809 677 OFFCURVE",
"809 621 CURVE SMOOTH",
"809 593 OFFCURVE",
"793 574 OFFCURVE",
"761 574 CURVE SMOOTH",
"719 574 OFFCURVE",
"671 630 OFFCURVE",
"594 630 CURVE SMOOTH",
"559 630 OFFCURVE",
"534 635 OFFCURVE",
"534 608 CURVE SMOOTH",
"534 542 OFFCURVE",
"793 462 OFFCURVE",
"793 280 CURVE SMOOTH",
"793 132 OFFCURVE",
"656 -2 OFFCURVE",
"475 -2 CURVE SMOOTH"
);
}
);
};
layerId = "540BBBD7-D0F9-4756-B0AA-CF0C3D8E81EF";
name = "Bold Italic Jul 30 15, 21:55";
paths = (
{
closed = 1;
nodes = (
"280 769 OFFCURVE",
"135 688 OFFCURVE",
"118 559 CURVE SMOOTH",
"91 360 OFFCURVE",
"388 294 OFFCURVE",
"381 172 CURVE SMOOTH",
"378 131 OFFCURVE",
"347 109 OFFCURVE",
"299 107 CURVE SMOOTH",
"286 106 OFFCURVE",
"274 109 OFFCURVE",
"262 113 CURVE",
"291 222 OFFCURVE",
"239 311 OFFCURVE",
"130 311 CURVE SMOOTH",
"50 311 OFFCURVE",
"-26 265 OFFCURVE",
"-26 172 CURVE SMOOTH",
"-26 70 OFFCURVE",
"93 -10 OFFCURVE",
"326 -10 CURVE SMOOTH",
"618 -10 OFFCURVE",
"744 93 OFFCURVE",
"762 214 CURVE SMOOTH",
"793 415 OFFCURVE",
"428 482 OFFCURVE",
"428 602 CURVE SMOOTH",
"428 653 OFFCURVE",
"473 671 OFFCURVE",
"508 671 CURVE SMOOTH",
"515 671 OFFCURVE",
"524 669 OFFCURVE",
"530 667 CURVE",
"499 556 OFFCURVE",
"562 487 OFFCURVE",
"669 487 CURVE SMOOTH",
"766 487 OFFCURVE",
"821 540 OFFCURVE",
"821 597 CURVE SMOOTH",
"821 702 OFFCURVE",
"682 769 OFFCURVE",
"479 769 CURVE SMOOTH"
);
}
);
width = 833;
}
);
unicode = 0073;
},
{
glyphname = t;
lastChange = "2015-09-03 16:32:11 +0000";
layers = (
{
background = {
paths = (
{
closed = 1;
nodes = (
"375 634 OFFCURVE",
"394 612 OFFCURVE",
"439 612 CURVE SMOOTH",
"591 612 LINE SMOOTH",
"637 612 OFFCURVE",
"667 634 OFFCURVE",
"678 674 CURVE SMOOTH",
"690 715 OFFCURVE",
"671 737 OFFCURVE",
"626 737 CURVE SMOOTH",
"474 737 LINE SMOOTH",
"429 737 OFFCURVE",
"398 715 OFFCURVE",
"386 674 CURVE SMOOTH"
);
},
{
closed = 1;
nodes = (
"124 737 CURVE SMOOTH",
"68 737 OFFCURVE",
"41 715 OFFCURVE",
"41 678 CURVE SMOOTH",
"41 629 OFFCURVE",
"154 617 OFFCURVE",
"122 519 CURVE SMOOTH",
"23 222 LINE SMOOTH",
"-24 79 OFFCURVE",
"45 -13 OFFCURVE",
"202 -13 CURVE SMOOTH",
"394 -13 OFFCURVE",
"548 83 OFFCURVE",
"548 156 CURVE SMOOTH",
"548 169 OFFCURVE",
"542 179 OFFCURVE",
"529 179 CURVE SMOOTH",
"509 179 OFFCURVE",
"479 169 OFFCURVE",
"442 169 CURVE SMOOTH",
"403 169 OFFCURVE",
"371 183 OFFCURVE",
"395 259 CURVE SMOOTH",
"568 796 LINE SMOOTH",
"586 851 OFFCURVE",
"560 884 OFFCURVE",
"491 884 CURVE SMOOTH",
"419 884 LINE SMOOTH",
"362 884 OFFCURVE",
"336 844 OFFCURVE"
);
}
);
};
guideLines = (
{
position = "{600, 737}";
}
);
layerId = "FF8CB9F1-2B98-444C-A502-96421F2531A8";
name = "Bold Italic";
paths = (
{
closed = 1;
nodes = (
"193 444 OFFCURVE",
"207 428 OFFCURVE",
"239 428 CURVE SMOOTH",
"407 428 LINE SMOOTH",
"439 428 OFFCURVE",
"459 444 OFFCURVE",
"467 472 CURVE SMOOTH",
"474 500 OFFCURVE",
"461 516 OFFCURVE",
"429 516 CURVE SMOOTH",
"261 516 LINE SMOOTH",
"230 516 OFFCURVE",
"208 500 OFFCURVE",
"201 472 CURVE SMOOTH"
);
},
{
closed = 1;
nodes = (
"199 579 CURVE SMOOTH",
"136 516 LINE",
"80 516 LINE SMOOTH",
"41 516 OFFCURVE",
"27 505 OFFCURVE",
"22 489 CURVE SMOOTH",
"11 443 OFFCURVE",
"103 435 OFFCURVE",
"77 353 CURVE SMOOTH",
"13 155 LINE SMOOTH",
"-19 56 OFFCURVE",
"46 -9 OFFCURVE",
"155 -9 CURVE SMOOTH",
"290 -9 OFFCURVE",
"383 72 OFFCURVE",
"382 109 CURVE SMOOTH",
"382 118 OFFCURVE",
"377 125 OFFCURVE",
"368 125 CURVE SMOOTH",
"354 125 OFFCURVE",
"333 118 OFFCURVE",
"307 118 CURVE SMOOTH",
"280 118 OFFCURVE",
"258 128 OFFCURVE",
"274 181 CURVE SMOOTH",
"390 562 LINE SMOOTH",
"404 610 OFFCURVE",
"385 638 OFFCURVE",
"331 638 CURVE SMOOTH",
"270 638 OFFCURVE",
"240 620 OFFCURVE"
);
}
);
width = 405;
}
);
unicode = 0074;
},
{
glyphname = u;
lastChange = "2015-09-03 16:32:11 +0000";
layers = (
{
anchors = (
{
name = top;
position = "{369, 500}";
}
);
background = {
paths = (
{
closed = 1;
nodes = (
"67 359 LINE",
"35 266 LINE SMOOTH",
"-26 88 OFFCURVE",
"80 -4 OFFCURVE",
"231 -4 CURVE SMOOTH",
"348 -4 OFFCURVE",
"468 65 OFFCURVE",
"546 220 CURVE",
"498 285 LINE",
"475 232 OFFCURVE",
"455 208 OFFCURVE",
"421 208 CURVE SMOOTH",
"390 208 OFFCURVE",
"377 231 OFFCURVE",
"385 269 CURVE SMOOTH",
"413 359 LINE"
);
},
{
closed = 1;
nodes = (
"643 755 OFFCURVE",
"611 740 OFFCURVE",
"611 721 CURVE SMOOTH",
"611 698 OFFCURVE",
"641 681 OFFCURVE",
"622 626 CURVE SMOOTH",
"493 271 LINE SMOOTH",
"476 227 OFFCURVE",
"466 189 OFFCURVE",
"466 156 CURVE SMOOTH",
"466 49 OFFCURVE",
"554 -4 OFFCURVE",
"673 -4 CURVE SMOOTH",
"799 -4 OFFCURVE",
"899 88 OFFCURVE",
"899 166 CURVE SMOOTH",
"899 182 OFFCURVE",
"893 198 OFFCURVE",
"883 198 CURVE SMOOTH",
"872 198 OFFCURVE",
"864 168 OFFCURVE",
"837 168 CURVE SMOOTH",
"821 168 OFFCURVE",
"814 183 OFFCURVE",
"821 206 CURVE SMOOTH",
"930 533 LINE SMOOTH",
"972 650 OFFCURVE",
"876 755 OFFCURVE",
"708 755 CURVE SMOOTH"
);
},
{
closed = 1;
nodes = (
"413 359 LINE",
"466 533 LINE SMOOTH",
"502 652 OFFCURVE",
"412 755 OFFCURVE",
"244 755 CURVE SMOOTH",
"179 755 OFFCURVE",
"147 740 OFFCURVE",
"147 721 CURVE SMOOTH",
"147 698 OFFCURVE",
"177 681 OFFCURVE",
"158 626 CURVE SMOOTH",
"67 359 LINE"
);
}
);
};
guideLines = (
{
angle = 71.9833;
position = "{978, 576}";
},
{
angle = 71.9833;
position = "{651, 676}";
}
);
layerId = "FF8CB9F1-2B98-444C-A502-96421F2531A8";
name = "Bold Italic";
paths = (
{
closed = 1;
nodes = (
"341 403 LINE SMOOTH",
"362 472 OFFCURVE",
"340 529 OFFCURVE",
"236 529 CURVE SMOOTH",
"156 529 OFFCURVE",
"62 503 OFFCURVE",
"54 471 CURVE SMOOTH",
"45 438 OFFCURVE",
"101 443 OFFCURVE",
"86 395 CURVE SMOOTH",
"22 186 LINE SMOOTH",
"-20 62 OFFCURVE",
"71 -3 OFFCURVE",
"177 -3 CURVE SMOOTH",
"259 -3 OFFCURVE",
"342 46 OFFCURVE",
"395 154 CURVE",
"361 200 LINE",
"345 162 OFFCURVE",
"331 146 OFFCURVE",
"303 146 CURVE SMOOTH",
"281 146 OFFCURVE",
"267 162 OFFCURVE",
"278 195 CURVE SMOOTH"
);
},
{
closed = 1;
nodes = (
"356 186 LINE SMOOTH",
"346 155 OFFCURVE",
"342 126 OFFCURVE",
"342 103 CURVE SMOOTH",
"343 42 OFFCURVE",
"389 -9 OFFCURVE",
"484 -9 CURVE SMOOTH",
"583 -9 OFFCURVE",
"649 55 OFFCURVE",
"648 110 CURVE SMOOTH",
"648 121 OFFCURVE",
"643 132 OFFCURVE",
"636 132 CURVE SMOOTH",
"629 132 OFFCURVE",
"623 111 OFFCURVE",
"604 111 CURVE SMOOTH",
"593 111 OFFCURVE",
"588 122 OFFCURVE",
"593 138 CURVE SMOOTH",
"674 403 LINE SMOOTH",
"696 472 OFFCURVE",
"674 529 OFFCURVE",
"569 529 CURVE SMOOTH",
"489 529 OFFCURVE",
"395 503 OFFCURVE",
"388 471 CURVE SMOOTH",
"378 438 OFFCURVE",
"434 443 OFFCURVE",
"419 395 CURVE SMOOTH"
);
}
);
width = 685;
}
);
unicode = 0075;
},
{
glyphname = v;
lastChange = "2015-09-03 16:32:11 +0000";
layers = (
{
background = {
paths = (
{
closed = 1;
nodes = (
"51 266 LINE SMOOTH",
"37 221 OFFCURVE",
"30 180 OFFCURVE",
"30 147 CURVE SMOOTH",
"30 60 OFFCURVE",
"94 -13 OFFCURVE",
"230 -13 CURVE SMOOTH",
"371 -13 OFFCURVE",
"466 79 OFFCURVE",
"466 157 CURVE SMOOTH",
"466 173 OFFCURVE",
"460 189 OFFCURVE",
"450 189 CURVE SMOOTH",
"439 189 OFFCURVE",
"431 159 OFFCURVE",
"404 159 CURVE SMOOTH",
"388 159 OFFCURVE",
"381 174 OFFCURVE",
"388 197 CURVE SMOOTH",
"511 576 LINE SMOOTH",
"543 675 OFFCURVE",
"513 755 OFFCURVE",
"364 755 CURVE SMOOTH",
"250 755 OFFCURVE",
"115 718 OFFCURVE",
"103 673 CURVE SMOOTH",
"90 626 OFFCURVE",
"169 633 OFFCURVE",
"147 564 CURVE SMOOTH"
);
}
);
};
guideLines = (
{
position = "{122, 755}";
}
);
layerId = "FF8CB9F1-2B98-444C-A502-96421F2531A8";
name = "Bold Italic";
paths = (
{
closed = 1;
nodes = (
"423 529 OFFCURVE",
"388 468 OFFCURVE",
"389 404 CURVE SMOOTH",
"390 361 OFFCURVE",
"406 316 OFFCURVE",
"462 268 CURVE",
"423 163 OFFCURVE",
"347 106 OFFCURVE",
"305 106 CURVE SMOOTH",
"277 106 OFFCURVE",
"266 122 OFFCURVE",
"274 148 CURVE SMOOTH",
"339 362 LINE SMOOTH",
"367 456 OFFCURVE",
"318 529 OFFCURVE",
"205 529 CURVE SMOOTH",
"118 529 OFFCURVE",
"63 489 OFFCURVE",
"64 462 CURVE SMOOTH",
"64 440 OFFCURVE",
"107 433 OFFCURVE",
"96 395 CURVE SMOOTH",
"33 180 LINE SMOOTH",
"-5 55 OFFCURVE",
"85 -9 OFFCURVE",
"217 -9 CURVE SMOOTH",
"403 -9 OFFCURVE",
"624 207 OFFCURVE",
"621 391 CURVE SMOOTH",
"620 478 OFFCURVE",
"565 529 OFFCURVE",
"498 529 CURVE SMOOTH"
);
}
);
width = 606;
}
);
unicode = 0076;
},
{
glyphname = w;
lastChange = "2015-09-03 16:32:11 +0000";
layers = (
{
background = {
paths = (
{
closed = 1;
nodes = (
"1077 755 OFFCURVE",
"1025 669 OFFCURVE",
"1025 577 CURVE SMOOTH",
"1025 515 OFFCURVE",
"1048 452 OFFCURVE",
"1127 383 CURVE",
"1068 233 OFFCURVE",
"959 151 OFFCURVE",
"899 151 CURVE SMOOTH",
"859 151 OFFCURVE",
"843 175 OFFCURVE",
"855 212 CURVE SMOOTH",
"953 517 LINE SMOOTH",
"996 651 OFFCURVE",
"927 755 OFFCURVE",
"765 755 CURVE SMOOTH",
"641 755 OFFCURVE",
"563 698 OFFCURVE",
"563 660 CURVE SMOOTH",
"563 628 OFFCURVE",
"624 619 OFFCURVE",
"607 564 CURVE SMOOTH",
"511 257 LINE SMOOTH",
"455 79 OFFCURVE",
"581 -13 OFFCURVE",
"770 -13 CURVE SMOOTH",
"1036 -13 OFFCURVE",
"1357 295 OFFCURVE",
"1357 558 CURVE SMOOTH",
"1357 683 OFFCURVE",
"1280 755 OFFCURVE",
"1184 755 CURVE SMOOTH"
);
},
{
closed = 1;
nodes = (
"413 296 LINE",
"484 517 LINE SMOOTH",
"527 651 OFFCURVE",
"458 755 OFFCURVE",
"296 755 CURVE SMOOTH",
"172 755 OFFCURVE",
"94 698 OFFCURVE",
"94 660 CURVE SMOOTH",
"94 628 OFFCURVE",
"155 619 OFFCURVE",
"138 564 CURVE SMOOTH",
"54 296 LINE"
);
}
);
};
guideLines = (
{
position = "{273, 208}";
}
);
layerId = "FF8CB9F1-2B98-444C-A502-96421F2531A8";
name = "Bold Italic";
paths = (
{
closed = 1;
nodes = (
"751 529 OFFCURVE",
"716 468 OFFCURVE",
"717 404 CURVE SMOOTH",
"718 361 OFFCURVE",
"734 316 OFFCURVE",
"790 268 CURVE",
"751 163 OFFCURVE",
"676 106 OFFCURVE",
"634 106 CURVE SMOOTH",
"606 106 OFFCURVE",
"594 122 OFFCURVE",
"602 148 CURVE SMOOTH",
"667 362 LINE SMOOTH",
"696 456 OFFCURVE",
"646 529 OFFCURVE",
"533 529 CURVE SMOOTH",
"446 529 OFFCURVE",
"391 489 OFFCURVE",
"392 462 CURVE SMOOTH",
"392 440 OFFCURVE",
"435 433 OFFCURVE",
"424 395 CURVE SMOOTH",
"361 180 LINE SMOOTH",
"324 55 OFFCURVE",
"413 -9 OFFCURVE",
"545 -9 CURVE SMOOTH",
"732 -9 OFFCURVE",
"952 207 OFFCURVE",
"949 391 CURVE SMOOTH",
"948 478 OFFCURVE",
"893 529 OFFCURVE",
"826 529 CURVE SMOOTH"
);
},
{
closed = 1;
nodes = (
"367 200 LINE",
"351 162 OFFCURVE",
"336 146 OFFCURVE",
"312 146 CURVE SMOOTH",
"290 146 OFFCURVE",
"278 162 OFFCURVE",
"288 192 CURVE SMOOTH",
"339 362 LINE SMOOTH",
"367 456 OFFCURVE",
"318 529 OFFCURVE",
"205 529 CURVE SMOOTH",
"118 529 OFFCURVE",
"63 489 OFFCURVE",
"64 462 CURVE SMOOTH",
"64 440 OFFCURVE",
"107 433 OFFCURVE",
"96 395 CURVE SMOOTH",
"40 199 LINE SMOOTH",
"-1 60 OFFCURVE",
"76 -3 OFFCURVE",
"182 -3 CURVE SMOOTH",
"264 -3 OFFCURVE",
"347 46 OFFCURVE",
"400 154 CURVE"
);
}
);
width = 934;
}
);
leftMetricsKey = v;
rightMetricsKey = v;
unicode = 0077;
},
{
glyphname = x;
lastChange = "2015-09-03 16:32:11 +0000";
layers = (
{
background = {
paths = (
{
closed = 1;
nodes = (
"143 529 OFFCURVE",
"65 475 OFFCURVE",
"48 405 CURVE SMOOTH",
"43 383 OFFCURVE",
"50 371 OFFCURVE",
"61 371 CURVE SMOOTH",
"74 371 OFFCURVE",
"81 382 OFFCURVE",
"95 382 CURVE SMOOTH",
"117 382 OFFCURVE",
"135 369 OFFCURVE",
"186 219 CURVE SMOOTH",
"262 13 OFFCURVE",
"318 -3 OFFCURVE",
"391 -3 CURVE SMOOTH",
"465 -3 OFFCURVE",
"544 51 OFFCURVE",
"560 120 CURVE SMOOTH",
"566 143 OFFCURVE",
"558 155 OFFCURVE",
"548 155 CURVE SMOOTH",
"535 155 OFFCURVE",
"527 144 OFFCURVE",
"513 144 CURVE SMOOTH",
"490 144 OFFCURVE",
"474 157 OFFCURVE",
"417 314 CURVE SMOOTH",
"348 503 OFFCURVE",
"291 529 OFFCURVE",
"218 529 CURVE SMOOTH"
);
},
{
closed = 1;
nodes = (
"499 351 LINE",
"563 296 OFFCURVE",
"614 333 OFFCURVE",
"622 397 CURVE SMOOTH",
"630 470 OFFCURVE",
"572 535 OFFCURVE",
"510 535 CURVE SMOOTH",
"479 535 OFFCURVE",
"450 519 OFFCURVE",
"422 450 CURVE SMOOTH",
"362 306 LINE",
"401 250 LINE"
);
},
{
closed = 1;
nodes = (
"133 181 LINE",
"78 218 OFFCURVE",
"13 207 OFFCURVE",
"-10 134 CURVE SMOOTH",
"-33 60 OFFCURVE",
"16 -4 OFFCURVE",
"84 -4 CURVE SMOOTH",
"133 -4 OFFCURVE",
"157 19 OFFCURVE",
"186 84 CURVE SMOOTH",
"249 225 LINE",
"228 271 LINE"
);
}
);
};
guideLines = (
{
angle = 72.8973;
position = "{-74, -75}";
}
);
layerId = "FF8CB9F1-2B98-444C-A502-96421F2531A8";
name = "Bold Italic";
paths = (
{
closed = 1;
nodes = (
"143 529 OFFCURVE",
"65 475 OFFCURVE",
"48 405 CURVE SMOOTH",
"43 383 OFFCURVE",
"50 371 OFFCURVE",
"61 371 CURVE SMOOTH",
"74 371 OFFCURVE",
"81 382 OFFCURVE",
"95 382 CURVE SMOOTH",
"117 382 OFFCURVE",
"135 369 OFFCURVE",
"186 219 CURVE SMOOTH",
"262 13 OFFCURVE",
"318 -3 OFFCURVE",
"391 -3 CURVE SMOOTH",
"465 -3 OFFCURVE",
"544 51 OFFCURVE",
"560 120 CURVE SMOOTH",
"566 143 OFFCURVE",
"558 155 OFFCURVE",
"548 155 CURVE SMOOTH",
"535 155 OFFCURVE",
"527 144 OFFCURVE",
"513 144 CURVE SMOOTH",
"490 144 OFFCURVE",
"474 157 OFFCURVE",
"417 314 CURVE SMOOTH",
"348 503 OFFCURVE",
"291 529 OFFCURVE",
"218 529 CURVE SMOOTH"
);
},
{
closed = 1;
nodes = (
"133 181 LINE",
"78 218 OFFCURVE",
"13 207 OFFCURVE",
"-10 134 CURVE SMOOTH",
"-33 60 OFFCURVE",
"11 -4 OFFCURVE",
"84 -4 CURVE SMOOTH",
"128 -4 OFFCURVE",
"158 21 OFFCURVE",
"190 92 CURVE SMOOTH",
"249 225 LINE",
"228 271 LINE"
);
},
{
closed = 1;
nodes = (
"473 344 LINE",
"528 307 OFFCURVE",
"593 318 OFFCURVE",
"616 391 CURVE SMOOTH",
"639 465 OFFCURVE",
"595 529 OFFCURVE",
"526 529 CURVE SMOOTH",
"478 529 OFFCURVE",
"449 506 OFFCURVE",
"420 441 CURVE SMOOTH",
"357 300 LINE",
"378 254 LINE"
);
}
);
width = 585;
},
{
associatedMasterId = "FF8CB9F1-2B98-444C-A502-96421F2531A8";
background = {
paths = (
{
closed = 1;
nodes = (
"241 255 LINE",
"151 333 OFFCURVE",
"56 281 OFFCURVE",
"46 191 CURVE SMOOTH",
"34 87 OFFCURVE",
"118 -4 OFFCURVE",
"205 -4 CURVE SMOOTH",
"249 -4 OFFCURVE",
"281 22 OFFCURVE",
"329 115 CURVE SMOOTH",
"433 318 LINE",
"379 398 LINE"
);
}
);
};
layerId = "EC500519-39C3-4B49-8742-AFF568A00E42";
name = "Bold Italic Jul 14 15, 13:45";
paths = (
{
closed = 1;
nodes = (
"271 755 OFFCURVE",
"137 674 OFFCURVE",
"113 601 CURVE SMOOTH",
"103 565 OFFCURVE",
"107 540 OFFCURVE",
"124 540 CURVE SMOOTH",
"140 540 OFFCURVE",
"153 546 OFFCURVE",
"183 546 CURVE SMOOTH",
"226 546 OFFCURVE",
"276 442 OFFCURVE",
"318 327 CURVE SMOOTH",
"403 73 OFFCURVE",
"456 -4 OFFCURVE",
"567 -4 CURVE SMOOTH",
"699 -4 OFFCURVE",
"833 77 OFFCURVE",
"857 150 CURVE SMOOTH",
"867 186 OFFCURVE",
"864 211 OFFCURVE",
"847 211 CURVE SMOOTH",
"831 211 OFFCURVE",
"817 205 OFFCURVE",
"787 205 CURVE SMOOTH",
"744 205 OFFCURVE",
"694 309 OFFCURVE",
"653 424 CURVE SMOOTH",
"567 678 OFFCURVE",
"514 755 OFFCURVE",
"403 755 CURVE SMOOTH"
);
},
{
closed = 1;
nodes = (
"773 496 LINE",
"863 418 OFFCURVE",
"936 470 OFFCURVE",
"946 560 CURVE SMOOTH",
"958 664 OFFCURVE",
"876 755 OFFCURVE",
"789 755 CURVE SMOOTH",
"745 755 OFFCURVE",
"705 733 OFFCURVE",
"665 636 CURVE SMOOTH",
"581 433 LINE",
"635 353 LINE"
);
},
{
closed = 1;
nodes = (
"229 255 LINE",
"139 333 OFFCURVE",
"66 281 OFFCURVE",
"56 191 CURVE SMOOTH",
"44 87 OFFCURVE",
"126 -4 OFFCURVE",
"213 -4 CURVE SMOOTH",
"257 -4 OFFCURVE",
"297 18 OFFCURVE",
"337 115 CURVE SMOOTH",
"421 318 LINE",
"367 398 LINE"
);
}
);
width = 978;
}
);
unicode = 0078;
},
